STARTFONT 2.1
COMMENT
COMMENT Converted from OpenType font "c:\windows\fonts\timesbi.ttf" by "otf2bdf 3.0".
COMMENT
FONT -FreeType-Times New Roman-Bold-I-Normal--18-180-72-72-P-101-ISO10646-1
SIZE 18 72 72
FONTBOUNDINGBOX 35 25 -10 -6
STARTPROPERTIES 19
FOUNDRY "FreeType"
FAMILY_NAME "Times New Roman"
WEIGHT_NAME "Bold"
SLANT "I"
SETWIDTH_NAME "Normal"
ADD_STYLE_NAME ""
PIXEL_SIZE 18
POINT_SIZE 180
RESOLUTION_X 72
RESOLUTION_Y 72
SPACING "P"
AVERAGE_WIDTH 101
CHARSET_REGISTRY "ISO10646"
CHARSET_ENCODING "1"
FONT_ASCENT 16
FONT_DESCENT 3
COPYRIGHT "© 2017 The Monotype Corporation. All Rights Reserved.     Hebrew OpenType Layout logic copyright © 2003 & 2007, Ralph Hancock & John Hudson. This layout logic for Biblical Hebrew is open source software under the MIT License; see embedded license description for details."
_OTF_FONTFILE "c:\windows\fonts\timesbi.ttf"
_OTF_PSNAME "TimesNewRomanPS-BoldItalicMT"
ENDPROPERTIES
CHARS 2928
STARTCHAR 0020
ENCODING 32
SWIDTH 277 0
DWIDTH 5 0
BBX 0 0 0 0
BITMAP
ENDCHAR
STARTCHAR 0021
ENCODING 33
SWIDTH 388 0
DWIDTH 7 0
BBX 5 12 1 0
BITMAP
18
18
18
10
30
20
20
20
00
40
E0
E0
ENDCHAR
STARTCHAR 0022
ENCODING 34
SWIDTH 555 0
DWIDTH 10 0
BBX 7 6 3 6
BITMAP
66
EE
CC
CC
88
08
ENDCHAR
STARTCHAR 0023
ENCODING 35
SWIDTH 500 0
DWIDTH 9 0
BBX 8 12 1 0
BITMAP
12
32
22
22
FF
24
44
FF
44
4C
C8
88
ENDCHAR
STARTCHAR 0024
ENCODING 36
SWIDTH 500 0
DWIDTH 9 0
BBX 8 13 1 -1
BITMAP
04
1E
25
68
78
38
38
1C
1E
A6
A6
A6
F8
ENDCHAR
STARTCHAR 0025
ENCODING 37
SWIDTH 833 0
DWIDTH 15 0
BBX 12 12 2 0
BITMAP
3830
4820
C840
D880
9900
6260
0490
09B0
1130
2130
4120
C1C0
ENDCHAR
STARTCHAR 0026
ENCODING 38
SWIDTH 777 0
DWIDTH 14 0
BBX 12 12 1 0
BITMAP
0380
04C0
0CC0
0D80
0F00
0EF0
3E40
6640
C780
E380
F3D0
7DE0
ENDCHAR
STARTCHAR 0027
ENCODING 39
SWIDTH 277 0
DWIDTH 5 0
BBX 3 5 3 6
BITMAP
60
E0
C0
80
80
ENDCHAR
STARTCHAR 0028
ENCODING 40
SWIDTH 333 0
DWIDTH 6 0
BBX 7 14 1 -4
BITMAP
02
0C
18
30
60
60
E0
C0
C0
C0
C0
C0
40
40
ENDCHAR
STARTCHAR 0029
ENCODING 41
SWIDTH 333 0
DWIDTH 6 0
BBX 6 15 -1 -4
BITMAP
10
10
08
08
0C
0C
0C
0C
1C
18
38
30
60
40
80
ENDCHAR
STARTCHAR 002A
ENCODING 42
SWIDTH 500 0
DWIDTH 9 0
BBX 7 6 2 5
BITMAP
10
18
D6
FE
28
6C
ENDCHAR
STARTCHAR 002B
ENCODING 43
SWIDTH 555 0
DWIDTH 10 0
BBX 9 9 1 2
BITMAP
0800
0800
0800
0800
FF80
0800
0800
0800
0800
ENDCHAR
STARTCHAR 002C
ENCODING 44
SWIDTH 277 0
DWIDTH 5 0
BBX 3 5 0 -3
BITMAP
60
E0
60
60
80
ENDCHAR
STARTCHAR 002D
ENCODING 45
SWIDTH 333 0
DWIDTH 6 0
BBX 6 2 0 3
BITMAP
7C
F8
ENDCHAR
STARTCHAR 002E
ENCODING 46
SWIDTH 277 0
DWIDTH 5 0
BBX 3 3 0 0
BITMAP
C0
E0
C0
ENDCHAR
STARTCHAR 002F
ENCODING 47
SWIDTH 277 0
DWIDTH 5 0
BBX 8 12 -1 0
BITMAP
01
03
02
04
0C
08
10
30
20
40
C0
80
ENDCHAR
STARTCHAR 0030
ENCODING 48
SWIDTH 500 0
DWIDTH 9 0
BBX 8 12 1 0
BITMAP
0E
13
33
73
63
E7
E7
C6
CE
CC
C8
70
ENDCHAR
STARTCHAR 0031
ENCODING 49
SWIDTH 500 0
DWIDTH 9 0
BBX 6 12 2 0
BITMAP
0C
3C
18
18
38
30
30
30
70
60
60
E0
ENDCHAR
STARTCHAR 0032
ENCODING 50
SWIDTH 500 0
DWIDTH 9 0
BBX 9 12 0 0
BITMAP
0E00
1F00
2380
0380
0300
0300
0600
0C00
1000
2000
7E00
FE00
ENDCHAR
STARTCHAR 0033
ENCODING 51
SWIDTH 500 0
DWIDTH 9 0
BBX 8 12 0 0
BITMAP
0E
13
03
03
06
3E
06
06
06
06
C4
F8
ENDCHAR
STARTCHAR 0034
ENCODING 52
SWIDTH 500 0
DWIDTH 9 0
BBX 8 12 1 0
BITMAP
03
03
06
0E
16
2C
4C
8C
FE
18
18
18
ENDCHAR
STARTCHAR 0035
ENCODING 53
SWIDTH 500 0
DWIDTH 9 0
BBX 8 12 1 0
BITMAP
1F
1F
20
30
7C
1C
0E
06
04
04
C8
F0
ENDCHAR
STARTCHAR 0036
ENCODING 54
SWIDTH 500 0
DWIDTH 9 0
BBX 8 12 1 1
BITMAP
03
0C
18
30
70
6E
E6
E6
C6
C6
CC
78
ENDCHAR
STARTCHAR 0037
ENCODING 55
SWIDTH 500 0
DWIDTH 9 0
BBX 8 12 2 0
BITMAP
7F
7E
82
04
08
08
10
10
20
40
40
80
ENDCHAR
STARTCHAR 0038
ENCODING 56
SWIDTH 500 0
DWIDTH 9 0
BBX 8 12 1 0
BITMAP
1E
33
33
33
3E
18
7C
CE
CE
CE
CC
78
ENDCHAR
STARTCHAR 0039
ENCODING 57
SWIDTH 500 0
DWIDTH 9 0
BBX 7 12 2 -1
BITMAP
3C
64
C6
C6
CE
CE
CC
3C
18
30
60
80
ENDCHAR
STARTCHAR 003A
ENCODING 58
SWIDTH 333 0
DWIDTH 6 0
BBX 4 8 1 0
BITMAP
30
70
30
00
00
C0
E0
C0
ENDCHAR
STARTCHAR 003B
ENCODING 59
SWIDTH 333 0
DWIDTH 6 0
BBX 5 11 0 -3
BITMAP
18
38
18
00
00
00
70
70
20
40
80
ENDCHAR
STARTCHAR 003C
ENCODING 60
SWIDTH 555 0
DWIDTH 10 0
BBX 9 8 1 2
BITMAP
0080
0700
1C00
7000
E000
3800
0700
0180
ENDCHAR
STARTCHAR 003D
ENCODING 61
SWIDTH 555 0
DWIDTH 10 0
BBX 9 4 1 3
BITMAP
FF80
0000
0000
FF80
ENDCHAR
STARTCHAR 003E
ENCODING 62
SWIDTH 555 0
DWIDTH 10 0
BBX 9 8 1 2
BITMAP
8000
7000
1C00
0780
0380
0E00
7000
C000
ENDCHAR
STARTCHAR 003F
ENCODING 63
SWIDTH 500 0
DWIDTH 9 0
BBX 7 12 2 0
BITMAP
78
6C
EE
0C
1C
30
20
40
00
C0
C0
C0
ENDCHAR
STARTCHAR 0040
ENCODING 64
SWIDTH 833 0
DWIDTH 15 0
BBX 15 16 0 -4
BITMAP
07E0
1818
2004
6004
41E2
8662
8662
8CE2
8CC4
9DC4
9EC8
8CF0
4004
2004
1008
0FF0
ENDCHAR
STARTCHAR 0041
ENCODING 65
SWIDTH 666 0
DWIDTH 12 0
BBX 10 12 0 0
BITMAP
0040
00C0
00C0
01C0
03C0
05C0
09C0
1FC0
21C0
41C0
41C0
C1C0
ENDCHAR
STARTCHAR 0042
ENCODING 66
SWIDTH 666 0
DWIDTH 12 0
BBX 11 12 1 0
BITMAP
3FC0
1CC0
18E0
38C0
3980
3E00
3380
7180
71C0
6180
E380
FF00
ENDCHAR
STARTCHAR 0043
ENCODING 67
SWIDTH 666 0
DWIDTH 12 0
BBX 12 12 1 0
BITMAP
03F0
1C30
3800
7000
7000
E000
E000
E000
E000
6040
7080
1F00
ENDCHAR
STARTCHAR 0044
ENCODING 68
SWIDTH 722 0
DWIDTH 13 0
BBX 13 12 0 0
BITMAP
1FC0
0E60
0C70
1C30
1C38
1838
3870
3870
3870
30E0
71C0
FF00
ENDCHAR
STARTCHAR 0045
ENCODING 69
SWIDTH 666 0
DWIDTH 12 0
BBX 12 12 0 0
BITMAP
1FF0
0E10
0C10
1C00
1C40
1F80
3880
3880
3800
3000
70C0
FFC0
ENDCHAR
STARTCHAR 0046
ENCODING 70
SWIDTH 666 0
DWIDTH 12 0
BBX 12 12 1 0
BITMAP
1FF0
1C30
1C00
1C00
1880
3F80
3900
3000
7000
7000
7000
F000
ENDCHAR
STARTCHAR 0047
ENCODING 71
SWIDTH 722 0
DWIDTH 13 0
BBX 12 12 1 0
BITMAP
03F0
1C10
3810
7000
7000
E000
E1F0
E0E0
E0C0
61C0
31C0
1F80
ENDCHAR
STARTCHAR 0048
ENCODING 72
SWIDTH 777 0
DWIDTH 14 0
BBX 15 12 0 0
BITMAP
1F3E
0E1C
0C18
1C38
1C38
1C30
3FF0
3870
3870
3060
70E0
F1E0
ENDCHAR
STARTCHAR 0049
ENCODING 73
SWIDTH 388 0
DWIDTH 7 0
BBX 8 12 0 0
BITMAP
1F
0E
0C
1C
1C
18
38
38
38
30
70
F0
ENDCHAR
STARTCHAR 004A
ENCODING 74
SWIDTH 500 0
DWIDTH 9 0
BBX 10 12 0 0
BITMAP
03C0
0380
0380
0300
0700
0700
0600
0E00
0E00
CC00
DC00
F000
ENDCHAR
STARTCHAR 004B
ENCODING 75
SWIDTH 666 0
DWIDTH 12 0
BBX 11 12 1 0
BITMAP
3CE0
1C40
1880
3B00
3E00
3E00
7600
7700
7700
6300
E380
E7C0
ENDCHAR
STARTCHAR 004C
ENCODING 76
SWIDTH 611 0
DWIDTH 11 0
BBX 10 12 0 0
BITMAP
1F00
0E00
0C00
1C00
1C00
1800
3800
3800
3800
3040
70C0
FF80
ENDCHAR
STARTCHAR 004D
ENCODING 77
SWIDTH 888 0
DWIDTH 16 0
BBX 17 12 0 0
BITMAP
1E0780
0E0F00
161600
161E00
162E00
264C00
265C00
279C00
271C00
471800
463800
E07800
ENDCHAR
STARTCHAR 004E
ENCODING 78
SWIDTH 722 0
DWIDTH 13 0
BBX 14 12 0 0
BITMAP
1E1C
0E08
1710
1710
1390
2390
21A0
21E0
20E0
40C0
4040
E040
ENDCHAR
STARTCHAR 004F
ENCODING 79
SWIDTH 722 0
DWIDTH 13 0
BBX 12 12 1 0
BITMAP
07C0
0C60
3870
3070
7070
E070
E0E0
E0E0
E0C0
E180
6300
3E00
ENDCHAR
STARTCHAR 0050
ENCODING 80
SWIDTH 611 0
DWIDTH 11 0
BBX 11 12 1 0
BITMAP
3F80
1CC0
18E0
38E0
39C0
3180
3F00
7000
7000
6000
E000
E000
ENDCHAR
STARTCHAR 0051
ENCODING 81
SWIDTH 722 0
DWIDTH 13 0
BBX 12 16 1 -4
BITMAP
07C0
0C60
3870
3070
7070
7070
E070
E0E0
E0E0
E1C0
E180
6300
1C00
2000
7F60
BF80
ENDCHAR
STARTCHAR 0052
ENCODING 82
SWIDTH 666 0
DWIDTH 12 0
BBX 11 12 0 0
BITMAP
1FC0
0EE0
0C60
1C60
1CE0
1CC0
3F00
3B80
3B80
3180
71C0
F1C0
ENDCHAR
STARTCHAR 0053
ENCODING 83
SWIDTH 555 0
DWIDTH 10 0
BBX 10 12 0 0
BITMAP
0FC0
18C0
3840
3800
1C00
1E00
0F00
0700
0380
8380
C300
FE00
ENDCHAR
STARTCHAR 0054
ENCODING 84
SWIDTH 611 0
DWIDTH 11 0
BBX 10 12 2 0
BITMAP
7FC0
CE40
8C40
1C00
1C00
1C00
1800
3800
3800
3000
7000
F000
ENDCHAR
STARTCHAR 0055
ENCODING 85
SWIDTH 722 0
DWIDTH 13 0
BBX 12 12 2 0
BITMAP
7C70
3020
7040
7040
7040
6040
E080
E080
C080
C100
E200
7C00
ENDCHAR
STARTCHAR 0056
ENCODING 86
SWIDTH 666 0
DWIDTH 12 0
BBX 11 12 3 0
BITMAP
F0E0
E080
E080
E100
E200
E400
E800
F000
E000
C000
C000
8000
ENDCHAR
STARTCHAR 0057
ENCODING 87
SWIDTH 888 0
DWIDTH 16 0
BBX 16 12 2 0
BITMAP
73C7
71C4
7184
7388
7590
65A0
69A0
73C0
6380
6380
C300
8200
ENDCHAR
STARTCHAR 0058
ENCODING 88
SWIDTH 666 0
DWIDTH 12 0
BBX 14 12 -1 0
BITMAP
1E1C
0E18
0710
0720
0340
0380
0380
05C0
09C0
10C0
20E0
E0F0
ENDCHAR
STARTCHAR 0059
ENCODING 89
SWIDTH 611 0
DWIDTH 11 0
BBX 9 12 3 0
BITMAP
F180
6100
6100
7200
7400
3800
3800
3000
7000
7000
6000
F000
ENDCHAR
STARTCHAR 005A
ENCODING 90
SWIDTH 611 0
DWIDTH 11 0
BBX 12 12 0 0
BITMAP
1FF0
10E0
21C0
03C0
0780
0700
0E00
1C00
3800
7840
F080
FF80
ENDCHAR
STARTCHAR 005B
ENCODING 91
SWIDTH 333 0
DWIDTH 6 0
BBX 7 15 0 -3
BITMAP
0E
1C
18
18
18
30
30
30
60
60
60
E0
C0
C0
E0
ENDCHAR
STARTCHAR 005C
ENCODING 92
SWIDTH 277 0
DWIDTH 5 0
BBX 3 12 1 0
BITMAP
C0
40
40
40
40
40
40
40
40
40
60
20
ENDCHAR
STARTCHAR 005D
ENCODING 93
SWIDTH 333 0
DWIDTH 6 0
BBX 8 15 -2 -3
BITMAP
07
03
06
06
06
0E
0C
0C
0C
18
18
18
30
30
F0
ENDCHAR
STARTCHAR 005E
ENCODING 94
SWIDTH 555 0
DWIDTH 10 0
BBX 7 6 2 6
BITMAP
10
18
2C
64
46
82
ENDCHAR
STARTCHAR 005F
ENCODING 95
SWIDTH 500 0
DWIDTH 9 0
BBX 10 1 -2 -3
BITMAP
FFC0
ENDCHAR
STARTCHAR 0060
ENCODING 96
SWIDTH 333 0
DWIDTH 6 0
BBX 3 3 3 9
BITMAP
C0
40
20
ENDCHAR
STARTCHAR 0061
ENCODING 97
SWIDTH 500 0
DWIDTH 9 0
BBX 8 8 0 0
BITMAP
1F
33
73
67
66
EE
F7
66
ENDCHAR
STARTCHAR 0062
ENCODING 98
SWIDTH 500 0
DWIDTH 9 0
BBX 8 12 0 0
BITMAP
3C
18
18
38
37
3B
33
63
63
66
E6
78
ENDCHAR
STARTCHAR 0063
ENCODING 99
SWIDTH 444 0
DWIDTH 8 0
BBX 8 8 0 0
BITMAP
0E
33
62
60
60
E0
70
7C
ENDCHAR
STARTCHAR 0064
ENCODING 100
SWIDTH 500 0
DWIDTH 9 0
BBX 10 12 0 0
BITMAP
01C0
0180
0180
0180
1F00
3300
7300
6700
6600
EE00
F700
6600
ENDCHAR
STARTCHAR 0065
ENCODING 101
SWIDTH 444 0
DWIDTH 8 0
BBX 8 8 0 0
BITMAP
0F
13
36
64
78
E0
60
7C
ENDCHAR
STARTCHAR 0066
ENCODING 102
SWIDTH 333 0
DWIDTH 6 0
BBX 12 16 -3 -4
BITMAP
0070
01B0
0300
0300
0F80
0700
0600
0600
0600
0E00
0C00
0C00
0C00
1800
D800
E000
ENDCHAR
STARTCHAR 0067
ENCODING 103
SWIDTH 500 0
DWIDTH 9 0
BBX 10 12 -1 -4
BITMAP
0E00
19C0
3180
3380
3380
1E00
2000
3E00
3F00
C300
C300
7E00
ENDCHAR
STARTCHAR 0068
ENCODING 104
SWIDTH 555 0
DWIDTH 10 0
BBX 9 12 0 0
BITMAP
3C00
1C00
1800
1800
3B80
3780
3B80
3300
7300
6300
6680
E700
ENDCHAR
STARTCHAR 0069
ENCODING 105
SWIDTH 277 0
DWIDTH 5 0
BBX 5 12 0 0
BITMAP
18
18
00
00
70
30
30
70
60
60
F0
60
ENDCHAR
STARTCHAR 006A
ENCODING 106
SWIDTH 277 0
DWIDTH 5 0
BBX 8 16 -3 -4
BITMAP
03
03
00
00
0F
06
06
06
0E
0C
0C
0C
18
18
D0
E0
ENDCHAR
STARTCHAR 006B
ENCODING 107
SWIDTH 500 0
DWIDTH 9 0
BBX 9 12 0 0
BITMAP
3C00
1800
1800
1800
3B80
3200
3400
7C00
7C00
6600
6700
E600
ENDCHAR
STARTCHAR 006C
ENCODING 108
SWIDTH 277 0
DWIDTH 5 0
BBX 6 12 0 0
BITMAP
3C
18
18
38
30
30
30
60
60
60
F0
E0
ENDCHAR
STARTCHAR 006D
ENCODING 109
SWIDTH 777 0
DWIDTH 14 0
BBX 13 8 0 0
BITMAP
7B18
37B8
3BF8
33B0
7330
6730
6678
E670
ENDCHAR
STARTCHAR 006E
ENCODING 110
SWIDTH 555 0
DWIDTH 10 0
BBX 9 8 0 0
BITMAP
7B80
3780
3B80
3300
7300
6300
6680
E700
ENDCHAR
STARTCHAR 006F
ENCODING 111
SWIDTH 500 0
DWIDTH 9 0
BBX 8 8 0 0
BITMAP
0E
33
73
63
63
E6
66
68
ENDCHAR
STARTCHAR 0070
ENCODING 112
SWIDTH 500 0
DWIDTH 9 0
BBX 11 12 -2 -4
BITMAP
1DC0
0EC0
0CE0
18C0
18C0
1980
3980
3A00
3400
3000
7000
F000
ENDCHAR
STARTCHAR 0071
ENCODING 113
SWIDTH 500 0
DWIDTH 9 0
BBX 9 12 0 -4
BITMAP
1D80
3300
7300
6300
6600
E600
FE00
6E00
0C00
0C00
0C00
1C00
ENDCHAR
STARTCHAR 0072
ENCODING 114
SWIDTH 388 0
DWIDTH 7 0
BBX 7 8 0 0
BITMAP
76
36
3A
70
70
60
60
E0
ENDCHAR
STARTCHAR 0073
ENCODING 115
SWIDTH 388 0
DWIDTH 7 0
BBX 7 8 0 0
BITMAP
3E
60
70
38
1C
8C
8C
F8
ENDCHAR
STARTCHAR 0074
ENCODING 116
SWIDTH 277 0
DWIDTH 5 0
BBX 5 10 0 1
BITMAP
08
18
78
30
70
60
60
60
F0
60
ENDCHAR
STARTCHAR 0075
ENCODING 117
SWIDTH 555 0
DWIDTH 10 0
BBX 8 8 1 0
BITMAP
F3
63
67
E6
CE
DE
ED
CE
ENDCHAR
STARTCHAR 0076
ENCODING 118
SWIDTH 444 0
DWIDTH 8 0
BBX 7 8 1 0
BITMAP
E6
66
62
64
68
70
60
40
ENDCHAR
STARTCHAR 0077
ENCODING 119
SWIDTH 666 0
DWIDTH 12 0
BBX 11 8 1 0
BITMAP
E260
6660
6E60
7640
7680
6680
4700
0400
ENDCHAR
STARTCHAR 0078
ENCODING 120
SWIDTH 500 0
DWIDTH 9 0
BBX 10 8 -1 0
BITMAP
38C0
1DC0
0E00
0C00
0E00
1600
F780
C300
ENDCHAR
STARTCHAR 0079
ENCODING 121
SWIDTH 444 0
DWIDTH 8 0
BBX 10 12 -2 -4
BITMAP
18C0
1CC0
0C40
0C80
0C80
0D00
0E00
0E00
0C00
0800
F000
6000
ENDCHAR
STARTCHAR 007A
ENCODING 122
SWIDTH 388 0
DWIDTH 7 0
BBX 7 10 0 -2
BITMAP
3E
7C
48
10
20
20
60
E4
34
18
ENDCHAR
STARTCHAR 007B
ENCODING 123
SWIDTH 333 0
DWIDTH 6 0
BBX 7 16 1 -4
BITMAP
06
08
18
18
18
30
30
40
40
60
60
60
C0
C0
C0
60
ENDCHAR
STARTCHAR 007C
ENCODING 124
SWIDTH 222 0
DWIDTH 4 0
BBX 2 16 1 -4
BITMAP
C0
C0
C0
C0
C0
C0
C0
C0
C0
C0
C0
C0
C0
C0
C0
C0
ENDCHAR
STARTCHAR 007D
ENCODING 125
SWIDTH 333 0
DWIDTH 6 0
BBX 7 16 -1 -4
BITMAP
0C
06
06
0C
0C
08
08
04
0C
10
30
30
30
30
60
C0
ENDCHAR
STARTCHAR 007E
ENCODING 126
SWIDTH 555 0
DWIDTH 10 0
BBX 10 3 0 4
BITMAP
7040
5C40
8780
ENDCHAR
STARTCHAR 00A0
ENCODING 160
SWIDTH 277 0
DWIDTH 5 0
BBX 0 0 0 0
BITMAP
ENDCHAR
STARTCHAR 00A1
ENCODING 161
SWIDTH 388 0
DWIDTH 7 0
BBX 6 12 0 -4
BITMAP
18
1C
18
00
10
20
20
20
60
60
E0
40
ENDCHAR
STARTCHAR 00A2
ENCODING 162
SWIDTH 500 0
DWIDTH 9 0
BBX 7 15 1 -3
BITMAP
04
04
04
08
3E
6E
76
D0
D0
E0
E4
78
20
40
40
ENDCHAR
STARTCHAR 00A3
ENCODING 163
SWIDTH 500 0
DWIDTH 9 0
BBX 9 12 0 0
BITMAP
0380
0D80
0C00
1C00
1C00
3E00
1800
1800
1000
7800
BF00
6E00
ENDCHAR
STARTCHAR 00A4
ENCODING 164
SWIDTH 500 0
DWIDTH 9 0
BBX 8 8 1 2
BITMAP
BD
66
C2
81
81
82
46
BF
ENDCHAR
STARTCHAR 00A5
ENCODING 165
SWIDTH 500 0
DWIDTH 9 0
BBX 10 12 0 0
BITMAP
3C40
1840
1880
1D00
1D00
0E00
FFC0
0C00
FF80
1800
1800
3800
ENDCHAR
STARTCHAR 00A6
ENCODING 166
SWIDTH 222 0
DWIDTH 4 0
BBX 2 16 1 -4
BITMAP
C0
C0
C0
C0
C0
C0
00
00
00
00
C0
C0
C0
C0
C0
C0
ENDCHAR
STARTCHAR 00A7
ENCODING 167
SWIDTH 500 0
DWIDTH 9 0
BBX 10 16 0 -4
BITMAP
0F00
1880
10C0
1880
1C00
2E00
6700
6300
6100
7100
3A00
1C00
0C00
C400
C400
7800
ENDCHAR
STARTCHAR 00A8
ENCODING 168
SWIDTH 333 0
DWIDTH 6 0
BBX 5 2 2 9
BITMAP
D8
D8
ENDCHAR
STARTCHAR 00A9
ENCODING 169
SWIDTH 722 0
DWIDTH 13 0
BBX 12 12 1 0
BITMAP
0F80
3040
4FA0
9810
9010
B010
B010
9810
9890
4720
2040
1F80
ENDCHAR
STARTCHAR 00AA
ENCODING 170
SWIDTH 277 0
DWIDTH 5 0
BBX 5 5 1 7
BITMAP
38
48
D8
D0
78
ENDCHAR
STARTCHAR 00AB
ENCODING 171
SWIDTH 500 0
DWIDTH 9 0
BBX 8 8 1 0
BITMAP
11
22
64
CC
CC
4C
44
04
ENDCHAR
STARTCHAR 00AC
ENCODING 172
SWIDTH 611 0
DWIDTH 11 0
BBX 9 4 1 3
BITMAP
FF80
0080
0080
0080
ENDCHAR
STARTCHAR 00AD
ENCODING 173
SWIDTH 333 0
DWIDTH 6 0
BBX 6 2 0 3
BITMAP
7C
F8
ENDCHAR
STARTCHAR 00AE
ENCODING 174
SWIDTH 722 0
DWIDTH 13 0
BBX 12 12 1 0
BITMAP
0F80
3040
5E20
8990
8990
8990
8F10
8B10
8990
5CE0
2040
1F80
ENDCHAR
STARTCHAR 00AF
ENCODING 175
SWIDTH 500 0
DWIDTH 9 0
BBX 10 1 2 12
BITMAP
FFC0
ENDCHAR
STARTCHAR 00B0
ENCODING 176
SWIDTH 388 0
DWIDTH 7 0
BBX 6 6 2 5
BITMAP
70
C8
8C
8C
88
70
ENDCHAR
STARTCHAR 00B1
ENCODING 177
SWIDTH 555 0
DWIDTH 10 0
BBX 10 9 0 1
BITMAP
0C00
0C00
0C00
0C00
FFC0
0C00
0C00
0C00
FFC0
ENDCHAR
STARTCHAR 00B2
ENCODING 178
SWIDTH 277 0
DWIDTH 5 0
BBX 5 6 1 5
BITMAP
38
48
18
10
68
F0
ENDCHAR
STARTCHAR 00B3
ENCODING 179
SWIDTH 277 0
DWIDTH 5 0
BBX 5 7 1 5
BITMAP
38
08
10
30
10
10
E0
ENDCHAR
STARTCHAR 00B4
ENCODING 180
SWIDTH 333 0
DWIDTH 6 0
BBX 3 3 4 9
BITMAP
E0
C0
80
ENDCHAR
STARTCHAR 00B5
ENCODING 181
SWIDTH 555 0
DWIDTH 10 0
BBX 10 12 -1 -4
BITMAP
0CC0
18C0
18C0
19C0
3980
3380
3580
7980
4000
C000
C000
C000
ENDCHAR
STARTCHAR 00B6
ENCODING 182
SWIDTH 500 0
DWIDTH 9 0
BBX 9 16 0 -4
BITMAP
3F80
F900
F900
F900
F900
F900
F900
7900
0900
0900
0900
0900
0900
0900
0900
0900
ENDCHAR
STARTCHAR 00B7
ENCODING 183
SWIDTH 277 0
DWIDTH 5 0
BBX 3 3 1 4
BITMAP
60
E0
60
ENDCHAR
STARTCHAR 00B8
ENCODING 184
SWIDTH 333 0
DWIDTH 6 0
BBX 4 4 0 -4
BITMAP
20
70
30
E0
ENDCHAR
STARTCHAR 00B9
ENCODING 185
SWIDTH 277 0
DWIDTH 5 0
BBX 5 7 1 5
BITMAP
08
10
10
30
20
20
F0
ENDCHAR
STARTCHAR 00BA
ENCODING 186
SWIDTH 277 0
DWIDTH 5 0
BBX 5 5 2 7
BITMAP
70
D8
98
B0
40
ENDCHAR
STARTCHAR 00BB
ENCODING 187
SWIDTH 500 0
DWIDTH 9 0
BBX 8 8 0 0
BITMAP
20
22
32
33
33
26
44
88
ENDCHAR
STARTCHAR 00BC
ENCODING 188
SWIDTH 777 0
DWIDTH 14 0
BBX 11 12 1 0
BITMAP
3860
1040
3080
2180
2100
F200
0420
0460
08E0
1140
33E0
20C0
ENDCHAR
STARTCHAR 00BD
ENCODING 189
SWIDTH 777 0
DWIDTH 14 0
BBX 11 12 1 0
BITMAP
3840
10C0
3080
2100
2200
F200
04E0
0920
1820
1040
20A0
41C0
ENDCHAR
STARTCHAR 00BE
ENCODING 190
SWIDTH 777 0
DWIDTH 14 0
BBX 11 12 1 0
BITMAP
3860
1840
7080
1180
1100
E200
0420
0C60
08E0
1140
33E0
20C0
ENDCHAR
STARTCHAR 00BF
ENCODING 191
SWIDTH 500 0
DWIDTH 9 0
BBX 7 12 0 -4
BITMAP
06
0E
04
00
04
08
30
60
E0
CC
CC
68
ENDCHAR
STARTCHAR 00C0
ENCODING 192
SWIDTH 666 0
DWIDTH 12 0
BBX 11 16 0 0
BITMAP
00C0
0060
0020
0000
0040
00C0
00C0
01C0
03C0
05C0
09C0
1FC0
21C0
41C0
41C0
C1C0
ENDCHAR
STARTCHAR 00C1
ENCODING 193
SWIDTH 666 0
DWIDTH 12 0
BBX 13 16 0 0
BITMAP
0018
0030
0020
0000
0040
00C0
00C0
01C0
03C0
05C0
09C0
1FC0
21C0
41C0
41C0
C1C0
ENDCHAR
STARTCHAR 00C2
ENCODING 194
SWIDTH 666 0
DWIDTH 12 0
BBX 12 16 0 0
BITMAP
0060
0070
0090
0110
0040
00C0
00C0
01C0
03C0
05C0
09C0
1FC0
21C0
41C0
41C0
C1C0
ENDCHAR
STARTCHAR 00C3
ENCODING 195
SWIDTH 666 0
DWIDTH 12 0
BBX 13 15 0 0
BITMAP
00F8
01F0
0000
0040
00C0
00C0
01C0
03C0
05C0
09C0
1FC0
21C0
41C0
41C0
C1C0
ENDCHAR
STARTCHAR 00C4
ENCODING 196
SWIDTH 666 0
DWIDTH 12 0
BBX 13 15 0 0
BITMAP
0098
01D8
0000
0040
00C0
00C0
01C0
03C0
05C0
09C0
1FC0
21C0
41C0
41C0
C1C0
ENDCHAR
STARTCHAR 00C5
ENCODING 197
SWIDTH 666 0
DWIDTH 12 0
BBX 12 15 0 0
BITMAP
0060
0090
0090
0060
00C0
00C0
01C0
03C0
05C0
09C0
1FC0
21C0
41C0
41C0
C1C0
ENDCHAR
STARTCHAR 00C6
ENCODING 198
SWIDTH 944 0
DWIDTH 17 0
BBX 18 12 -1 0
BITMAP
007FC0
007840
00B840
013040
027100
027E00
046200
0FE200
10E000
20E080
20C300
E1FF00
ENDCHAR
STARTCHAR 00C7
ENCODING 199
SWIDTH 666 0
DWIDTH 12 0
BBX 12 15 1 -3
BITMAP
03F0
1C30
3800
7000
7000
E000
E000
E000
E000
6040
7080
1F00
0C00
0400
3800
ENDCHAR
STARTCHAR 00C8
ENCODING 200
SWIDTH 666 0
DWIDTH 12 0
BBX 12 16 0 0
BITMAP
0300
0300
0180
0080
1FF0
0E10
0C10
1C10
1C40
1F80
3880
3880
3800
3000
70C0
FFC0
ENDCHAR
STARTCHAR 00C9
ENCODING 201
SWIDTH 666 0
DWIDTH 12 0
BBX 12 16 0 0
BITMAP
00E0
00C0
0080
0100
1FF0
0E10
0C10
1C10
1C40
1F80
3880
3880
3800
3000
70C0
FFC0
ENDCHAR
STARTCHAR 00CA
ENCODING 202
SWIDTH 666 0
DWIDTH 12 0
BBX 12 16 0 0
BITMAP
00C0
01C0
0340
0420
1FF0
0E10
0C10
1C10
1C40
1F80
3880
3880
3800
3000
70C0
FFC0
ENDCHAR
STARTCHAR 00CB
ENCODING 203
SWIDTH 666 0
DWIDTH 12 0
BBX 12 15 0 0
BITMAP
0360
0360
0000
1FF0
0E10
0C10
1C10
1C40
1F80
3880
3880
3800
3000
70C0
FFC0
ENDCHAR
STARTCHAR 00CC
ENCODING 204
SWIDTH 388 0
DWIDTH 7 0
BBX 8 16 0 0
BITMAP
0C
04
06
02
1F
0E
0C
1C
1C
18
38
38
38
30
70
F0
ENDCHAR
STARTCHAR 00CD
ENCODING 205
SWIDTH 388 0
DWIDTH 7 0
BBX 9 16 0 0
BITMAP
0380
0300
0200
0400
1F00
0E00
0C00
1C00
1C00
1800
3800
3800
3800
3000
7000
F000
ENDCHAR
STARTCHAR 00CE
ENCODING 206
SWIDTH 388 0
DWIDTH 7 0
BBX 8 16 0 0
BITMAP
03
07
09
10
0F
0E
0C
1C
1C
18
38
38
38
30
70
F0
ENDCHAR
STARTCHAR 00CF
ENCODING 207
SWIDTH 388 0
DWIDTH 7 0
BBX 9 15 0 0
BITMAP
1980
1B80
0000
1F00
0E00
0C00
1C00
1C00
1800
3800
3800
3800
3000
7000
F000
ENDCHAR
STARTCHAR 00D0
ENCODING 208
SWIDTH 722 0
DWIDTH 13 0
BBX 13 12 0 0
BITMAP
1FC0
0E60
0C70
1C38
1C38
7F38
3838
3870
3870
30E0
71C0
FF00
ENDCHAR
STARTCHAR 00D1
ENCODING 209
SWIDTH 722 0
DWIDTH 13 0
BBX 14 15 0 0
BITMAP
0190
03E0
0240
1E1C
0E08
1710
1710
1310
2390
21A0
21E0
20E0
40C0
4040
E040
ENDCHAR
STARTCHAR 00D2
ENCODING 210
SWIDTH 722 0
DWIDTH 13 0
BBX 12 16 1 0
BITMAP
0300
0180
0080
0000
07C0
0C60
3870
3070
7070
E070
E0E0
E0E0
E0C0
E180
6300
3E00
ENDCHAR
STARTCHAR 00D3
ENCODING 211
SWIDTH 722 0
DWIDTH 13 0
BBX 12 16 1 0
BITMAP
00C0
0180
0100
0000
07C0
0C60
3870
3070
7070
E070
E0E0
E0E0
E0C0
E180
6300
3E00
ENDCHAR
STARTCHAR 00D4
ENCODING 212
SWIDTH 722 0
DWIDTH 13 0
BBX 12 16 1 0
BITMAP
0180
01C0
0240
0440
07C0
0C60
3870
3070
7070
E070
E0E0
E0E0
E0C0
E180
6300
3E00
ENDCHAR
STARTCHAR 00D5
ENCODING 213
SWIDTH 722 0
DWIDTH 13 0
BBX 12 15 1 0
BITMAP
03E0
07C0
0000
07C0
0C60
3870
3070
7070
E070
E0E0
E0E0
E0C0
E180
6300
3E00
ENDCHAR
STARTCHAR 00D6
ENCODING 214
SWIDTH 722 0
DWIDTH 13 0
BBX 12 15 1 0
BITMAP
0260
0760
0000
07C0
0C60
3870
3070
7070
E070
E0E0
E0E0
E0C0
E180
6300
3E00
ENDCHAR
STARTCHAR 00D7
ENCODING 215
SWIDTH 555 0
DWIDTH 10 0
BBX 7 7 2 3
BITMAP
86
4C
38
30
68
C4
82
ENDCHAR
STARTCHAR 00D8
ENCODING 216
SWIDTH 722 0
DWIDTH 13 0
BBX 12 12 1 0
BITMAP
07D0
1C60
3870
70F0
7170
E270
E4E0
E8E0
F0C0
E180
6300
BC00
ENDCHAR
STARTCHAR 00D9
ENCODING 217
SWIDTH 722 0
DWIDTH 13 0
BBX 12 16 2 0
BITMAP
0600
0300
0100
0000
7C70
3020
7040
7040
7040
6040
E080
E080
C080
C100
E200
7C00
ENDCHAR
STARTCHAR 00DA
ENCODING 218
SWIDTH 722 0
DWIDTH 13 0
BBX 12 16 2 0
BITMAP
0380
0300
0200
0000
7C70
3020
7040
7040
7040
6040
E080
E080
C080
C100
E200
7C00
ENDCHAR
STARTCHAR 00DB
ENCODING 219
SWIDTH 722 0
DWIDTH 13 0
BBX 12 16 2 0
BITMAP
0300
0700
0C80
1080
7C70
3020
7040
7040
7040
6040
E080
E080
C080
C100
E200
7C00
ENDCHAR
STARTCHAR 00DC
ENCODING 220
SWIDTH 722 0
DWIDTH 13 0
BBX 12 15 2 0
BITMAP
0D80
0D80
0000
7C70
3020
7040
7040
7040
6040
E080
E080
C080
C100
E200
7C00
ENDCHAR
STARTCHAR 00DD
ENCODING 221
SWIDTH 611 0
DWIDTH 11 0
BBX 9 16 3 0
BITMAP
0380
0300
0600
0400
F180
6100
6100
7200
7400
3800
3800
3000
7000
7000
6000
F000
ENDCHAR
STARTCHAR 00DE
ENCODING 222
SWIDTH 611 0
DWIDTH 11 0
BBX 11 12 0 0
BITMAP
0F00
0E00
0C00
1F80
1CC0
1CE0
38E0
38C0
39C0
3F00
7000
F000
ENDCHAR
STARTCHAR 00DF
ENCODING 223
SWIDTH 500 0
DWIDTH 9 0
BBX 12 16 -3 -4
BITMAP
00E0
0130
0330
0330
0760
06C0
0660
0E60
0C60
0C60
0FC0
1E80
1900
1800
F000
A000
ENDCHAR
STARTCHAR 00E0
ENCODING 224
SWIDTH 500 0
DWIDTH 9 0
BBX 8 12 0 0
BITMAP
0E
06
02
00
1F
33
73
67
66
EE
F7
66
ENDCHAR
STARTCHAR 00E1
ENCODING 225
SWIDTH 500 0
DWIDTH 9 0
BBX 8 12 0 0
BITMAP
03
06
04
00
1F
33
73
67
66
EE
F7
66
ENDCHAR
STARTCHAR 00E2
ENCODING 226
SWIDTH 500 0
DWIDTH 9 0
BBX 8 12 0 0
BITMAP
07
0D
11
00
1F
33
73
67
66
EE
F7
66
ENDCHAR
STARTCHAR 00E3
ENCODING 227
SWIDTH 500 0
DWIDTH 9 0
BBX 9 12 0 0
BITMAP
0C80
1F00
1200
0000
1F00
3300
7300
6700
6600
EE00
F700
6600
ENDCHAR
STARTCHAR 00E4
ENCODING 228
SWIDTH 500 0
DWIDTH 9 0
BBX 9 12 0 0
BITMAP
1980
1B80
0000
0000
1F00
3300
7300
6700
6600
EE00
F700
6600
ENDCHAR
STARTCHAR 00E5
ENCODING 229
SWIDTH 500 0
DWIDTH 9 0
BBX 8 12 0 0
BITMAP
07
09
06
00
1F
33
73
67
66
EE
F7
66
ENDCHAR
STARTCHAR 00E6
ENCODING 230
SWIDTH 722 0
DWIDTH 13 0
BBX 13 8 0 0
BITMAP
0DF8
3398
3330
6320
67C0
EF00
F700
63E0
ENDCHAR
STARTCHAR 00E7
ENCODING 231
SWIDTH 444 0
DWIDTH 8 0
BBX 8 11 0 -3
BITMAP
0E
33
62
60
60
E0
70
7C
30
18
60
ENDCHAR
STARTCHAR 00E8
ENCODING 232
SWIDTH 444 0
DWIDTH 8 0
BBX 8 12 0 0
BITMAP
0C
04
02
00
0F
13
36
64
78
E0
60
7C
ENDCHAR
STARTCHAR 00E9
ENCODING 233
SWIDTH 444 0
DWIDTH 8 0
BBX 9 12 0 0
BITMAP
0380
0300
0200
0000
0F00
1300
3600
6400
7800
E000
6000
7C00
ENDCHAR
STARTCHAR 00EA
ENCODING 234
SWIDTH 444 0
DWIDTH 8 0
BBX 8 12 0 0
BITMAP
06
0B
11
00
0F
13
36
64
78
E0
60
7C
ENDCHAR
STARTCHAR 00EB
ENCODING 235
SWIDTH 444 0
DWIDTH 8 0
BBX 8 12 0 0
BITMAP
1B
1B
00
00
0F
13
36
64
78
E0
60
7C
ENDCHAR
STARTCHAR 00EC
ENCODING 236
SWIDTH 277 0
DWIDTH 5 0
BBX 5 12 0 0
BITMAP
30
10
08
00
70
30
30
70
60
60
F0
60
ENDCHAR
STARTCHAR 00ED
ENCODING 237
SWIDTH 277 0
DWIDTH 5 0
BBX 6 12 0 0
BITMAP
0C
18
10
00
70
30
30
70
60
60
F0
60
ENDCHAR
STARTCHAR 00EE
ENCODING 238
SWIDTH 277 0
DWIDTH 5 0
BBX 6 12 0 0
BITMAP
18
3C
44
00
70
30
30
70
60
60
F0
60
ENDCHAR
STARTCHAR 00EF
ENCODING 239
SWIDTH 277 0
DWIDTH 5 0
BBX 6 12 0 0
BITMAP
6C
6C
00
00
70
30
30
70
60
60
F0
60
ENDCHAR
STARTCHAR 00F0
ENCODING 240
SWIDTH 500 0
DWIDTH 9 0
BBX 9 12 0 1
BITMAP
0480
0300
0F00
0300
0F00
3300
7300
6300
6300
E600
6400
6800
ENDCHAR
STARTCHAR 00F1
ENCODING 241
SWIDTH 555 0
DWIDTH 10 0
BBX 9 12 0 0
BITMAP
0C80
1F00
1200
0000
7B80
3780
3B80
3300
7300
6300
6680
E700
ENDCHAR
STARTCHAR 00F2
ENCODING 242
SWIDTH 500 0
DWIDTH 9 0
BBX 8 12 0 0
BITMAP
0C
06
02
00
0E
33
73
63
63
E6
66
68
ENDCHAR
STARTCHAR 00F3
ENCODING 243
SWIDTH 500 0
DWIDTH 9 0
BBX 9 12 0 0
BITMAP
0380
0300
0600
0000
0E00
3300
7300
6300
6300
E600
6600
6800
ENDCHAR
STARTCHAR 00F4
ENCODING 244
SWIDTH 500 0
DWIDTH 9 0
BBX 8 12 0 0
BITMAP
07
0D
11
00
0E
33
73
63
63
E6
66
68
ENDCHAR
STARTCHAR 00F5
ENCODING 245
SWIDTH 500 0
DWIDTH 9 0
BBX 9 12 0 0
BITMAP
0C80
1F00
1200
0000
0E00
3300
7300
6300
6300
E600
6600
6800
ENDCHAR
STARTCHAR 00F6
ENCODING 246
SWIDTH 500 0
DWIDTH 9 0
BBX 9 12 0 0
BITMAP
1980
1B80
0000
0000
0E00
3300
7300
6300
6300
E600
6600
6800
ENDCHAR
STARTCHAR 00F7
ENCODING 247
SWIDTH 555 0
DWIDTH 10 0
BBX 10 8 0 2
BITMAP
0400
0C00
0000
0000
FFC0
0000
0400
0C00
ENDCHAR
STARTCHAR 00F8
ENCODING 248
SWIDTH 500 0
DWIDTH 9 0
BBX 9 8 0 0
BITMAP
0E80
3300
7300
6F00
7300
E600
6600
E800
ENDCHAR
STARTCHAR 00F9
ENCODING 249
SWIDTH 555 0
DWIDTH 10 0
BBX 8 12 1 0
BITMAP
1C
0C
04
00
F3
63
67
E6
CE
DE
ED
CE
ENDCHAR
STARTCHAR 00FA
ENCODING 250
SWIDTH 555 0
DWIDTH 10 0
BBX 8 12 1 0
BITMAP
06
0C
08
00
F3
63
67
E6
CE
DE
ED
CE
ENDCHAR
STARTCHAR 00FB
ENCODING 251
SWIDTH 555 0
DWIDTH 10 0
BBX 8 12 1 0
BITMAP
0E
1A
32
00
F3
63
67
E6
CE
DE
ED
CE
ENDCHAR
STARTCHAR 00FC
ENCODING 252
SWIDTH 555 0
DWIDTH 10 0
BBX 8 12 1 0
BITMAP
36
36
00
00
F3
63
67
E6
CE
DE
ED
CE
ENDCHAR
STARTCHAR 00FD
ENCODING 253
SWIDTH 444 0
DWIDTH 8 0
BBX 10 16 -2 -4
BITMAP
00C0
0180
0100
0000
18C0
1CC0
0C40
0C80
0C80
0D00
0E00
0E00
0C00
0800
F000
6000
ENDCHAR
STARTCHAR 00FE
ENCODING 254
SWIDTH 500 0
DWIDTH 9 0
BBX 11 16 -2 -4
BITMAP
0700
0600
0600
0600
0DC0
0EC0
0CE0
18C0
18C0
1980
3980
3A00
3400
3000
7000
F000
ENDCHAR
STARTCHAR 00FF
ENCODING 255
SWIDTH 444 0
DWIDTH 8 0
BBX 10 16 -2 -4
BITMAP
04C0
0EC0
0000
0000
18C0
1CC0
0C40
0C80
0C80
0D00
0E00
0E00
0C00
0800
F000
6000
ENDCHAR
STARTCHAR 0100
ENCODING 256
SWIDTH 666 0
DWIDTH 12 0
BBX 13 14 0 1
BITMAP
01F8
0000
0040
00C0
00C0
01C0
03C0
05C0
09C0
1FC0
21C0
41C0
41C0
C1C0
ENDCHAR
STARTCHAR 0101
ENCODING 257
SWIDTH 500 0
DWIDTH 9 0
BBX 9 11 0 1
BITMAP
1F80
0000
0000
1F00
3300
7300
6700
6600
EE00
F700
6600
ENDCHAR
STARTCHAR 0102
ENCODING 258
SWIDTH 666 0
DWIDTH 12 0
BBX 13 15 0 1
BITMAP
0088
0070
0020
0040
00C0
00C0
01C0
03C0
05C0
09C0
1FC0
21C0
41C0
41C0
C1C0
ENDCHAR
STARTCHAR 0103
ENCODING 259
SWIDTH 500 0
DWIDTH 9 0
BBX 8 12 0 0
BITMAP
10
0F
0E
00
1F
33
73
67
66
EE
F7
66
ENDCHAR
STARTCHAR 0104
ENCODING 260
SWIDTH 666 0
DWIDTH 12 0
BBX 10 16 0 -4
BITMAP
0040
00C0
00C0
01C0
03C0
05C0
0DC0
19C0
1FC0
21C0
41C0
C1C0
0100
0300
0200
0300
ENDCHAR
STARTCHAR 0105
ENCODING 261
SWIDTH 500 0
DWIDTH 9 0
BBX 8 12 0 -4
BITMAP
1F
33
73
67
66
EE
F7
66
04
08
18
1C
ENDCHAR
STARTCHAR 0106
ENCODING 262
SWIDTH 666 0
DWIDTH 12 0
BBX 12 16 1 0
BITMAP
00E0
00C0
0180
0100
03F0
1C30
3800
7000
7000
E000
E000
E000
E000
6040
7080
1F00
ENDCHAR
STARTCHAR 0107
ENCODING 263
SWIDTH 444 0
DWIDTH 8 0
BBX 8 12 0 0
BITMAP
03
06
04
00
0E
33
62
60
60
E0
70
7C
ENDCHAR
STARTCHAR 0108
ENCODING 264
SWIDTH 666 0
DWIDTH 12 0
BBX 12 16 1 0
BITMAP
01C0
0340
0220
0000
03F0
1C30
3800
7000
7000
E000
E000
E000
E000
6040
7080
1F00
ENDCHAR
STARTCHAR 0109
ENCODING 265
SWIDTH 444 0
DWIDTH 8 0
BBX 8 12 0 0
BITMAP
06
0F
11
00
0E
33
62
60
60
E0
70
7C
ENDCHAR
STARTCHAR 010A
ENCODING 266
SWIDTH 666 0
DWIDTH 12 0
BBX 12 15 1 1
BITMAP
01C0
0180
0000
03F0
1C30
3800
7000
7000
E000
E000
E000
E000
6040
7080
1F00
ENDCHAR
STARTCHAR 010B
ENCODING 267
SWIDTH 444 0
DWIDTH 8 0
BBX 8 12 0 0
BITMAP
06
06
00
00
0E
33
62
60
60
E0
70
7C
ENDCHAR
STARTCHAR 010C
ENCODING 268
SWIDTH 666 0
DWIDTH 12 0
BBX 12 16 1 0
BITMAP
0260
03C0
0380
0000
03F0
1C30
3800
7000
7000
E000
E000
E000
E000
6040
7080
1F00
ENDCHAR
STARTCHAR 010D
ENCODING 269
SWIDTH 444 0
DWIDTH 8 0
BBX 9 12 0 0
BITMAP
0980
0F00
0E00
0000
0E00
3300
6200
6000
6000
E000
7000
7C00
ENDCHAR
STARTCHAR 010E
ENCODING 270
SWIDTH 722 0
DWIDTH 13 0
BBX 13 16 0 0
BITMAP
0440
0680
0380
0000
1FC0
0E60
0C70
1C30
1C38
1838
3870
3870
3870
30E0
71C0
FF00
ENDCHAR
STARTCHAR 010F
ENCODING 271
SWIDTH 722 0
DWIDTH 13 0
BBX 14 12 0 0
BITMAP
01D8
019C
0198
0188
1F10
3300
7300
6700
6600
EE00
F700
6600
ENDCHAR
STARTCHAR 0110
ENCODING 272
SWIDTH 722 0
DWIDTH 13 0
BBX 13 12 0 0
BITMAP
1FC0
0E60
0C70
1C38
1C38
7F38
3838
3870
3870
30E0
71C0
FF00
ENDCHAR
STARTCHAR 0111
ENCODING 273
SWIDTH 500 0
DWIDTH 9 0
BBX 11 12 0 0
BITMAP
01C0
0180
0FE0
0180
1F80
3300
7300
6700
6600
EE00
F700
6600
ENDCHAR
STARTCHAR 0112
ENCODING 274
SWIDTH 666 0
DWIDTH 12 0
BBX 12 14 0 1
BITMAP
07F0
0000
1FF0
0E10
0C10
1C10
1C40
1F80
3880
3880
3800
3000
70C0
FFC0
ENDCHAR
STARTCHAR 0113
ENCODING 275
SWIDTH 444 0
DWIDTH 8 0
BBX 9 11 0 1
BITMAP
1F80
0000
0000
0F00
1300
3600
6400
7800
E000
6000
7C00
ENDCHAR
STARTCHAR 0114
ENCODING 276
SWIDTH 666 0
DWIDTH 12 0
BBX 12 16 0 0
BITMAP
0200
03E0
01C0
0000
1FF0
0E10
0C10
1C10
1C40
1F80
3880
3880
3800
3000
70C0
FFC0
ENDCHAR
STARTCHAR 0115
ENCODING 277
SWIDTH 444 0
DWIDTH 8 0
BBX 9 12 0 0
BITMAP
0880
0F00
0600
0000
0F00
1300
3600
6400
7800
E000
6000
7C00
ENDCHAR
STARTCHAR 0116
ENCODING 278
SWIDTH 666 0
DWIDTH 12 0
BBX 12 15 0 1
BITMAP
01C0
0180
0000
1FF0
0E10
0C10
1C10
1C40
1F80
3880
3880
3800
3000
70C0
FFC0
ENDCHAR
STARTCHAR 0117
ENCODING 279
SWIDTH 444 0
DWIDTH 8 0
BBX 8 12 0 0
BITMAP
06
06
00
00
0F
13
36
64
78
E0
60
7C
ENDCHAR
STARTCHAR 0118
ENCODING 280
SWIDTH 666 0
DWIDTH 12 0
BBX 12 16 0 -4
BITMAP
1FF0
0E10
0C10
1C00
1C40
1F80
3880
3880
3800
3000
70C0
FFC0
0100
0200
0200
0300
ENDCHAR
STARTCHAR 0119
ENCODING 281
SWIDTH 444 0
DWIDTH 8 0
BBX 8 12 0 -4
BITMAP
0F
13
36
64
78
E0
60
7C
10
20
60
30
ENDCHAR
STARTCHAR 011A
ENCODING 282
SWIDTH 666 0
DWIDTH 12 0
BBX 12 16 0 0
BITMAP
0260
03C0
0380
0000
1FF0
0E10
0C10
1C10
1C40
1F80
3880
3880
3800
3000
70C0
FFC0
ENDCHAR
STARTCHAR 011B
ENCODING 283
SWIDTH 444 0
DWIDTH 8 0
BBX 9 12 0 0
BITMAP
0980
0F00
0E00
0000
0F00
1300
3600
6400
7800
E000
6000
7C00
ENDCHAR
STARTCHAR 011C
ENCODING 284
SWIDTH 722 0
DWIDTH 13 0
BBX 12 16 1 0
BITMAP
00C0
01E0
0220
0000
03F0
1C10
3810
7000
7000
E000
E1F0
E0E0
E0C0
61C0
31C0
1F80
ENDCHAR
STARTCHAR 011D
ENCODING 285
SWIDTH 500 0
DWIDTH 9 0
BBX 10 16 -1 -4
BITMAP
0380
0680
0C80
0000
0E00
19C0
3180
3380
3380
1E00
2000
3E00
3F00
C300
C300
7E00
ENDCHAR
STARTCHAR 011E
ENCODING 286
SWIDTH 722 0
DWIDTH 13 0
BBX 12 16 1 0
BITMAP
0010
01E0
01C0
0000
03F0
1C10
3810
7000
7000
E000
E1F0
E0E0
E0C0
61C0
31C0
1F80
ENDCHAR
STARTCHAR 011F
ENCODING 287
SWIDTH 500 0
DWIDTH 9 0
BBX 10 15 -1 -3
BITMAP
0780
0700
0000
0E00
19C0
3180
3380
3380
1E00
2000
3E00
3F00
C300
C300
7E00
ENDCHAR
STARTCHAR 0120
ENCODING 288
SWIDTH 722 0
DWIDTH 13 0
BBX 12 15 1 1
BITMAP
01C0
00C0
0000
03F0
1C10
3810
7000
7000
E000
E1F0
E0E0
E0C0
61C0
31C0
1F80
ENDCHAR
STARTCHAR 0121
ENCODING 289
SWIDTH 500 0
DWIDTH 9 0
BBX 10 16 -1 -4
BITMAP
0300
0300
0000
0000
0E00
19C0
3180
3380
3380
1E00
2000
3E00
3F00
C300
C300
7E00
ENDCHAR
STARTCHAR 0122
ENCODING 290
SWIDTH 722 0
DWIDTH 13 0
BBX 12 16 1 -5
BITMAP
03F0
1C10
3810
7000
7000
E000
E1F0
E0E0
E0C0
61C0
31C0
1F80
0000
0C00
0400
0800
ENDCHAR
STARTCHAR 0123
ENCODING 291
SWIDTH 500 0
DWIDTH 9 0
BBX 10 16 -1 -3
BITMAP
0300
0300
0300
0000
0E00
19C0
3180
3180
3380
1E00
2000
3E00
3F00
C300
C300
7E00
ENDCHAR
STARTCHAR 0124
ENCODING 292
SWIDTH 777 0
DWIDTH 14 0
BBX 15 16 0 0
BITMAP
0060
00F0
0110
0000
1F3E
0E1C
0C18
1C38
1C38
1C30
3FF0
3870
3870
3060
70E0
F1E0
ENDCHAR
STARTCHAR 0125
ENCODING 293
SWIDTH 555 0
DWIDTH 10 0
BBX 10 16 0 0
BITMAP
01C0
03C0
0440
0000
3C00
1C00
1800
1800
3B80
3780
3B80
3300
7300
6300
6680
E700
ENDCHAR
STARTCHAR 0126
ENCODING 294
SWIDTH 777 0
DWIDTH 14 0
BBX 15 12 0 0
BITMAP
1F3E
0E1C
3FFE
1C38
1C38
1C30
3FF0
3870
3870
3060
70E0
F1E0
ENDCHAR
STARTCHAR 0127
ENCODING 295
SWIDTH 555 0
DWIDTH 10 0
BBX 9 12 0 0
BITMAP
1C00
1C00
3F00
1800
3B80
3780
3B80
3300
7300
6300
6680
E700
ENDCHAR
STARTCHAR 0128
ENCODING 296
SWIDTH 388 0
DWIDTH 7 0
BBX 9 15 0 0
BITMAP
0F80
1F00
0000
1F00
0E00
0C00
1C00
1C00
1800
3800
3800
3800
3000
7000
F000
ENDCHAR
STARTCHAR 0129
ENCODING 297
SWIDTH 277 0
DWIDTH 5 0
BBX 7 12 0 0
BITMAP
32
7C
48
00
70
30
30
70
60
60
F0
60
ENDCHAR
STARTCHAR 012A
ENCODING 298
SWIDTH 388 0
DWIDTH 7 0
BBX 9 14 0 1
BITMAP
1F80
0000
1F00
0E00
0C00
1C00
1C00
1800
3800
3800
3800
3000
7000
F000
ENDCHAR
STARTCHAR 012B
ENCODING 299
SWIDTH 277 0
DWIDTH 5 0
BBX 7 11 0 1
BITMAP
7E
00
00
70
30
30
70
60
60
F0
60
ENDCHAR
STARTCHAR 012C
ENCODING 300
SWIDTH 388 0
DWIDTH 7 0
BBX 9 16 0 0
BITMAP
0880
0F00
0600
0000
1F00
0E00
0C00
1C00
1C00
1800
3800
3800
3800
3000
7000
F000
ENDCHAR
STARTCHAR 012D
ENCODING 301
SWIDTH 277 0
DWIDTH 5 0
BBX 7 12 0 0
BITMAP
22
3C
18
00
70
30
30
70
60
60
F0
60
ENDCHAR
STARTCHAR 012E
ENCODING 302
SWIDTH 388 0
DWIDTH 7 0
BBX 8 16 0 -4
BITMAP
1F
0E
0C
1C
1C
18
38
38
38
30
70
F0
20
40
C0
E0
ENDCHAR
STARTCHAR 012F
ENCODING 303
SWIDTH 277 0
DWIDTH 5 0
BBX 6 16 -1 -4
BITMAP
0C
0C
00
00
38
18
18
38
30
30
78
30
20
40
C0
E0
ENDCHAR
STARTCHAR 0130
ENCODING 304
SWIDTH 388 0
DWIDTH 7 0
BBX 8 15 0 1
BITMAP
06
06
00
1F
0E
0C
1C
1C
18
38
38
38
30
70
F0
ENDCHAR
STARTCHAR 0131
ENCODING 305
SWIDTH 277 0
DWIDTH 5 0
BBX 4 8 0 0
BITMAP
70
30
30
70
60
60
F0
60
ENDCHAR
STARTCHAR 0132
ENCODING 306
SWIDTH 833 0
DWIDTH 15 0
BBX 16 12 0 0
BITMAP
1F0F
0E0E
0C0C
1C0C
1C1C
181C
3818
3838
3838
3330
7370
F340
ENDCHAR
STARTCHAR 0133
ENCODING 307
SWIDTH 555 0
DWIDTH 10 0
BBX 9 16 1 -4
BITMAP
3180
3B80
0000
0000
F700
6300
6700
6700
E600
C600
CE00
EC00
0C00
0C00
7800
5000
ENDCHAR
STARTCHAR 0134
ENCODING 308
SWIDTH 500 0
DWIDTH 9 0
BBX 11 16 0 0
BITMAP
01C0
0340
0220
0000
03C0
0380
0380
0300
0700
0700
0600
0E00
0E00
CC00
DC00
F000
ENDCHAR
STARTCHAR 0135
ENCODING 309
SWIDTH 277 0
DWIDTH 5 0
BBX 9 16 -3 -4
BITMAP
0380
0780
0880
0000
0F00
0600
0600
0600
0E00
0C00
0C00
0C00
1800
1800
D000
E000
ENDCHAR
STARTCHAR 0136
ENCODING 310
SWIDTH 666 0
DWIDTH 12 0
BBX 12 16 0 -5
BITMAP
1E70
0E20
0C40
1D80
1F00
1F00
3B00
3B80
3B80
3180
71C0
73E0
8000
0C00
0C00
0400
ENDCHAR
STARTCHAR 0137
ENCODING 311
SWIDTH 500 0
DWIDTH 9 0
BBX 9 16 0 -5
BITMAP
3C00
1800
1800
1800
3B80
3200
3400
7C00
7C00
6600
6700
E600
0000
1800
1800
1000
ENDCHAR
STARTCHAR 0138
ENCODING 312
SWIDTH 500 0
DWIDTH 9 0
BBX 9 8 0 0
BITMAP
7B80
3200
3400
7C00
7C00
6600
6700
E600
ENDCHAR
STARTCHAR 0139
ENCODING 313
SWIDTH 611 0
DWIDTH 11 0
BBX 10 16 0 0
BITMAP
0180
0300
0300
0200
1F00
0E00
0C00
1C00
1C00
1800
3800
3800
3800
3040
70C0
FF80
ENDCHAR
STARTCHAR 013A
ENCODING 314
SWIDTH 277 0
DWIDTH 5 0
BBX 7 16 0 0
BITMAP
06
0C
08
00
3C
18
18
38
30
30
30
60
60
60
F0
E0
ENDCHAR
STARTCHAR 013B
ENCODING 315
SWIDTH 611 0
DWIDTH 11 0
BBX 10 16 0 -5
BITMAP
1F00
0E00
0C00
1C00
1C00
1800
3800
3800
3800
3040
70C0
FF80
0000
0800
0C00
0800
ENDCHAR
STARTCHAR 013C
ENCODING 316
SWIDTH 277 0
DWIDTH 5 0
BBX 6 16 0 -5
BITMAP
3C
18
18
38
30
30
30
60
60
60
F0
E0
00
C0
40
80
ENDCHAR
STARTCHAR 013D
ENCODING 317
SWIDTH 611 0
DWIDTH 11 0
BBX 12 12 0 0
BITMAP
1F70
0E70
0C30
1C20
1C40
1800
1800
3800
3800
3040
70C0
FF80
ENDCHAR
STARTCHAR 013E
ENCODING 318
SWIDTH 500 0
DWIDTH 9 0
BBX 9 12 0 0
BITMAP
3D80
1980
1980
3880
3100
3000
3000
6000
6000
6000
F000
E000
ENDCHAR
STARTCHAR 013F
ENCODING 319
SWIDTH 611 0
DWIDTH 11 0
BBX 10 12 0 0
BITMAP
1F00
0E00
0C00
1C00
1C00
1B00
3B00
3800
3800
3040
70C0
FF80
ENDCHAR
STARTCHAR 0140
ENCODING 320
SWIDTH 388 0
DWIDTH 7 0
BBX 6 12 0 0
BITMAP
3C
18
18
38
30
3C
3C
60
60
60
F0
E0
ENDCHAR
STARTCHAR 0141
ENCODING 321
SWIDTH 611 0
DWIDTH 11 0
BBX 10 12 0 0
BITMAP
1F00
0E00
0C00
1D00
1E00
1800
3800
7800
B800
3040
70C0
FF80
ENDCHAR
STARTCHAR 0142
ENCODING 322
SWIDTH 277 0
DWIDTH 5 0
BBX 6 12 0 0
BITMAP
3C
18
18
38
30
30
70
E0
60
60
F0
E0
ENDCHAR
STARTCHAR 0143
ENCODING 323
SWIDTH 722 0
DWIDTH 13 0
BBX 14 16 0 0
BITMAP
0060
00C0
0080
0000
1E1C
0E08
1710
1710
1310
2390
21A0
21E0
20E0
40C0
4040
E040
ENDCHAR
STARTCHAR 0144
ENCODING 324
SWIDTH 555 0
DWIDTH 10 0
BBX 9 12 0 0
BITMAP
0300
0600
0400
0000
7B80
3780
3B80
3300
7300
6300
6680
E700
ENDCHAR
STARTCHAR 0145
ENCODING 325
SWIDTH 722 0
DWIDTH 13 0
BBX 14 16 0 -5
BITMAP
1E1C
0E08
1710
1710
1390
2390
21A0
21E0
20E0
40C0
4040
E040
0000
0C00
0C00
0400
ENDCHAR
STARTCHAR 0146
ENCODING 326
SWIDTH 555 0
DWIDTH 10 0
BBX 9 12 0 -5
BITMAP
7B80
3780
3B80
3300
7300
6300
6680
E700
0000
1800
1800
1000
ENDCHAR
STARTCHAR 0147
ENCODING 327
SWIDTH 722 0
DWIDTH 13 0
BBX 14 16 0 0
BITMAP
0320
0160
01C0
0000
1E1C
0E08
1710
1710
1310
2390
21A0
21E0
20E0
40C0
4040
E040
ENDCHAR
STARTCHAR 0148
ENCODING 328
SWIDTH 555 0
DWIDTH 10 0
BBX 9 12 0 0
BITMAP
0980
0F00
0E00
0000
7B80
3780
3B80
3300
7300
6300
6680
E700
ENDCHAR
STARTCHAR 0149
ENCODING 329
SWIDTH 722 0
DWIDTH 13 0
BBX 10 12 2 0
BITMAP
C000
C000
C000
4000
BDC0
1BC0
1DC0
1980
3980
3180
3340
7380
ENDCHAR
STARTCHAR 014A
ENCODING 330
SWIDTH 777 0
DWIDTH 14 0
BBX 14 12 0 0
BITMAP
1E70
0F98
0E1C
1C1C
1C1C
181C
383C
3838
3838
3130
7360
FB40
ENDCHAR
STARTCHAR 014B
ENCODING 331
SWIDTH 555 0
DWIDTH 10 0
BBX 9 12 0 -4
BITMAP
7B80
3780
3B80
3300
7300
6300
6700
E600
0600
0C00
2C00
3800
ENDCHAR
STARTCHAR 014C
ENCODING 332
SWIDTH 722 0
DWIDTH 13 0
BBX 12 15 1 1
BITMAP
07E0
0000
0000
07C0
0C60
3870
3070
7070
E070
E0E0
E0E0
E0C0
E180
6300
3E00
ENDCHAR
STARTCHAR 014D
ENCODING 333
SWIDTH 500 0
DWIDTH 9 0
BBX 9 11 0 1
BITMAP
1F80
0000
0000
0E00
3300
7300
6300
6300
E600
6600
6800
ENDCHAR
STARTCHAR 014E
ENCODING 334
SWIDTH 722 0
DWIDTH 13 0
BBX 12 16 1 0
BITMAP
0220
03C0
0180
0000
07C0
0C60
3870
3070
7070
E070
E0E0
E0E0
E0C0
E180
6300
3E00
ENDCHAR
STARTCHAR 014F
ENCODING 335
SWIDTH 500 0
DWIDTH 9 0
BBX 9 12 0 0
BITMAP
0880
0F00
0600
0000
0E00
3300
7300
6300
6300
E600
6600
6800
ENDCHAR
STARTCHAR 0150
ENCODING 336
SWIDTH 722 0
DWIDTH 13 0
BBX 12 16 1 0
BITMAP
01B0
0360
0240
0000
07C0
0C60
3870
3070
7070
E070
E0E0
E0E0
E0C0
E180
6300
3E00
ENDCHAR
STARTCHAR 0151
ENCODING 337
SWIDTH 500 0
DWIDTH 9 0
BBX 10 12 0 0
BITMAP
07C0
0680
0D00
0000
0E00
3300
7300
6300
6300
E600
6600
6800
ENDCHAR
STARTCHAR 0152
ENCODING 338
SWIDTH 944 0
DWIDTH 17 0
BBX 16 12 1 0
BITMAP
07FF
1C71
3861
70E1
70E4
E0FC
E0C8
E1C0
E1C0
E182
638C
3FFC
ENDCHAR
STARTCHAR 0153
ENCODING 339
SWIDTH 722 0
DWIDTH 13 0
BBX 13 8 0 0
BITMAP
0E78
3398
73B0
6320
63C0
E700
6700
6BE0
ENDCHAR
STARTCHAR 0154
ENCODING 340
SWIDTH 666 0
DWIDTH 12 0
BBX 11 16 0 0
BITMAP
01C0
0180
0100
0200
1FC0
0EE0
0C60
1C60
1CE0
1CC0
3F00
3B80
3B80
3180
71C0
F1C0
ENDCHAR
STARTCHAR 0155
ENCODING 341
SWIDTH 388 0
DWIDTH 7 0
BBX 7 12 0 0
BITMAP
06
04
08
00
76
36
3A
70
70
60
60
E0
ENDCHAR
STARTCHAR 0156
ENCODING 342
SWIDTH 666 0
DWIDTH 12 0
BBX 11 16 0 -5
BITMAP
1FC0
0EE0
0C60
1C60
1CE0
1CC0
3F00
3B80
3B80
3180
71C0
F1C0
0000
0C00
0C00
0400
ENDCHAR
STARTCHAR 0157
ENCODING 343
SWIDTH 388 0
DWIDTH 7 0
BBX 8 13 -1 -5
BITMAP
3B
1B
1D
38
38
30
30
70
00
60
60
20
C0
ENDCHAR
STARTCHAR 0158
ENCODING 344
SWIDTH 666 0
DWIDTH 12 0
BBX 11 16 0 0
BITMAP
0440
0280
0380
0000
1FC0
0EE0
0C60
1C60
1CE0
1CC0
3F00
3B80
3B80
3180
71C0
F1C0
ENDCHAR
STARTCHAR 0159
ENCODING 345
SWIDTH 388 0
DWIDTH 7 0
BBX 7 12 0 0
BITMAP
22
34
1C
00
76
36
3A
70
70
60
60
E0
ENDCHAR
STARTCHAR 015A
ENCODING 346
SWIDTH 555 0
DWIDTH 10 0
BBX 10 16 0 0
BITMAP
0180
0300
0200
0000
0FC0
18C0
3840
3800
1C00
1E00
0F00
0700
0380
8380
C300
FE00
ENDCHAR
STARTCHAR 015B
ENCODING 347
SWIDTH 388 0
DWIDTH 7 0
BBX 7 12 0 0
BITMAP
06
0C
08
00
3E
60
70
38
1C
8C
8C
F8
ENDCHAR
STARTCHAR 015C
ENCODING 348
SWIDTH 555 0
DWIDTH 10 0
BBX 10 16 0 0
BITMAP
0180
03C0
0440
0000
0FC0
18C0
3840
3800
1C00
1E00
0F00
0700
0380
8380
C300
FE00
ENDCHAR
STARTCHAR 015D
ENCODING 349
SWIDTH 388 0
DWIDTH 7 0
BBX 7 12 0 0
BITMAP
0E
1A
22
00
3E
60
70
38
1C
8C
8C
F8
ENDCHAR
STARTCHAR 015E
ENCODING 350
SWIDTH 555 0
DWIDTH 10 0
BBX 10 15 0 -3
BITMAP
0FC0
18C0
3840
3800
1C00
1E00
0F00
0700
0380
8380
C300
FE00
1800
0800
3000
ENDCHAR
STARTCHAR 015F
ENCODING 351
SWIDTH 388 0
DWIDTH 7 0
BBX 7 11 0 -3
BITMAP
3E
60
70
38
1C
8C
8C
F8
30
30
E0
ENDCHAR
STARTCHAR 0160
ENCODING 352
SWIDTH 555 0
DWIDTH 10 0
BBX 10 16 0 0
BITMAP
0880
0580
0700
0000
0FC0
18C0
3840
3800
1C00
1E00
0F00
0700
0380
8380
C300
FE00
ENDCHAR
STARTCHAR 0161
ENCODING 353
SWIDTH 388 0
DWIDTH 7 0
BBX 7 12 0 0
BITMAP
22
34
1C
00
3E
60
70
38
1C
8C
8C
F8
ENDCHAR
STARTCHAR 0162
ENCODING 354
SWIDTH 611 0
DWIDTH 11 0
BBX 10 16 2 -4
BITMAP
7FC0
CE40
8C40
1C00
1C00
1C00
1800
3800
3800
3000
7000
F000
4000
7000
3000
C000
ENDCHAR
STARTCHAR 0163
ENCODING 355
SWIDTH 277 0
DWIDTH 5 0
BBX 6 13 -1 -2
BITMAP
04
0C
3C
18
38
30
30
30
78
30
60
30
C0
ENDCHAR
STARTCHAR 0164
ENCODING 356
SWIDTH 611 0
DWIDTH 11 0
BBX 10 16 2 0
BITMAP
0880
0980
0F00
0600
7FC0
CE40
8C40
1C00
1C00
1C00
1800
3800
3800
3000
7000
F000
ENDCHAR
STARTCHAR 0165
ENCODING 357
SWIDTH 555 0
DWIDTH 10 0
BBX 10 12 0 0
BITMAP
0180
01C0
08C0
1880
7900
3000
3000
6000
6000
6000
E000
6000
ENDCHAR
STARTCHAR 0166
ENCODING 358
SWIDTH 611 0
DWIDTH 11 0
BBX 10 12 2 0
BITMAP
7FC0
CE40
8C40
1C00
1C00
FF00
3800
3800
3800
3000
7000
F000
ENDCHAR
STARTCHAR 0167
ENCODING 359
SWIDTH 277 0
DWIDTH 5 0
BBX 5 10 0 1
BITMAP
08
18
78
30
30
F8
60
60
E0
E0
ENDCHAR
STARTCHAR 0168
ENCODING 360
SWIDTH 722 0
DWIDTH 13 0
BBX 12 16 2 0
BITMAP
0200
07C0
0180
0000
7C70
3020
7040
7040
7040
6040
E080
E080
C080
C100
E200
7C00
ENDCHAR
STARTCHAR 0169
ENCODING 361
SWIDTH 555 0
DWIDTH 10 0
BBX 8 12 1 0
BITMAP
1D
1F
02
00
F3
63
67
E6
CE
DE
ED
CE
ENDCHAR
STARTCHAR 016A
ENCODING 362
SWIDTH 722 0
DWIDTH 13 0
BBX 12 15 2 1
BITMAP
0FC0
0000
0000
7C70
3020
7040
7040
7040
6040
E080
E080
C080
C100
E200
7C00
ENDCHAR
STARTCHAR 016B
ENCODING 363
SWIDTH 555 0
DWIDTH 10 0
BBX 8 11 1 1
BITMAP
3F
00
00
F3
63
67
E6
CE
DE
ED
CE
ENDCHAR
STARTCHAR 016C
ENCODING 364
SWIDTH 722 0
DWIDTH 13 0
BBX 12 16 2 0
BITMAP
0400
07C0
0380
0000
7C70
3020
7040
7040
7040
6040
E080
E080
C080
C100
E200
7C00
ENDCHAR
STARTCHAR 016D
ENCODING 365
SWIDTH 555 0
DWIDTH 10 0
BBX 8 12 1 0
BITMAP
11
1F
0E
00
F3
63
67
E6
CE
DE
ED
CE
ENDCHAR
STARTCHAR 016E
ENCODING 366
SWIDTH 722 0
DWIDTH 13 0
BBX 12 16 2 0
BITMAP
0300
0480
0480
0300
7C70
3020
7040
7040
7040
6040
E080
E080
C080
C100
E200
7C00
ENDCHAR
STARTCHAR 016F
ENCODING 367
SWIDTH 555 0
DWIDTH 10 0
BBX 8 12 1 0
BITMAP
0C
12
0C
00
F3
63
67
E6
CE
DE
ED
CE
ENDCHAR
STARTCHAR 0170
ENCODING 368
SWIDTH 722 0
DWIDTH 13 0
BBX 12 16 2 0
BITMAP
06C0
0580
0900
0000
7C70
3020
7040
7040
7040
6040
E080
E080
C080
C100
E200
7C00
ENDCHAR
STARTCHAR 0171
ENCODING 369
SWIDTH 555 0
DWIDTH 10 0
BBX 9 12 1 0
BITMAP
0D80
0900
1A00
0000
F300
6300
6700
E600
CE00
DE00
ED00
CE00
ENDCHAR
STARTCHAR 0172
ENCODING 370
SWIDTH 722 0
DWIDTH 13 0
BBX 12 16 2 -4
BITMAP
7C70
3020
7040
7040
7040
6040
E080
E080
C080
C100
E200
7C00
0800
1000
3000
1800
ENDCHAR
STARTCHAR 0173
ENCODING 371
SWIDTH 555 0
DWIDTH 10 0
BBX 8 12 1 -4
BITMAP
F3
63
67
E6
CE
DE
ED
CE
08
18
18
18
ENDCHAR
STARTCHAR 0174
ENCODING 372
SWIDTH 888 0
DWIDTH 16 0
BBX 16 16 2 0
BITMAP
00E0
01A0
0320
0000
73C7
71C4
7184
7388
7590
65A0
69A0
73C0
6380
6380
C300
8200
ENDCHAR
STARTCHAR 0175
ENCODING 373
SWIDTH 666 0
DWIDTH 12 0
BBX 11 12 1 0
BITMAP
0380
0680
0440
0000
E260
6660
6E60
7640
7680
6680
4700
0400
ENDCHAR
STARTCHAR 0176
ENCODING 374
SWIDTH 611 0
DWIDTH 11 0
BBX 9 16 3 0
BITMAP
0700
0F00
1100
0000
F180
6100
6100
7200
7400
3800
3800
3000
7000
7000
6000
F000
ENDCHAR
STARTCHAR 0177
ENCODING 375
SWIDTH 444 0
DWIDTH 8 0
BBX 10 16 -2 -4
BITMAP
0380
0680
0440
0000
18C0
1CC0
0C40
0C80
0C80
0D00
0E00
0E00
0C00
0800
F000
6000
ENDCHAR
STARTCHAR 0178
ENCODING 376
SWIDTH 611 0
DWIDTH 11 0
BBX 9 15 3 0
BITMAP
1B00
1B00
0000
F180
6100
6100
7200
7400
3800
3800
3000
7000
7000
6000
F000
ENDCHAR
STARTCHAR 0179
ENCODING 377
SWIDTH 611 0
DWIDTH 11 0
BBX 12 16 0 0
BITMAP
01C0
0180
0100
0200
1FF0
10E0
21C0
03C0
0780
0700
0E00
1C00
3800
7840
F080
FF80
ENDCHAR
STARTCHAR 017A
ENCODING 378
SWIDTH 388 0
DWIDTH 7 0
BBX 7 14 0 -2
BITMAP
06
0C
08
00
3E
7C
48
10
20
20
60
E4
34
18
ENDCHAR
STARTCHAR 017B
ENCODING 379
SWIDTH 611 0
DWIDTH 11 0
BBX 12 15 0 0
BITMAP
0300
0300
0000
1FF0
10E0
21C0
03C0
0780
0700
0E00
1C00
3800
7840
F080
FF80
ENDCHAR
STARTCHAR 017C
ENCODING 380
SWIDTH 388 0
DWIDTH 7 0
BBX 7 14 0 -2
BITMAP
0C
1C
00
00
3E
7C
48
10
20
20
60
E4
34
18
ENDCHAR
STARTCHAR 017D
ENCODING 381
SWIDTH 611 0
DWIDTH 11 0
BBX 12 16 0 0
BITMAP
0420
02C0
0380
0300
1FF0
10E0
21C0
03C0
0780
0700
0E00
1C00
3800
7840
F080
FF80
ENDCHAR
STARTCHAR 017E
ENCODING 382
SWIDTH 388 0
DWIDTH 7 0
BBX 7 14 0 -2
BITMAP
22
3C
18
00
3E
7C
48
10
20
20
60
E4
34
18
ENDCHAR
STARTCHAR 017F
ENCODING 383
SWIDTH 333 0
DWIDTH 6 0
BBX 12 16 -3 -4
BITMAP
0070
01B0
0180
0300
0300
0700
0600
0600
0600
0E00
0C00
0C00
0C00
1800
D800
E000
ENDCHAR
STARTCHAR 0180
ENCODING 384
SWIDTH 500 0
DWIDTH 9 0
BBX 8 12 0 0
BITMAP
3C
18
7F
38
37
3B
33
63
63
66
E6
78
ENDCHAR
STARTCHAR 0181
ENCODING 385
SWIDTH 722 0
DWIDTH 13 0
BBX 11 12 1 0
BITMAP
7FC0
CC60
4C60
1CE0
1CC0
1F00
39C0
38C0
30E0
31C0
71C0
7F00
ENDCHAR
STARTCHAR 0182
ENCODING 386
SWIDTH 611 0
DWIDTH 11 0
BBX 12 12 0 0
BITMAP
1FF0
0E20
0C20
1C00
1C00
1C00
3F00
39C0
38C0
31C0
71C0
FF00
ENDCHAR
STARTCHAR 0183
ENCODING 387
SWIDTH 500 0
DWIDTH 9 0
BBX 10 12 0 0
BITMAP
1FC0
18C0
1800
3800
3700
3B00
3300
6300
6300
6600
E600
7800
ENDCHAR
STARTCHAR 0184
ENCODING 388
SWIDTH 611 0
DWIDTH 11 0
BBX 10 12 0 0
BITMAP
0600
0E00
3C00
3C00
1C00
1C00
3F00
39C0
38C0
31C0
71C0
FF00
ENDCHAR
STARTCHAR 0185
ENCODING 389
SWIDTH 500 0
DWIDTH 9 0
BBX 8 12 0 0
BITMAP
08
38
78
38
37
3B
33
63
63
66
E6
78
ENDCHAR
STARTCHAR 0186
ENCODING 390
SWIDTH 666 0
DWIDTH 12 0
BBX 12 12 0 0
BITMAP
0780
18E0
0060
0070
0070
0070
0070
00E0
00E0
01C0
4380
FE00
ENDCHAR
STARTCHAR 0187
ENCODING 391
SWIDTH 666 0
DWIDTH 12 0
BBX 15 15 1 0
BITMAP
0006
001A
0016
03F0
1C30
3800
7000
7000
E000
E000
E000
E000
6040
7080
1F00
ENDCHAR
STARTCHAR 0188
ENCODING 392
SWIDTH 444 0
DWIDTH 8 0
BBX 12 11 0 0
BITMAP
0060
00B0
00B0
0F00
3100
6000
6000
6000
E000
6000
7C00
ENDCHAR
STARTCHAR 0189
ENCODING 393
SWIDTH 722 0
DWIDTH 13 0
BBX 13 12 0 0
BITMAP
1FC0
0E60
0C70
1C38
1C38
7F38
3838
3870
3870
30E0
71C0
FF00
ENDCHAR
STARTCHAR 018A
ENCODING 394
SWIDTH 777 0
DWIDTH 14 0
BBX 13 12 1 0
BITMAP
7FC0
CE60
4C70
1C30
1C38
1838
1838
3870
3870
30E0
71C0
FF00
ENDCHAR
STARTCHAR 018B
ENCODING 395
SWIDTH 611 0
DWIDTH 11 0
BBX 12 12 0 0
BITMAP
1FF0
10E0
20E0
20C0
01C0
01C0
1F80
7180
E380
E380
E300
7F80
ENDCHAR
STARTCHAR 018C
ENCODING 396
SWIDTH 500 0
DWIDTH 9 0
BBX 10 12 0 0
BITMAP
1FC0
1180
2180
0180
1F00
3300
7300
6700
6600
EE00
F700
6600
ENDCHAR
STARTCHAR 018D
ENCODING 397
SWIDTH 500 0
DWIDTH 9 0
BBX 9 12 0 -4
BITMAP
0F00
3180
7180
6380
6300
6700
6400
7800
3000
1800
C800
7000
ENDCHAR
STARTCHAR 018E
ENCODING 398
SWIDTH 666 0
DWIDTH 12 0
BBX 13 12 0 0
BITMAP
0FF8
0860
1060
00E0
08E0
0FC0
11C0
11C0
01C0
8180
C380
FFC0
ENDCHAR
STARTCHAR 018F
ENCODING 399
SWIDTH 722 0
DWIDTH 13 0
BBX 12 12 1 0
BITMAP
1FC0
18E0
0060
0070
0070
FFF0
E070
E0E0
E0E0
E1C0
6380
3E00
ENDCHAR
STARTCHAR 0190
ENCODING 400
SWIDTH 500 0
DWIDTH 9 0
BBX 10 12 0 0
BITMAP
07C0
0C40
1840
1800
1800
0E00
3800
6000
E000
E000
E200
7C00
ENDCHAR
STARTCHAR 0191
ENCODING 401
SWIDTH 666 0
DWIDTH 12 0
BBX 15 16 -2 -4
BITMAP
03FE
0386
0380
0380
0310
07F0
0720
0600
0E00
0E00
0E00
0C00
1C00
1800
D800
F000
ENDCHAR
STARTCHAR 0192
ENCODING 402
SWIDTH 500 0
DWIDTH 9 0
BBX 9 16 0 -4
BITMAP
0380
0780
0600
0E00
1F00
0C00
1C00
1C00
1C00
1800
1800
3800
3800
3000
F000
E000
ENDCHAR
STARTCHAR 0193
ENCODING 403
SWIDTH 722 0
DWIDTH 13 0
BBX 16 15 1 0
BITMAP
0007
000B
000B
07F0
1C10
3810
7000
7000
E000
E1F0
E0E0
E0C0
61C0
31C0
1F80
ENDCHAR
STARTCHAR 0194
ENCODING 404
SWIDTH 722 0
DWIDTH 13 0
BBX 13 16 2 -4
BITMAP
F838
7020
7040
7040
7080
3100
3100
3A00
3C00
3800
3800
1800
3800
5800
5800
7000
ENDCHAR
STARTCHAR 0195
ENCODING 405
SWIDTH 777 0
DWIDTH 14 0
BBX 14 12 0 0
BITMAP
3C00
1800
1800
1800
3B8C
379C
3B98
3318
7338
6730
6730
E3C0
ENDCHAR
STARTCHAR 0196
ENCODING 406
SWIDTH 277 0
DWIDTH 5 0
BBX 6 12 0 0
BITMAP
3C
18
18
38
30
30
30
60
60
60
F0
E0
ENDCHAR
STARTCHAR 0197
ENCODING 407
SWIDTH 388 0
DWIDTH 7 0
BBX 8 12 0 0
BITMAP
1F
0E
0C
1C
1C
7E
38
38
38
30
70
F0
ENDCHAR
STARTCHAR 0198
ENCODING 408
SWIDTH 666 0
DWIDTH 12 0
BBX 13 12 0 0
BITMAP
07B8
0FB0
0C40
1C80
1D00
1F00
3B00
3B80
3B80
3180
71C0
F3E0
ENDCHAR
STARTCHAR 0199
ENCODING 409
SWIDTH 500 0
DWIDTH 9 0
BBX 9 12 0 0
BITMAP
0780
0D80
1800
1800
3B80
3200
3400
7C00
7C00
6600
6700
E600
ENDCHAR
STARTCHAR 019A
ENCODING 410
SWIDTH 277 0
DWIDTH 5 0
BBX 6 12 0 0
BITMAP
3C
18
18
38
30
FC
70
60
60
60
F0
E0
ENDCHAR
STARTCHAR 019B
ENCODING 411
SWIDTH 444 0
DWIDTH 8 0
BBX 8 12 -1 0
BITMAP
0E
0E
03
06
0A
06
0E
0E
1C
3C
72
E3
ENDCHAR
STARTCHAR 019C
ENCODING 412
SWIDTH 833 0
DWIDTH 15 0
BBX 15 12 1 0
BITMAP
3DCE
39CC
399C
339C
7398
7398
7338
6738
EF70
F6F0
EF70
E670
ENDCHAR
STARTCHAR 019D
ENCODING 413
SWIDTH 722 0
DWIDTH 13 0
BBX 17 16 -3 -4
BITMAP
03C380
01C100
02E200
02E200
027200
047200
043400
043C00
041C00
081800
080800
080800
100000
100000
900000
A00000
ENDCHAR
STARTCHAR 019E
ENCODING 414
SWIDTH 555 0
DWIDTH 10 0
BBX 8 12 1 -4
BITMAP
63
F7
7B
77
E6
C6
C6
CE
0C
0C
1C
1C
ENDCHAR
STARTCHAR 019F
ENCODING 415
SWIDTH 722 0
DWIDTH 13 0
BBX 12 12 1 0
BITMAP
07C0
0C60
3870
7070
7070
FFF0
E0E0
E0E0
E0C0
E1C0
6300
3E00
ENDCHAR
STARTCHAR 01A0
ENCODING 416
SWIDTH 722 0
DWIDTH 13 0
BBX 14 13 1 1
BITMAP
000C
07CC
0C78
3870
3070
7070
E070
E0E0
E0E0
E0C0
E180
6300
3E00
ENDCHAR
STARTCHAR 01A1
ENCODING 417
SWIDTH 555 0
DWIDTH 10 0
BBX 11 9 0 1
BITMAP
0040
0F60
33C0
7300
6300
6300
E600
6600
6800
ENDCHAR
STARTCHAR 01A2
ENCODING 418
SWIDTH 1000 0
DWIDTH 18 0
BBX 18 16 1 -4
BITMAP
07FFC0
1839C0
303980
703380
607380
E07380
E07300
E06700
E0E700
E0E600
70CE00
1F8E00
000E00
000C00
001C00
003C00
ENDCHAR
STARTCHAR 01A3
ENCODING 419
SWIDTH 722 0
DWIDTH 13 0
BBX 13 12 0 -4
BITMAP
0FF8
31B8
61B0
63B0
6330
E370
6660
3C60
00E0
00C0
00C0
01C0
ENDCHAR
STARTCHAR 01A4
ENCODING 420
SWIDTH 666 0
DWIDTH 12 0
BBX 11 12 1 0
BITMAP
7FC0
CC60
CC60
1C60
1CE0
18C0
3F80
3800
3800
3000
7000
7000
ENDCHAR
STARTCHAR 01A5
ENCODING 421
SWIDTH 500 0
DWIDTH 9 0
BBX 10 16 -1 -4
BITMAP
0380
06C0
0C00
0C00
1B80
1D80
19C0
3980
3180
3300
7300
7400
6800
6000
E000
E000
ENDCHAR
STARTCHAR 01A6
ENCODING 422
SWIDTH 611 0
DWIDTH 11 0
BBX 11 14 0 -2
BITMAP
0F00
0E00
0F80
1CE0
1CE0
18E0
38E0
39C0
3F00
3300
7380
F380
0180
01E0
ENDCHAR
STARTCHAR 01A7
ENCODING 423
SWIDTH 555 0
DWIDTH 10 0
BBX 10 12 0 0
BITMAP
0FC0
18C0
10C0
21C0
0380
0F00
3C00
7000
E080
C100
C300
7F00
ENDCHAR
STARTCHAR 01A8
ENCODING 424
SWIDTH 388 0
DWIDTH 7 0
BBX 7 8 0 0
BITMAP
3E
26
4E
38
70
C4
88
F8
ENDCHAR
STARTCHAR 01A9
ENCODING 425
SWIDTH 611 0
DWIDTH 11 0
BBX 13 12 -1 0
BITMAP
0FF8
0E08
0608
0700
0300
0300
0200
0400
0800
3020
7FC0
FFC0
ENDCHAR
STARTCHAR 01AA
ENCODING 426
SWIDTH 388 0
DWIDTH 7 0
BBX 5 16 1 -4
BITMAP
78
98
98
78
18
38
30
30
70
60
60
60
C0
C0
C8
78
ENDCHAR
STARTCHAR 01AB
ENCODING 427
SWIDTH 277 0
DWIDTH 5 0
BBX 6 14 -1 -4
BITMAP
04
0C
3C
18
38
30
30
30
78
38
18
10
D0
E0
ENDCHAR
STARTCHAR 01AC
ENCODING 428
SWIDTH 611 0
DWIDTH 11 0
BBX 10 12 2 0
BITMAP
7FC0
CE40
8C40
1C00
1C00
1C00
1800
3800
3800
3000
7000
F000
ENDCHAR
STARTCHAR 01AD
ENCODING 429
SWIDTH 277 0
DWIDTH 5 0
BBX 9 12 0 0
BITMAP
0700
0D80
1800
3800
7800
3000
7000
6000
6000
6000
F000
6000
ENDCHAR
STARTCHAR 01AE
ENCODING 430
SWIDTH 611 0
DWIDTH 11 0
BBX 10 16 2 -4
BITMAP
7FC0
CE40
8C40
1C00
1C00
1C00
1800
3800
3800
3000
7000
7000
7000
6000
6800
7800
ENDCHAR
STARTCHAR 01AF
ENCODING 431
SWIDTH 777 0
DWIDTH 14 0
BBX 15 14 2 1
BITMAP
0006
0006
7C78
3020
7040
7040
7040
6040
E080
E080
C080
C100
E200
7C00
ENDCHAR
STARTCHAR 01B0
ENCODING 432
SWIDTH 611 0
DWIDTH 11 0
BBX 11 8 1 1
BITMAP
F360
6360
6780
E600
CE00
DE00
ED00
CE00
ENDCHAR
STARTCHAR 01B1
ENCODING 433
SWIDTH 722 0
DWIDTH 13 0
BBX 13 12 1 0
BITMAP
3EF8
3EF8
4508
18E0
3060
7070
E070
E070
E0E0
E0C0
6180
3F00
ENDCHAR
STARTCHAR 01B2
ENCODING 434
SWIDTH 722 0
DWIDTH 13 0
BBX 11 12 2 0
BITMAP
79C0
3120
7020
7020
6020
E040
E040
E040
C080
C100
E300
7C00
ENDCHAR
STARTCHAR 01B3
ENCODING 435
SWIDTH 666 0
DWIDTH 12 0
BBX 12 12 2 0
BITMAP
F870
7070
3080
3900
3A00
3C00
1C00
3800
3800
3800
3000
7800
ENDCHAR
STARTCHAR 01B4
ENCODING 436
SWIDTH 444 0
DWIDTH 8 0
BBX 17 16 -2 -4
BITMAP
000380
000580
000800
001000
082000
1C2000
0C4000
0C8000
0C8000
0D0000
0E0000
0C0000
0C0000
080000
F00000
600000
ENDCHAR
STARTCHAR 01B5
ENCODING 437
SWIDTH 611 0
DWIDTH 11 0
BBX 12 12 0 0
BITMAP
1FF0
10E0
21C0
03C0
0780
3FC0
0E00
1C00
3800
7840
F080
FF80
ENDCHAR
STARTCHAR 01B6
ENCODING 438
SWIDTH 388 0
DWIDTH 7 0
BBX 7 10 0 -2
BITMAP
3E
7C
48
08
7C
20
60
E4
34
18
ENDCHAR
STARTCHAR 01B7
ENCODING 439
SWIDTH 555 0
DWIDTH 10 0
BBX 12 16 -1 -4
BITMAP
0FF0
18E0
11C0
0380
0700
0E00
0F00
0380
01C0
01C0
01C0
0180
0380
0300
8600
7C00
ENDCHAR
STARTCHAR 01B8
ENCODING 440
SWIDTH 555 0
DWIDTH 10 0
BBX 12 16 -1 -4
BITMAP
0FF0
0E10
0710
0700
0700
0380
0780
1C00
3000
7000
6000
E000
E000
E000
7080
3F00
ENDCHAR
STARTCHAR 01B9
ENCODING 441
SWIDTH 444 0
DWIDTH 8 0
BBX 10 12 -1 -4
BITMAP
1FC0
1C00
0C00
0E00
0600
3800
7000
6000
E000
E000
6200
3C00
ENDCHAR
STARTCHAR 01BA
ENCODING 442
SWIDTH 444 0
DWIDTH 8 0
BBX 9 12 0 -4
BITMAP
3F80
4600
0C00
1800
0600
0600
1C00
6000
C000
C000
C000
7C00
ENDCHAR
STARTCHAR 01BB
ENCODING 443
SWIDTH 500 0
DWIDTH 9 0
BBX 9 12 0 0
BITMAP
0E00
1F00
2380
0380
0300
3F00
0400
0800
1000
2000
7E00
FE00
ENDCHAR
STARTCHAR 01BC
ENCODING 444
SWIDTH 500 0
DWIDTH 9 0
BBX 8 12 1 0
BITMAP
3F
27
20
60
7C
1E
0E
06
06
04
CC
F0
ENDCHAR
STARTCHAR 01BD
ENCODING 445
SWIDTH 388 0
DWIDTH 7 0
BBX 7 8 0 0
BITMAP
3E
46
40
78
3C
04
CC
F0
ENDCHAR
STARTCHAR 01BE
ENCODING 446
SWIDTH 388 0
DWIDTH 7 0
BBX 6 10 0 1
BITMAP
08
18
7C
30
30
38
1C
0C
8C
F8
ENDCHAR
STARTCHAR 01BF
ENCODING 447
SWIDTH 500 0
DWIDTH 9 0
BBX 11 12 -2 -4
BITMAP
0DC0
0EC0
0CE0
1CC0
18C0
1880
3900
3600
3800
3000
6000
8000
ENDCHAR
STARTCHAR 01C0
ENCODING 448
SWIDTH 222 0
DWIDTH 4 0
BBX 2 12 1 0
BITMAP
C0
C0
C0
C0
C0
C0
C0
C0
C0
C0
C0
C0
ENDCHAR
STARTCHAR 01C1
ENCODING 449
SWIDTH 333 0
DWIDTH 6 0
BBX 4 12 1 0
BITMAP
D0
D0
D0
D0
D0
D0
D0
D0
D0
D0
D0
D0
ENDCHAR
STARTCHAR 01C2
ENCODING 450
SWIDTH 222 0
DWIDTH 4 0
BBX 4 12 0 0
BITMAP
20
20
20
20
F0
20
20
F0
20
20
20
20
ENDCHAR
STARTCHAR 01C3
ENCODING 451
SWIDTH 388 0
DWIDTH 7 0
BBX 5 12 1 0
BITMAP
18
18
18
10
30
20
20
20
00
40
E0
E0
ENDCHAR
STARTCHAR 01C4
ENCODING 452
SWIDTH 1333 0
DWIDTH 24 0
BBX 25 16 0 0
BITMAP
00003100
00001200
00001E00
00001C00
1FC0FF80
0E608700
0C710E00
1C301E00
1C383C00
18383800
38707000
3870E000
3871C000
30E3C200
71C78400
FF07FC00
ENDCHAR
STARTCHAR 01C5
ENCODING 453
SWIDTH 1111 0
DWIDTH 20 0
BBX 21 14 0 -2
BITMAP
1FC098
0E60F0
0C70E0
1C3000
1C39F0
183BE0
387240
387080
387100
30E100
71C300
FF0720
0001A0
0000C0
ENDCHAR
STARTCHAR 01C6
ENCODING 454
SWIDTH 888 0
DWIDTH 16 0
BBX 17 14 0 -2
BITMAP
01C980
018B00
018E00
018000
1F1F00
333E00
732400
670800
661000
EE2000
F73200
667300
001A00
000C00
ENDCHAR
STARTCHAR 01C7
ENCODING 455
SWIDTH 1111 0
DWIDTH 20 0
BBX 21 12 0 0
BITMAP
1F0078
0E0070
0C0070
1C0060
1C00E0
1800E0
3800C0
3801C0
3801C0
305980
70DB80
FF9A00
ENDCHAR
STARTCHAR 01C8
ENCODING 456
SWIDTH 888 0
DWIDTH 16 0
BBX 16 16 0 -4
BITMAP
1F03
0E03
0C00
1C00
1C0F
1806
3806
3806
380E
304C
70CC
FF9C
0018
0018
00D0
00E0
ENDCHAR
STARTCHAR 01C9
ENCODING 457
SWIDTH 555 0
DWIDTH 10 0
BBX 10 16 0 -4
BITMAP
3CC0
18C0
1800
3800
3380
3180
3180
6380
6300
6300
F300
E700
0600
0600
3400
2800
ENDCHAR
STARTCHAR 01CA
ENCODING 458
SWIDTH 1222 0
DWIDTH 22 0
BBX 23 12 0 0
BITMAP
1E1C1E
0E081C
17101C
171018
139038
239038
21A030
21E070
20E070
40C660
4046E0
E04680
ENDCHAR
STARTCHAR 01CB
ENCODING 459
SWIDTH 1000 0
DWIDTH 18 0
BBX 18 16 0 -4
BITMAP
1E1CC0
0E08C0
171000
171000
1313C0
139180
21A180
21E180
20E380
40C300
404300
E04300
000600
000600
003400
003800
ENDCHAR
STARTCHAR 01CC
ENCODING 460
SWIDTH 833 0
DWIDTH 15 0
BBX 15 16 0 -4
BITMAP
0006
0006
0000
0000
7B9E
378C
3B8C
330C
731C
6318
6698
E718
0030
0030
01A0
01C0
ENDCHAR
STARTCHAR 01CD
ENCODING 461
SWIDTH 666 0
DWIDTH 12 0
BBX 13 16 0 0
BITMAP
0088
00D0
0070
0000
0040
00C0
00C0
01C0
03C0
05C0
09C0
1FC0
21C0
41C0
41C0
C1C0
ENDCHAR
STARTCHAR 01CE
ENCODING 462
SWIDTH 500 0
DWIDTH 9 0
BBX 9 12 0 0
BITMAP
0880
0500
0700
0000
1F00
3300
7300
6700
6600
EE00
F700
6600
ENDCHAR
STARTCHAR 01CF
ENCODING 463
SWIDTH 388 0
DWIDTH 7 0
BBX 9 16 0 0
BITMAP
0980
0F00
0E00
0000
1F00
0E00
0C00
1C00
1C00
1800
3800
3800
3800
3000
7000
F000
ENDCHAR
STARTCHAR 01D0
ENCODING 464
SWIDTH 277 0
DWIDTH 5 0
BBX 7 12 0 0
BITMAP
26
3C
38
00
70
30
30
70
60
60
F0
60
ENDCHAR
STARTCHAR 01D1
ENCODING 465
SWIDTH 722 0
DWIDTH 13 0
BBX 12 16 1 0
BITMAP
0220
03C0
0180
0000
07C0
0C60
3870
3070
7070
E070
E0E0
E0E0
E0C0
E180
6300
3E00
ENDCHAR
STARTCHAR 01D2
ENCODING 466
SWIDTH 500 0
DWIDTH 9 0
BBX 9 12 0 0
BITMAP
0880
0D00
0700
0000
0E00
3300
7300
6300
6300
E600
6600
6800
ENDCHAR
STARTCHAR 01D3
ENCODING 467
SWIDTH 722 0
DWIDTH 13 0
BBX 12 16 2 0
BITMAP
0440
0680
0380
0000
7C70
3020
7040
7040
7040
6040
E080
E080
C080
C100
E200
7C00
ENDCHAR
STARTCHAR 01D4
ENCODING 468
SWIDTH 555 0
DWIDTH 10 0
BBX 8 12 1 0
BITMAP
11
1E
0C
00
F3
63
67
E6
CE
DE
ED
CE
ENDCHAR
STARTCHAR 01D5
ENCODING 469
SWIDTH 722 0
DWIDTH 13 0
BBX 12 16 2 0
BITMAP
07C0
0000
0480
0000
7C70
3020
7040
7040
7040
6040
E080
E080
C080
C100
E200
7C00
ENDCHAR
STARTCHAR 01D6
ENCODING 470
SWIDTH 555 0
DWIDTH 10 0
BBX 9 14 1 1
BITMAP
1F80
0000
0000
3300
3300
0000
F300
6300
6700
E600
CE00
DE00
ED00
CE00
ENDCHAR
STARTCHAR 01D7
ENCODING 471
SWIDTH 722 0
DWIDTH 13 0
BBX 12 16 2 0
BITMAP
0100
0000
0480
0000
7C70
3020
7040
7040
7040
6040
E080
E080
C080
C100
E200
7C00
ENDCHAR
STARTCHAR 01D8
ENCODING 472
SWIDTH 555 0
DWIDTH 10 0
BBX 8 15 1 0
BITMAP
07
06
04
00
33
33
00
F3
63
67
E6
CE
DE
ED
CE
ENDCHAR
STARTCHAR 01D9
ENCODING 473
SWIDTH 722 0
DWIDTH 13 0
BBX 12 16 2 0
BITMAP
0280
0100
0480
0000
7C70
3020
7040
7040
7040
6040
E080
E080
C080
C100
E200
7C00
ENDCHAR
STARTCHAR 01DA
ENCODING 474
SWIDTH 555 0
DWIDTH 10 0
BBX 8 15 1 0
BITMAP
19
0B
0E
00
33
33
00
F3
63
67
E6
CE
DE
ED
CE
ENDCHAR
STARTCHAR 01DB
ENCODING 475
SWIDTH 722 0
DWIDTH 13 0
BBX 12 16 2 0
BITMAP
0300
0100
0480
0000
7C70
3020
7040
7040
7040
6040
E080
E080
C080
C100
E200
7C00
ENDCHAR
STARTCHAR 01DC
ENCODING 476
SWIDTH 555 0
DWIDTH 10 0
BBX 8 15 1 0
BITMAP
0C
04
02
00
33
33
00
F3
63
67
E6
CE
DE
ED
CE
ENDCHAR
STARTCHAR 01DD
ENCODING 477
SWIDTH 444 0
DWIDTH 8 0
BBX 7 8 0 0
BITMAP
1E
66
06
0E
76
CC
C8
F0
ENDCHAR
STARTCHAR 01DE
ENCODING 478
SWIDTH 666 0
DWIDTH 12 0
BBX 13 16 0 0
BITMAP
00F8
0000
0090
0000
0040
00C0
00C0
01C0
03C0
05C0
09C0
1FC0
21C0
41C0
41C0
C1C0
ENDCHAR
STARTCHAR 01DF
ENCODING 479
SWIDTH 500 0
DWIDTH 9 0
BBX 10 14 0 1
BITMAP
1FC0
0000
0000
1B80
1900
0000
1F00
3300
7300
6700
6600
EE00
F700
6600
ENDCHAR
STARTCHAR 01E0
ENCODING 480
SWIDTH 666 0
DWIDTH 12 0
BBX 13 16 0 0
BITMAP
0078
0000
0020
0000
0040
00C0
00C0
01C0
03C0
05C0
09C0
1FC0
21C0
41C0
41C0
C1C0
ENDCHAR
STARTCHAR 01E1
ENCODING 481
SWIDTH 500 0
DWIDTH 9 0
BBX 10 14 0 1
BITMAP
0FC0
0000
0000
0700
0600
0000
1F00
3300
7300
6700
6600
EE00
F700
6600
ENDCHAR
STARTCHAR 01E2
ENCODING 482
SWIDTH 944 0
DWIDTH 17 0
BBX 18 14 -1 1
BITMAP
001F80
000000
007FC0
007840
00B840
013040
027100
027E00
046200
0FE200
10E000
20E080
20C300
E1FF00
ENDCHAR
STARTCHAR 01E3
ENCODING 483
SWIDTH 722 0
DWIDTH 13 0
BBX 13 11 0 1
BITMAP
07E0
0000
0000
0DF8
3398
3330
6320
67C0
EF00
F700
63E0
ENDCHAR
STARTCHAR 01E4
ENCODING 484
SWIDTH 722 0
DWIDTH 13 0
BBX 12 12 1 0
BITMAP
07F0
1C10
3810
7000
7000
E000
E1F0
E0E0
E3F0
61C0
31C0
1F80
ENDCHAR
STARTCHAR 01E5
ENCODING 485
SWIDTH 500 0
DWIDTH 9 0
BBX 11 12 -2 -4
BITMAP
0700
0CE0
1CC0
18C0
19C0
0700
1800
1E00
1F80
2380
FFC0
3F00
ENDCHAR
STARTCHAR 01E6
ENCODING 486
SWIDTH 722 0
DWIDTH 13 0
BBX 12 16 1 0
BITMAP
0110
01A0
01E0
0000
03F0
1C10
3810
7000
7000
E000
E1F0
E0E0
E0C0
61C0
31C0
1F80
ENDCHAR
STARTCHAR 01E7
ENCODING 487
SWIDTH 500 0
DWIDTH 9 0
BBX 10 16 -1 -4
BITMAP
0C80
0580
0700
0000
0E00
19C0
3180
3380
3380
1E00
2000
3E00
3F00
C300
C300
7E00
ENDCHAR
STARTCHAR 01E8
ENCODING 488
SWIDTH 666 0
DWIDTH 12 0
BBX 11 16 1 0
BITMAP
0640
02C0
0380
0000
3CE0
1C40
1880
3B00
3E00
3E00
7600
7700
7700
6300
E380
E7C0
ENDCHAR
STARTCHAR 01E9
ENCODING 489
SWIDTH 500 0
DWIDTH 9 0
BBX 10 16 0 0
BITMAP
04C0
0780
0700
0000
3C00
1800
1800
1800
3B80
3200
3400
7C00
7C00
6600
6700
E600
ENDCHAR
STARTCHAR 01EA
ENCODING 490
SWIDTH 722 0
DWIDTH 13 0
BBX 12 16 1 -4
BITMAP
07C0
0C60
3870
3070
7070
E070
E0E0
E0E0
E0C0
E180
6300
3E00
0800
0800
1800
1C00
ENDCHAR
STARTCHAR 01EB
ENCODING 491
SWIDTH 500 0
DWIDTH 9 0
BBX 8 12 0 -4
BITMAP
0E
33
73
63
63
E6
66
68
10
20
60
70
ENDCHAR
STARTCHAR 01EC
ENCODING 492
SWIDTH 722 0
DWIDTH 13 0
BBX 12 18 1 -3
BITMAP
07E0
0000
07C0
0C60
3870
3070
7070
E070
E0E0
E0E0
E0C0
E180
6300
3E00
0800
0800
1800
1C00
ENDCHAR
STARTCHAR 01ED
ENCODING 493
SWIDTH 500 0
DWIDTH 9 0
BBX 9 15 0 -3
BITMAP
1F80
0000
0000
0E00
3300
7300
6300
6300
E600
6600
6800
1000
2000
6000
7000
ENDCHAR
STARTCHAR 01EE
ENCODING 494
SWIDTH 555 0
DWIDTH 10 0
BBX 12 20 -1 -4
BITMAP
0220
0360
03C0
0180
0FF0
18E0
11C0
0380
0700
0E00
0F00
0380
01C0
01C0
01C0
0180
0380
0300
8600
7C00
ENDCHAR
STARTCHAR 01EF
ENCODING 495
SWIDTH 444 0
DWIDTH 8 0
BBX 10 16 -1 -4
BITMAP
04C0
0780
0700
0000
1FC0
2380
0700
0C00
1800
0E00
0600
0600
0600
0600
0C00
F800
ENDCHAR
STARTCHAR 01F0
ENCODING 496
SWIDTH 277 0
DWIDTH 5 0
BBX 10 16 -3 -4
BITMAP
0440
0780
0700
0000
0F00
0600
0600
0600
0E00
0C00
0C00
0C00
1800
1800
D000
E000
ENDCHAR
STARTCHAR 01F1
ENCODING 497
SWIDTH 1333 0
DWIDTH 24 0
BBX 25 12 0 0
BITMAP
1FC0FF80
0E608700
0C710E00
1C301E00
1C383C00
18383800
38707000
3870E000
3871C000
30E3C200
71C78400
FF07FC00
ENDCHAR
STARTCHAR 01F2
ENCODING 498
SWIDTH 1111 0
DWIDTH 20 0
BBX 20 14 0 -2
BITMAP
1FC000
0E6000
0C7000
1C3000
1C39F0
183BE0
387240
387080
387100
30E100
71C300
FF0720
0001A0
0000C0
ENDCHAR
STARTCHAR 01F3
ENCODING 499
SWIDTH 888 0
DWIDTH 16 0
BBX 16 14 0 -2
BITMAP
01C0
0180
0180
0180
1F1F
333E
7324
6708
6610
EE20
F732
6673
001A
000C
ENDCHAR
STARTCHAR 01F4
ENCODING 500
SWIDTH 722 0
DWIDTH 13 0
BBX 12 16 1 0
BITMAP
0060
0040
0080
0000
03F0
1C10
3810
7000
7000
E000
E1F0
E0E0
E0C0
61C0
31C0
1F80
ENDCHAR
STARTCHAR 01F5
ENCODING 501
SWIDTH 500 0
DWIDTH 9 0
BBX 10 16 -1 -4
BITMAP
0180
0300
0200
0000
0E00
19C0
3180
3380
3380
1E00
2000
3E00
3F00
C300
C300
7E00
ENDCHAR
STARTCHAR 01F6
ENCODING 502
SWIDTH 1000 0
DWIDTH 18 0
BBX 17 12 0 0
BITMAP
1F3E00
0E1C00
0C1800
1C3800
1C3980
1FF180
387180
387300
306300
30E300
70E600
F07C00
ENDCHAR
STARTCHAR 01F7
ENCODING 503
SWIDTH 666 0
DWIDTH 12 0
BBX 14 16 -2 -4
BITMAP
01B8
03DC
030C
070C
071C
061C
0E18
0E30
0C20
0C40
1D80
1E00
1800
3800
3800
C000
ENDCHAR
STARTCHAR 01F8
ENCODING 504
SWIDTH 722 0
DWIDTH 13 0
BBX 14 16 0 0
BITMAP
0300
0180
0080
0000
1E1C
0E08
1710
1710
1310
2390
21A0
21E0
20E0
40C0
4040
E040
ENDCHAR
STARTCHAR 01F9
ENCODING 505
SWIDTH 555 0
DWIDTH 10 0
BBX 9 12 0 0
BITMAP
0C00
0600
0200
0000
7B80
3780
3B80
3300
7300
6300
6680
E700
ENDCHAR
STARTCHAR 01FA
ENCODING 506
SWIDTH 666 0
DWIDTH 12 0
BBX 14 19 0 0
BITMAP
001C
0018
0030
0020
0060
0090
0090
0060
00C0
00C0
01C0
03C0
05C0
09C0
1FC0
21C0
41C0
41C0
C1C0
ENDCHAR
STARTCHAR 01FB
ENCODING 507
SWIDTH 500 0
DWIDTH 9 0
BBX 9 16 0 0
BITMAP
0180
0100
0200
0000
0700
0900
0600
0000
1F00
3300
7300
6700
6600
EE00
F700
6600
ENDCHAR
STARTCHAR 01FC
ENCODING 508
SWIDTH 944 0
DWIDTH 17 0
BBX 18 16 -1 0
BITMAP
000E00
000C00
000800
000000
007FC0
007840
00B840
013040
027100
027E00
046200
0FE200
10E000
20E080
20C300
E1FF00
ENDCHAR
STARTCHAR 01FD
ENCODING 509
SWIDTH 722 0
DWIDTH 13 0
BBX 13 12 0 0
BITMAP
00C0
0080
0100
0000
0DF8
3398
3330
6320
67C0
EF00
F700
63E0
ENDCHAR
STARTCHAR 01FE
ENCODING 510
SWIDTH 722 0
DWIDTH 13 0
BBX 12 16 1 0
BITMAP
00C0
0180
0100
0000
07D0
1C60
3870
70F0
7170
E270
E4E0
E8E0
F0C0
E180
6300
BC00
ENDCHAR
STARTCHAR 01FF
ENCODING 511
SWIDTH 500 0
DWIDTH 9 0
BBX 9 12 0 0
BITMAP
0300
0200
0400
0000
0E80
3300
7300
6F00
7300
E600
6600
E800
ENDCHAR
STARTCHAR 0200
ENCODING 512
SWIDTH 666 0
DWIDTH 12 0
BBX 12 16 0 0
BITMAP
0360
0130
0090
0000
0040
00C0
00C0
01C0
03C0
05C0
09C0
1FC0
21C0
41C0
41C0
C1C0
ENDCHAR
STARTCHAR 0201
ENCODING 513
SWIDTH 500 0
DWIDTH 9 0
BBX 8 12 0 0
BITMAP
3F
1B
09
00
1F
33
73
67
66
EE
F7
66
ENDCHAR
STARTCHAR 0202
ENCODING 514
SWIDTH 666 0
DWIDTH 12 0
BBX 12 16 0 0
BITMAP
0020
00F0
0090
0000
0040
00C0
00C0
01C0
03C0
05C0
09C0
1FC0
21C0
41C0
41C0
C1C0
ENDCHAR
STARTCHAR 0203
ENCODING 515
SWIDTH 500 0
DWIDTH 9 0
BBX 8 12 0 0
BITMAP
07
0F
00
00
1F
33
73
67
66
EE
F7
66
ENDCHAR
STARTCHAR 0204
ENCODING 516
SWIDTH 666 0
DWIDTH 12 0
BBX 12 16 0 0
BITMAP
06C0
0240
0120
0000
1FF0
0E10
0C10
1C10
1C40
1F80
3880
3880
3800
3000
70C0
FFC0
ENDCHAR
STARTCHAR 0205
ENCODING 517
SWIDTH 444 0
DWIDTH 8 0
BBX 8 12 0 0
BITMAP
3F
1B
09
00
0F
13
36
64
78
E0
60
7C
ENDCHAR
STARTCHAR 0206
ENCODING 518
SWIDTH 666 0
DWIDTH 12 0
BBX 12 16 0 0
BITMAP
0040
01E0
0220
0000
1FF0
0E10
0C10
1C10
1C40
1F80
3880
3880
3800
3000
70C0
FFC0
ENDCHAR
STARTCHAR 0207
ENCODING 519
SWIDTH 444 0
DWIDTH 8 0
BBX 9 12 0 0
BITMAP
0700
0F80
0880
0000
0F00
1300
3600
6400
7800
E000
6000
7C00
ENDCHAR
STARTCHAR 0208
ENCODING 520
SWIDTH 388 0
DWIDTH 7 0
BBX 8 16 0 0
BITMAP
3F
1B
09
00
1F
0E
0C
1C
1C
18
38
38
38
30
70
F0
ENDCHAR
STARTCHAR 0209
ENCODING 521
SWIDTH 277 0
DWIDTH 5 0
BBX 6 12 0 0
BITMAP
D8
48
24
00
70
30
30
70
60
60
F0
60
ENDCHAR
STARTCHAR 020A
ENCODING 522
SWIDTH 388 0
DWIDTH 7 0
BBX 8 16 0 0
BITMAP
02
0F
09
00
1F
0E
0C
1C
1C
18
38
38
38
30
70
F0
ENDCHAR
STARTCHAR 020B
ENCODING 523
SWIDTH 277 0
DWIDTH 5 0
BBX 6 12 0 0
BITMAP
18
3C
44
00
70
30
30
70
60
60
F0
60
ENDCHAR
STARTCHAR 020C
ENCODING 524
SWIDTH 722 0
DWIDTH 13 0
BBX 12 16 1 0
BITMAP
0D80
06C0
0240
0000
07C0
0C60
3870
3070
7070
E070
E0E0
E0E0
E0C0
E180
6300
3E00
ENDCHAR
STARTCHAR 020D
ENCODING 525
SWIDTH 500 0
DWIDTH 9 0
BBX 8 12 0 0
BITMAP
37
1B
09
00
0E
33
73
63
63
E6
66
68
ENDCHAR
STARTCHAR 020E
ENCODING 526
SWIDTH 722 0
DWIDTH 13 0
BBX 12 16 1 0
BITMAP
01C0
03C0
0000
0000
07C0
0C60
3870
3070
7070
E070
E0E0
E0E0
E0C0
E180
6300
3E00
ENDCHAR
STARTCHAR 020F
ENCODING 527
SWIDTH 500 0
DWIDTH 9 0
BBX 9 12 0 0
BITMAP
0700
0F80
0080
0000
0E00
3300
7300
6300
6300
E600
6600
6800
ENDCHAR
STARTCHAR 0210
ENCODING 528
SWIDTH 666 0
DWIDTH 12 0
BBX 11 16 0 0
BITMAP
0D80
04C0
0240
0000
1FC0
0EE0
0C60
1C60
1CE0
1CC0
3F00
3B80
3B80
3180
71C0
F1C0
ENDCHAR
STARTCHAR 0211
ENCODING 529
SWIDTH 388 0
DWIDTH 7 0
BBX 7 12 0 0
BITMAP
6C
64
22
00
76
36
3A
70
70
60
60
E0
ENDCHAR
STARTCHAR 0212
ENCODING 530
SWIDTH 666 0
DWIDTH 12 0
BBX 11 16 0 0
BITMAP
0080
03C0
0240
0000
1FC0
0EE0
0C60
1C60
1CE0
1CC0
3F00
3B80
3B80
3180
71C0
F1C0
ENDCHAR
STARTCHAR 0213
ENCODING 531
SWIDTH 388 0
DWIDTH 7 0
BBX 7 12 0 0
BITMAP
0C
1E
22
00
76
36
3A
70
70
60
60
E0
ENDCHAR
STARTCHAR 0214
ENCODING 532
SWIDTH 722 0
DWIDTH 13 0
BBX 12 16 2 0
BITMAP
1B00
0D80
0480
0000
7C70
3020
7040
7040
7040
6040
E080
E080
C080
C100
E200
7C00
ENDCHAR
STARTCHAR 0215
ENCODING 533
SWIDTH 555 0
DWIDTH 10 0
BBX 8 12 1 0
BITMAP
7E
36
12
00
F3
63
67
E6
CE
DE
ED
CE
ENDCHAR
STARTCHAR 0216
ENCODING 534
SWIDTH 722 0
DWIDTH 13 0
BBX 12 16 2 0
BITMAP
0100
03C0
0440
0000
7C70
3020
7040
7040
7040
6040
E080
E080
C080
C100
E200
7C00
ENDCHAR
STARTCHAR 0217
ENCODING 535
SWIDTH 555 0
DWIDTH 10 0
BBX 8 12 1 0
BITMAP
0E
1E
00
00
F3
63
67
E6
CE
DE
ED
CE
ENDCHAR
STARTCHAR 0218
ENCODING 536
SWIDTH 555 0
DWIDTH 10 0
BBX 10 16 0 -5
BITMAP
0FC0
18C0
3840
3800
1C00
1E00
0F00
0700
0380
8380
C300
FE00
0000
1800
0800
1000
ENDCHAR
STARTCHAR 0219
ENCODING 537
SWIDTH 388 0
DWIDTH 7 0
BBX 7 12 0 -5
BITMAP
3E
60
70
38
1C
8C
8C
F8
00
70
20
40
ENDCHAR
STARTCHAR 021A
ENCODING 538
SWIDTH 611 0
DWIDTH 11 0
BBX 10 17 2 -5
BITMAP
7FC0
CE40
8C40
1C00
1C00
1C00
1800
3800
3800
3000
7000
F000
0000
6000
6000
4000
8000
ENDCHAR
STARTCHAR 021B
ENCODING 539
SWIDTH 277 0
DWIDTH 5 0
BBX 5 14 0 -4
BITMAP
08
18
78
30
70
60
60
60
F0
60
00
C0
40
80
ENDCHAR
STARTCHAR 021C
ENCODING 540
SWIDTH 611 0
DWIDTH 11 0
BBX 12 16 -1 -4
BITMAP
0BE0
0C70
0070
0070
0060
00C0
0380
0F00
0180
01C0
01C0
0180
0380
0700
1C00
E000
ENDCHAR
STARTCHAR 021D
ENCODING 541
SWIDTH 444 0
DWIDTH 8 0
BBX 9 12 -2 -4
BITMAP
0F80
1180
0180
0180
0200
1E00
0300
0300
0600
0C00
1000
E000
ENDCHAR
STARTCHAR 021E
ENCODING 542
SWIDTH 777 0
DWIDTH 14 0
BBX 15 16 0 0
BITMAP
0118
01B0
00E0
0000
1F3E
0E1C
0C18
1C38
1C38
1C30
3FF0
3870
3870
3060
70E0
F1E0
ENDCHAR
STARTCHAR 021F
ENCODING 543
SWIDTH 555 0
DWIDTH 10 0
BBX 10 16 0 0
BITMAP
0CC0
0580
0700
0000
3C00
1C00
1800
1800
3B80
3780
3B80
3300
7300
6300
6680
E700
ENDCHAR
STARTCHAR 0220
ENCODING 544
SWIDTH 722 0
DWIDTH 13 0
BBX 13 16 0 -4
BITMAP
0EF8
0F18
0C18
1C38
1C38
1C38
1830
3870
3870
3060
70E0
F8E0
00E0
00C0
01C0
03C0
ENDCHAR
STARTCHAR 0221
ENCODING 545
SWIDTH 500 0
DWIDTH 9 0
BBX 10 16 0 -4
BITMAP
01C0
0180
0180
0180
1F80
3300
7300
6700
6600
E600
FE00
6E00
0C00
0F00
0D80
1500
ENDCHAR
STARTCHAR 0222
ENCODING 546
SWIDTH 666 0
DWIDTH 12 0
BBX 11 12 1 0
BITMAP
01C0
1CE0
30E0
30C0
31C0
1F00
7180
E1C0
C1C0
C180
C380
7E00
ENDCHAR
STARTCHAR 0223
ENCODING 547
SWIDTH 555 0
DWIDTH 10 0
BBX 10 12 0 1
BITMAP
08C0
18C0
30C0
1180
0F00
3180
6180
6180
C180
C300
6200
7C00
ENDCHAR
STARTCHAR 0224
ENCODING 548
SWIDTH 611 0
DWIDTH 11 0
BBX 12 15 0 -4
BITMAP
1FF0
10E0
21C0
03C0
0780
0700
0E00
1C00
3800
7800
F000
FF80
00C0
00C0
0180
ENDCHAR
STARTCHAR 0225
ENCODING 549
SWIDTH 388 0
DWIDTH 7 0
BBX 7 12 0 -4
BITMAP
7E
7C
08
10
20
20
78
FC
0C
04
08
10
ENDCHAR
STARTCHAR 0226
ENCODING 550
SWIDTH 666 0
DWIDTH 12 0
BBX 12 15 0 0
BITMAP
0060
0070
0000
0040
00C0
00C0
01C0
03C0
05C0
09C0
1FC0
21C0
41C0
41C0
C1C0
ENDCHAR
STARTCHAR 0227
ENCODING 551
SWIDTH 500 0
DWIDTH 9 0
BBX 8 12 0 0
BITMAP
06
06
00
00
1F
33
73
67
66
EE
F7
66
ENDCHAR
STARTCHAR 0228
ENCODING 552
SWIDTH 666 0
DWIDTH 12 0
BBX 12 16 0 -4
BITMAP
0FF0
0E10
0C10
1C00
1C40
1F80
3880
3880
3800
3000
70C0
FFC0
0800
1C00
0C00
3800
ENDCHAR
STARTCHAR 0229
ENCODING 553
SWIDTH 444 0
DWIDTH 8 0
BBX 8 11 0 -3
BITMAP
0F
13
32
64
78
E0
64
78
30
30
E0
ENDCHAR
STARTCHAR 022A
ENCODING 554
SWIDTH 722 0
DWIDTH 13 0
BBX 12 16 1 0
BITMAP
01E0
0000
0240
0000
07C0
0C60
3870
3070
7070
E070
E0E0
E0E0
E0C0
E180
6300
3E00
ENDCHAR
STARTCHAR 022B
ENCODING 555
SWIDTH 500 0
DWIDTH 9 0
BBX 10 14 0 1
BITMAP
0FC0
0000
0000
1980
1980
0000
0E00
3300
7300
6300
6300
E600
6600
6800
ENDCHAR
STARTCHAR 022C
ENCODING 556
SWIDTH 722 0
DWIDTH 13 0
BBX 12 16 1 0
BITMAP
03E0
0000
01C0
0000
07C0
0C60
3870
3070
7070
E070
E0E0
E0E0
E0C0
E180
6300
3E00
ENDCHAR
STARTCHAR 022D
ENCODING 557
SWIDTH 500 0
DWIDTH 9 0
BBX 10 14 0 1
BITMAP
0FC0
0000
0880
1F80
1700
0000
0E00
3300
7300
6300
6300
E600
6600
6800
ENDCHAR
STARTCHAR 022E
ENCODING 558
SWIDTH 722 0
DWIDTH 13 0
BBX 12 15 1 1
BITMAP
0180
0180
0000
07C0
0C60
3870
3070
7070
E070
E0E0
E0E0
E0C0
E180
6300
3E00
ENDCHAR
STARTCHAR 022F
ENCODING 559
SWIDTH 500 0
DWIDTH 9 0
BBX 8 12 0 0
BITMAP
06
06
00
00
0E
33
73
63
63
E6
66
68
ENDCHAR
STARTCHAR 0230
ENCODING 560
SWIDTH 722 0
DWIDTH 13 0
BBX 12 16 1 0
BITMAP
03E0
0000
0180
0000
07C0
0C60
3870
3070
7070
E070
E0E0
E0E0
E0C0
E180
6300
3E00
ENDCHAR
STARTCHAR 0231
ENCODING 561
SWIDTH 500 0
DWIDTH 9 0
BBX 10 14 0 1
BITMAP
0FC0
0000
0000
0700
0600
0000
0E00
3300
7300
6300
6300
E600
6600
6800
ENDCHAR
STARTCHAR 0232
ENCODING 562
SWIDTH 611 0
DWIDTH 11 0
BBX 9 14 3 1
BITMAP
3F80
0000
F180
6100
6100
7200
7400
3800
3800
3000
7000
7000
6000
F000
ENDCHAR
STARTCHAR 0233
ENCODING 563
SWIDTH 444 0
DWIDTH 8 0
BBX 11 15 -2 -3
BITMAP
07E0
0000
0000
18C0
1CC0
0C40
0C80
0C80
0D00
0E00
0E00
0C00
0800
F000
6000
ENDCHAR
STARTCHAR 0234
ENCODING 564
SWIDTH 277 0
DWIDTH 5 0
BBX 7 16 -1 -4
BITMAP
1E
0C
0C
1C
18
18
18
38
30
30
70
60
60
78
68
E8
ENDCHAR
STARTCHAR 0235
ENCODING 565
SWIDTH 555 0
DWIDTH 10 0
BBX 9 12 0 -4
BITMAP
7B80
3780
3B80
3300
7300
6300
6700
E600
0600
0780
0C80
1780
ENDCHAR
STARTCHAR 0236
ENCODING 566
SWIDTH 277 0
DWIDTH 5 0
BBX 5 10 0 1
BITMAP
08
18
78
30
30
70
60
78
68
E8
ENDCHAR
STARTCHAR 0237
ENCODING 567
SWIDTH 277 0
DWIDTH 5 0
BBX 8 12 -3 -4
BITMAP
0F
06
06
06
0E
0C
0C
0C
18
18
D0
E0
ENDCHAR
STARTCHAR 0238
ENCODING 568
SWIDTH 722 0
DWIDTH 13 0
BBX 13 12 0 0
BITMAP
03C0
0180
0180
0180
1FF0
33B0
7338
6738
6630
EE30
F660
63C0
ENDCHAR
STARTCHAR 0239
ENCODING 569
SWIDTH 722 0
DWIDTH 13 0
BBX 13 12 0 -4
BITMAP
1DB0
33F8
6338
6338
6630
EE30
F660
6EC0
0D00
0C00
1C00
1C00
ENDCHAR
STARTCHAR 023A
ENCODING 570
SWIDTH 666 0
DWIDTH 12 0
BBX 13 12 0 0
BITMAP
0048
00D0
00E0
01C0
03C0
05C0
0BC0
1FC0
29C0
51C0
61C0
C1C0
ENDCHAR
STARTCHAR 023B
ENCODING 571
SWIDTH 666 0
DWIDTH 12 0
BBX 12 13 1 0
BITMAP
03F0
1CB0
3880
7100
7100
E200
E200
E400
E400
6840
7880
1F00
1000
ENDCHAR
STARTCHAR 023C
ENCODING 572
SWIDTH 500 0
DWIDTH 9 0
BBX 7 15 1 -3
BITMAP
04
04
04
08
3E
6E
76
D0
D0
E0
E4
78
20
40
40
ENDCHAR
STARTCHAR 023D
ENCODING 573
SWIDTH 611 0
DWIDTH 11 0
BBX 10 12 0 0
BITMAP
1F00
0E00
0C00
1C00
1C00
7F00
3800
3800
3800
3040
70C0
FF80
ENDCHAR
STARTCHAR 023E
ENCODING 574
SWIDTH 611 0
DWIDTH 11 0
BBX 12 12 0 0
BITMAP
1FF0
33B0
2350
0780
0700
0700
0E00
0E00
1E00
2C00
5C00
BC00
ENDCHAR
STARTCHAR 023F
ENCODING 575
SWIDTH 388 0
DWIDTH 7 0
BBX 7 12 0 -4
BITMAP
3E
60
70
38
1C
8C
8C
F8
40
48
4C
38
ENDCHAR
STARTCHAR 0240
ENCODING 576
SWIDTH 388 0
DWIDTH 7 0
BBX 7 12 0 -4
BITMAP
3E
7C
48
10
10
20
60
E0
30
10
16
0C
ENDCHAR
STARTCHAR 0241
ENCODING 577
SWIDTH 500 0
DWIDTH 9 0
BBX 9 12 1 0
BITMAP
1E00
6100
6180
0180
0380
0300
0E00
3C00
7000
6000
6000
E000
ENDCHAR
STARTCHAR 0242
ENCODING 578
SWIDTH 444 0
DWIDTH 8 0
BBX 7 8 1 0
BITMAP
7C
C6
06
0E
1C
30
70
F0
ENDCHAR
STARTCHAR 0243
ENCODING 579
SWIDTH 666 0
DWIDTH 12 0
BBX 12 12 0 0
BITMAP
1FE0
0E60
0C70
1C60
1CC0
1F00
19C0
38C0
FCE0
30C0
71C0
7F80
ENDCHAR
STARTCHAR 0244
ENCODING 580
SWIDTH 722 0
DWIDTH 13 0
BBX 13 12 1 0
BITMAP
3E38
1810
3820
3820
3820
FFF0
7040
7040
6040
6080
7100
3E00
ENDCHAR
STARTCHAR 0245
ENCODING 581
SWIDTH 666 0
DWIDTH 12 0
BBX 11 12 -1 0
BITMAP
0020
0060
00E0
00E0
01E0
02E0
04E0
08E0
10E0
20E0
60E0
E1E0
ENDCHAR
STARTCHAR 0246
ENCODING 582
SWIDTH 666 0
DWIDTH 12 0
BBX 12 13 0 -1
BITMAP
0010
0FF0
0E30
0C50
1C90
1D40
1FC0
3A80
3C00
3800
3800
70C0
FFC0
ENDCHAR
STARTCHAR 0247
ENCODING 583
SWIDTH 444 0
DWIDTH 8 0
BBX 8 14 0 -3
BITMAP
02
04
04
04
1F
3B
7E
6C
70
F0
74
78
20
20
ENDCHAR
STARTCHAR 0248
ENCODING 584
SWIDTH 500 0
DWIDTH 9 0
BBX 10 12 0 0
BITMAP
03C0
0380
0380
0300
0700
1F80
0600
0E00
0E00
CC00
DC00
F000
ENDCHAR
STARTCHAR 0249
ENCODING 585
SWIDTH 277 0
DWIDTH 5 0
BBX 8 16 -3 -4
BITMAP
03
03
00
00
07
06
06
06
1F
0C
0C
0C
1C
18
D8
E0
ENDCHAR
STARTCHAR 024A
ENCODING 586
SWIDTH 777 0
DWIDTH 14 0
BBX 13 16 1 -4
BITMAP
07F8
1838
3038
7038
E070
E070
E070
E060
E0E0
E0E0
70C0
1FC0
01C0
01C0
01B0
00A0
ENDCHAR
STARTCHAR 024B
ENCODING 587
SWIDTH 500 0
DWIDTH 9 0
BBX 9 12 0 -4
BITMAP
1D80
3300
6300
6300
6600
EE00
F600
6E00
0C00
0C00
0F00
0E00
ENDCHAR
STARTCHAR 024C
ENCODING 588
SWIDTH 666 0
DWIDTH 12 0
BBX 11 12 0 0
BITMAP
0FC0
0C60
0C60
1C60
1CE0
7F80
3B80
3B80
3380
3180
71C0
F1C0
ENDCHAR
STARTCHAR 024D
ENCODING 589
SWIDTH 388 0
DWIDTH 7 0
BBX 7 8 0 0
BITMAP
76
36
3A
70
F8
60
60
E0
ENDCHAR
STARTCHAR 024E
ENCODING 590
SWIDTH 611 0
DWIDTH 11 0
BBX 11 12 2 0
BITMAP
78E0
7080
3080
FFC0
3900
3A00
1C00
1800
3800
3800
3000
7800
ENDCHAR
STARTCHAR 024F
ENCODING 591
SWIDTH 444 0
DWIDTH 8 0
BBX 10 12 -2 -4
BITMAP
08C0
1CC0
0CC0
0C80
3FC0
0D00
0D00
0E00
0C00
0800
F000
6000
ENDCHAR
STARTCHAR 0250
ENCODING 592
SWIDTH 444 0
DWIDTH 8 0
BBX 8 8 0 0
BITMAP
37
FB
33
66
78
66
E4
78
ENDCHAR
STARTCHAR 0251
ENCODING 593
SWIDTH 500 0
DWIDTH 9 0
BBX 8 8 0 0
BITMAP
1F
33
73
67
66
EE
F7
66
ENDCHAR
STARTCHAR 0252
ENCODING 594
SWIDTH 500 0
DWIDTH 9 0
BBX 9 8 0 0
BITMAP
3300
7780
3B80
3300
7300
6600
6600
F800
ENDCHAR
STARTCHAR 0253
ENCODING 595
SWIDTH 500 0
DWIDTH 9 0
BBX 9 12 0 0
BITMAP
0700
0D80
1800
3800
3700
3B00
3300
6300
6300
6600
E600
7800
ENDCHAR
STARTCHAR 0254
ENCODING 596
SWIDTH 444 0
DWIDTH 8 0
BBX 8 8 0 0
BITMAP
1E
26
07
06
06
46
CC
50
ENDCHAR
STARTCHAR 0255
ENCODING 597
SWIDTH 444 0
DWIDTH 8 0
BBX 9 9 -1 -1
BITMAP
0700
1980
3100
3000
3E00
7200
3A00
FC00
8000
ENDCHAR
STARTCHAR 0256
ENCODING 598
SWIDTH 500 0
DWIDTH 9 0
BBX 10 16 0 -4
BITMAP
01C0
0180
0180
0180
1F80
3300
7300
6700
6600
EE00
F600
6C00
0C00
0C00
0F00
0E00
ENDCHAR
STARTCHAR 0257
ENCODING 599
SWIDTH 500 0
DWIDTH 9 0
BBX 13 12 0 0
BITMAP
0070
00D8
0180
0180
1F00
3300
7300
6700
6600
EE00
F700
6600
ENDCHAR
STARTCHAR 0258
ENCODING 600
SWIDTH 444 0
DWIDTH 8 0
BBX 7 8 0 0
BITMAP
1C
36
36
36
1E
0E
9C
78
ENDCHAR
STARTCHAR 0259
ENCODING 601
SWIDTH 444 0
DWIDTH 8 0
BBX 8 8 0 0
BITMAP
1E
26
07
0E
76
CC
C8
F0
ENDCHAR
STARTCHAR 025A
ENCODING 602
SWIDTH 555 0
DWIDTH 10 0
BBX 11 8 0 0
BITMAP
1E00
6680
0780
0EE0
3600
4C00
C800
F000
ENDCHAR
STARTCHAR 025B
ENCODING 603
SWIDTH 388 0
DWIDTH 7 0
BBX 7 8 0 0
BITMAP
3E
32
20
1C
60
C0
C0
78
ENDCHAR
STARTCHAR 025C
ENCODING 604
SWIDTH 388 0
DWIDTH 7 0
BBX 7 8 0 0
BITMAP
3C
66
06
38
0C
0C
9C
78
ENDCHAR
STARTCHAR 025D
ENCODING 605
SWIDTH 555 0
DWIDTH 10 0
BBX 11 8 0 0
BITMAP
3C00
6700
07E0
39C0
0C00
0C00
9C00
7800
ENDCHAR
STARTCHAR 025E
ENCODING 606
SWIDTH 444 0
DWIDTH 8 0
BBX 8 8 0 0
BITMAP
1E
3F
41
9E
82
82
7E
3C
ENDCHAR
STARTCHAR 025F
ENCODING 607
SWIDTH 277 0
DWIDTH 5 0
BBX 8 12 -3 -4
BITMAP
0F
06
06
06
0E
0C
0C
3E
1C
18
D8
E0
ENDCHAR
STARTCHAR 0260
ENCODING 608
SWIDTH 500 0
DWIDTH 9 0
BBX 14 16 -1 -4
BITMAP
003C
006C
00C0
00C0
0FC0
1980
1980
3380
3300
7700
7B00
3700
0600
0600
CC00
7000
ENDCHAR
STARTCHAR 0261
ENCODING 609
SWIDTH 500 0
DWIDTH 9 0
BBX 9 12 -1 -4
BITMAP
0F80
1980
1980
3380
3300
7700
7B00
3600
0600
0600
CC00
7000
ENDCHAR
STARTCHAR 0262
ENCODING 610
SWIDTH 500 0
DWIDTH 9 0
BBX 9 8 0 0
BITMAP
0F80
3080
6000
6000
E780
6300
6700
3600
ENDCHAR
STARTCHAR 0263
ENCODING 611
SWIDTH 500 0
DWIDTH 9 0
BBX 8 12 1 -4
BITMAP
E1
62
62
64
68
70
70
30
70
B0
B0
E0
ENDCHAR
STARTCHAR 0264
ENCODING 612
SWIDTH 444 0
DWIDTH 8 0
BBX 7 8 1 0
BITMAP
76
38
30
30
38
F8
B0
70
ENDCHAR
STARTCHAR 0265
ENCODING 613
SWIDTH 555 0
DWIDTH 10 0
BBX 8 12 1 -4
BITMAP
63
E3
67
66
EE
D6
EE
CC
0C
0C
1C
1C
ENDCHAR
STARTCHAR 0266
ENCODING 614
SWIDTH 555 0
DWIDTH 10 0
BBX 9 12 0 0
BITMAP
0780
0D80
1800
1800
3B80
3780
3B80
3300
7300
6300
6680
E700
ENDCHAR
STARTCHAR 0267
ENCODING 615
SWIDTH 555 0
DWIDTH 10 0
BBX 9 16 0 -4
BITMAP
0780
0D80
1800
1800
3B80
3780
3B80
3300
7300
6300
6700
E600
0600
0E00
2C00
3800
ENDCHAR
STARTCHAR 0268
ENCODING 616
SWIDTH 277 0
DWIDTH 5 0
BBX 5 12 0 0
BITMAP
18
18
00
00
70
30
30
F8
60
60
F0
60
ENDCHAR
STARTCHAR 0269
ENCODING 617
SWIDTH 277 0
DWIDTH 5 0
BBX 4 8 0 0
BITMAP
70
30
30
70
60
60
F0
60
ENDCHAR
STARTCHAR 026A
ENCODING 618
SWIDTH 277 0
DWIDTH 5 0
BBX 5 8 0 0
BITMAP
38
30
30
30
70
60
60
E0
ENDCHAR
STARTCHAR 026B
ENCODING 619
SWIDTH 277 0
DWIDTH 5 0
BBX 6 12 0 0
BITMAP
3C
18
18
38
74
F8
F8
60
60
60
F0
E0
ENDCHAR
STARTCHAR 026C
ENCODING 620
SWIDTH 277 0
DWIDTH 5 0
BBX 6 12 0 0
BITMAP
3C
18
18
38
70
B0
78
60
60
60
F0
E0
ENDCHAR
STARTCHAR 026D
ENCODING 621
SWIDTH 277 0
DWIDTH 5 0
BBX 6 16 0 -4
BITMAP
3C
18
18
38
30
30
30
70
60
60
E0
C0
C0
C0
B0
E0
ENDCHAR
STARTCHAR 026E
ENCODING 622
SWIDTH 611 0
DWIDTH 11 0
BBX 11 16 0 -4
BITMAP
3C00
1800
1800
3800
3FE0
31C0
3380
6700
6E00
6300
F380
E380
0380
0300
4700
3C00
ENDCHAR
STARTCHAR 026F
ENCODING 623
SWIDTH 777 0
DWIDTH 14 0
BBX 12 8 1 0
BITMAP
6330
E730
6670
E660
CEE0
DD60
EEE0
CCE0
ENDCHAR
STARTCHAR 0270
ENCODING 624
SWIDTH 777 0
DWIDTH 14 0
BBX 12 12 1 -4
BITMAP
6330
E730
6670
E660
EEE0
DF60
EEC0
CCC0
00C0
01C0
0180
01C0
ENDCHAR
STARTCHAR 0271
ENCODING 625
SWIDTH 777 0
DWIDTH 14 0
BBX 13 12 0 -4
BITMAP
7B98
37B8
3BF8
73B0
7330
6730
6670
E660
0060
00C0
02C0
0380
ENDCHAR
STARTCHAR 0272
ENCODING 626
SWIDTH 555 0
DWIDTH 10 0
BBX 12 12 -3 -4
BITMAP
0F70
06F0
0770
0660
0E60
0C60
0CD0
1CE0
1800
1800
D000
E000
ENDCHAR
STARTCHAR 0273
ENCODING 627
SWIDTH 555 0
DWIDTH 10 0
BBX 9 12 0 -4
BITMAP
7B80
3780
3B80
3300
7300
6300
6700
E600
0600
0E00
0D80
0700
ENDCHAR
STARTCHAR 0274
ENCODING 628
SWIDTH 500 0
DWIDTH 9 0
BBX 9 8 0 0
BITMAP
3880
3880
5D00
4D00
4F00
4600
8200
8200
ENDCHAR
STARTCHAR 0275
ENCODING 629
SWIDTH 500 0
DWIDTH 9 0
BBX 8 8 0 0
BITMAP
0F
33
73
7F
63
E6
66
68
ENDCHAR
STARTCHAR 0276
ENCODING 630
SWIDTH 666 0
DWIDTH 12 0
BBX 12 8 0 0
BITMAP
0FF0
3190
73A0
63C0
E300
E300
6620
3FE0
ENDCHAR
STARTCHAR 0277
ENCODING 631
SWIDTH 722 0
DWIDTH 13 0
BBX 12 8 0 0
BITMAP
0FC0
3030
7330
6330
E630
E470
6C60
73C0
ENDCHAR
STARTCHAR 0278
ENCODING 632
SWIDTH 666 0
DWIDTH 12 0
BBX 12 16 0 -4
BITMAP
01C0
0180
0380
0300
0FC0
3360
7770
6670
E660
E6E0
6CC0
3F80
0C00
1C00
1800
1800
ENDCHAR
STARTCHAR 0279
ENCODING 633
SWIDTH 388 0
DWIDTH 7 0
BBX 7 8 0 0
BITMAP
0E
0C
0C
1C
2C
B8
D8
DC
ENDCHAR
STARTCHAR 027A
ENCODING 634
SWIDTH 388 0
DWIDTH 7 0
BBX 8 12 0 0
BITMAP
07
06
06
06
0E
0C
0C
1C
2C
B8
D8
DC
ENDCHAR
STARTCHAR 027B
ENCODING 635
SWIDTH 388 0
DWIDTH 7 0
BBX 7 12 0 -4
BITMAP
0E
0C
0C
1C
2C
B8
D8
D8
18
30
34
14
ENDCHAR
STARTCHAR 027C
ENCODING 636
SWIDTH 388 0
DWIDTH 7 0
BBX 8 12 -1 -4
BITMAP
3B
1B
1D
38
38
30
30
70
60
60
60
E0
ENDCHAR
STARTCHAR 027D
ENCODING 637
SWIDTH 388 0
DWIDTH 7 0
BBX 7 12 0 -4
BITMAP
76
36
3A
70
70
60
60
E0
C0
C0
D0
F0
ENDCHAR
STARTCHAR 027E
ENCODING 638
SWIDTH 444 0
DWIDTH 8 0
BBX 8 8 0 0
BITMAP
0E
13
30
30
60
60
60
C0
ENDCHAR
STARTCHAR 027F
ENCODING 639
SWIDTH 388 0
DWIDTH 7 0
BBX 5 12 1 -4
BITMAP
70
D8
18
18
18
30
30
30
60
60
60
E0
ENDCHAR
STARTCHAR 0280
ENCODING 640
SWIDTH 500 0
DWIDTH 9 0
BBX 8 8 0 0
BITMAP
3F
33
33
33
7C
6C
66
E6
ENDCHAR
STARTCHAR 0281
ENCODING 641
SWIDTH 500 0
DWIDTH 9 0
BBX 9 8 0 0
BITMAP
3980
3300
3700
3600
7C00
6600
6600
FC00
ENDCHAR
STARTCHAR 0282
ENCODING 642
SWIDTH 388 0
DWIDTH 7 0
BBX 8 12 -1 -4
BITMAP
1F
30
38
1C
0E
46
46
7C
C0
C0
F0
70
ENDCHAR
STARTCHAR 0283
ENCODING 643
SWIDTH 333 0
DWIDTH 6 0
BBX 12 16 -3 -4
BITMAP
0070
01B0
0380
0300
0300
0700
0600
0600
0600
0E00
0C00
0C00
0C00
1800
D800
E000
ENDCHAR
STARTCHAR 0284
ENCODING 644
SWIDTH 333 0
DWIDTH 6 0
BBX 12 16 -3 -4
BITMAP
0070
01B0
0380
0300
0300
0700
0600
0600
0600
0E00
0C00
1E00
0C00
1800
D800
F000
ENDCHAR
STARTCHAR 0285
ENCODING 645
SWIDTH 277 0
DWIDTH 5 0
BBX 5 12 0 -4
BITMAP
F0
90
38
30
30
30
70
60
60
60
58
70
ENDCHAR
STARTCHAR 0286
ENCODING 646
SWIDTH 333 0
DWIDTH 6 0
BBX 12 16 -3 -4
BITMAP
0070
01B0
0380
0300
0300
0700
0600
0600
0600
0E00
0C00
0C00
0C00
7800
9800
B000
ENDCHAR
STARTCHAR 0287
ENCODING 647
SWIDTH 277 0
DWIDTH 5 0
BBX 5 10 0 0
BITMAP
38
58
18
30
30
30
70
F0
40
80
ENDCHAR
STARTCHAR 0288
ENCODING 648
SWIDTH 277 0
DWIDTH 5 0
BBX 5 14 0 -4
BITMAP
08
18
78
30
30
60
60
60
E0
C0
C0
C0
F0
E0
ENDCHAR
STARTCHAR 0289
ENCODING 649
SWIDTH 555 0
DWIDTH 10 0
BBX 9 8 0 0
BITMAP
7980
3180
3380
FF80
6700
6F00
7680
6700
ENDCHAR
STARTCHAR 028A
ENCODING 650
SWIDTH 555 0
DWIDTH 10 0
BBX 10 8 0 0
BITMAP
39C0
1100
6180
6180
E180
E380
E300
7C00
ENDCHAR
STARTCHAR 028B
ENCODING 651
SWIDTH 500 0
DWIDTH 9 0
BBX 7 8 1 0
BITMAP
6E
6A
62
E2
C2
C4
C8
70
ENDCHAR
STARTCHAR 028C
ENCODING 652
SWIDTH 444 0
DWIDTH 8 0
BBX 7 8 0 0
BITMAP
04
0C
3C
4C
4C
8C
CC
CE
ENDCHAR
STARTCHAR 028D
ENCODING 653
SWIDTH 666 0
DWIDTH 12 0
BBX 10 8 0 0
BITMAP
0400
1C40
2CC0
4DC0
4EC0
8CC0
CCC0
C8C0
ENDCHAR
STARTCHAR 028E
ENCODING 654
SWIDTH 444 0
DWIDTH 8 0
BBX 9 12 0 0
BITMAP
0180
0380
0400
0C00
1C00
2C00
2C00
4C00
8C00
8C00
CC00
CC00
ENDCHAR
STARTCHAR 028F
ENCODING 655
SWIDTH 388 0
DWIDTH 7 0
BBX 6 8 1 0
BITMAP
E4
E4
68
70
60
60
60
E0
ENDCHAR
STARTCHAR 0290
ENCODING 656
SWIDTH 388 0
DWIDTH 7 0
BBX 7 12 0 -4
BITMAP
7E
7C
08
10
20
20
7C
FC
0C
18
1A
0E
ENDCHAR
STARTCHAR 0291
ENCODING 657
SWIDTH 388 0
DWIDTH 7 0
BBX 7 9 0 -2
BITMAP
7E
7C
08
10
2C
32
7E
FC
40
ENDCHAR
STARTCHAR 0292
ENCODING 658
SWIDTH 444 0
DWIDTH 8 0
BBX 10 12 -1 -4
BITMAP
1FC0
2380
0700
0C00
1800
0E00
0600
0600
0600
0600
0C00
F800
ENDCHAR
STARTCHAR 0293
ENCODING 659
SWIDTH 444 0
DWIDTH 8 0
BBX 10 12 -1 -4
BITMAP
1FC0
2380
0700
0C00
1C00
0600
0600
0600
7600
8E00
8C00
7800
ENDCHAR
STARTCHAR 0294
ENCODING 660
SWIDTH 388 0
DWIDTH 7 0
BBX 8 12 0 0
BITMAP
1E
33
33
03
03
06
0E
38
70
60
60
E0
ENDCHAR
STARTCHAR 0295
ENCODING 661
SWIDTH 388 0
DWIDTH 7 0
BBX 7 12 1 0
BITMAP
1E
36
66
60
C0
C0
E0
70
30
30
70
70
ENDCHAR
STARTCHAR 0296
ENCODING 662
SWIDTH 388 0
DWIDTH 7 0
BBX 7 12 0 0
BITMAP
1C
1C
18
18
1C
0E
06
06
0C
CC
D8
B0
ENDCHAR
STARTCHAR 0297
ENCODING 663
SWIDTH 444 0
DWIDTH 8 0
BBX 10 12 -1 -4
BITMAP
0F00
1C80
3840
3000
3000
7000
6000
6000
6000
E100
6200
3C00
ENDCHAR
STARTCHAR 0298
ENCODING 664
SWIDTH 722 0
DWIDTH 13 0
BBX 12 12 1 0
BITMAP
07C0
0C60
3870
7070
7670
E670
E6E0
E0E0
E0C0
E1C0
6300
3E00
ENDCHAR
STARTCHAR 0299
ENCODING 665
SWIDTH 500 0
DWIDTH 9 0
BBX 8 8 0 0
BITMAP
3F
33
33
3C
66
67
66
FC
ENDCHAR
STARTCHAR 029A
ENCODING 666
SWIDTH 444 0
DWIDTH 8 0
BBX 8 8 0 0
BITMAP
1E
7F
41
39
42
82
FC
70
ENDCHAR
STARTCHAR 029B
ENCODING 667
SWIDTH 500 0
DWIDTH 9 0
BBX 13 11 0 0
BITMAP
0030
0058
0090
0F80
3080
6000
6000
E780
6300
6700
3600
ENDCHAR
STARTCHAR 029C
ENCODING 668
SWIDTH 555 0
DWIDTH 10 0
BBX 10 8 0 0
BITMAP
39C0
3180
3180
3180
7F80
6300
6300
E700
ENDCHAR
STARTCHAR 029D
ENCODING 669
SWIDTH 277 0
DWIDTH 5 0
BBX 8 16 -3 -4
BITMAP
03
03
00
00
0F
06
06
06
0E
0C
0C
0C
1C
7C
90
E0
ENDCHAR
STARTCHAR 029E
ENCODING 670
SWIDTH 500 0
DWIDTH 9 0
BBX 9 12 0 -4
BITMAP
3380
7300
3300
1F00
1F00
1600
2600
E600
0C00
0C00
0C00
1E00
ENDCHAR
STARTCHAR 029F
ENCODING 671
SWIDTH 444 0
DWIDTH 8 0
BBX 7 8 0 0
BITMAP
38
30
30
30
60
60
62
EC
ENDCHAR
STARTCHAR 02A0
ENCODING 672
SWIDTH 500 0
DWIDTH 9 0
BBX 13 16 0 -4
BITMAP
0078
00D8
0180
0180
1D80
3300
7300
6300
6600
E600
FE00
6E00
0C00
0C00
0C00
1C00
ENDCHAR
STARTCHAR 02A1
ENCODING 673
SWIDTH 388 0
DWIDTH 7 0
BBX 8 12 0 0
BITMAP
1E
33
33
03
03
06
0E
3C
70
F8
60
E0
ENDCHAR
STARTCHAR 02A2
ENCODING 674
SWIDTH 388 0
DWIDTH 7 0
BBX 7 12 1 0
BITMAP
1E
36
66
60
C0
C0
E0
70
30
78
70
70
ENDCHAR
STARTCHAR 02A3
ENCODING 675
SWIDTH 722 0
DWIDTH 13 0
BBX 13 14 0 -2
BITMAP
01C0
0180
0180
0180
1FF8
33F0
7310
6720
6640
EE80
F680
67D8
00D8
0030
ENDCHAR
STARTCHAR 02A4
ENCODING 676
SWIDTH 833 0
DWIDTH 15 0
BBX 15 16 0 -4
BITMAP
01C0
0180
0180
0180
1FFE
330C
7338
6770
66E0
EE30
F718
6618
0038
0030
0470
03C0
ENDCHAR
STARTCHAR 02A5
ENCODING 677
SWIDTH 722 0
DWIDTH 13 0
BBX 13 12 0 -1
BITMAP
01C0
0180
0180
0180
1FF8
33F0
7310
6720
6650
EEA8
F6F8
67F0
ENDCHAR
STARTCHAR 02A6
ENCODING 678
SWIDTH 611 0
DWIDTH 11 0
BBX 10 10 0 0
BITMAP
0800
1800
7FC0
3600
7700
6380
6380
61C0
E080
6180
ENDCHAR
STARTCHAR 02A7
ENCODING 679
SWIDTH 500 0
DWIDTH 9 0
BBX 12 16 0 -4
BITMAP
0070
0190
0980
1B80
7F00
3300
7700
6700
6600
6600
EE00
FC00
0C00
0C00
5800
5000
ENDCHAR
STARTCHAR 02A8
ENCODING 680
SWIDTH 666 0
DWIDTH 12 0
BBX 12 10 0 1
BITMAP
0800
1800
78E0
3330
7620
6600
6FC0
6E40
EE40
F780
ENDCHAR
STARTCHAR 02A9
ENCODING 681
SWIDTH 777 0
DWIDTH 14 0
BBX 17 16 -3 -4
BITMAP
007000
01B000
038000
030000
0FF300
073780
067B00
067300
066700
0E6600
0CE600
0CC600
0C0C00
180C00
D86800
E07000
ENDCHAR
STARTCHAR 02AA
ENCODING 682
SWIDTH 611 0
DWIDTH 11 0
BBX 10 12 0 0
BITMAP
3800
1800
1800
3800
33C0
3640
7700
6780
6380
61C0
C080
C100
ENDCHAR
STARTCHAR 02AB
ENCODING 683
SWIDTH 500 0
DWIDTH 9 0
BBX 9 14 0 -2
BITMAP
3C00
1800
1800
3800
3F80
3F00
3200
6200
6400
6800
F800
FD80
0D80
0200
ENDCHAR
STARTCHAR 02AC
ENCODING 684
SWIDTH 500 0
DWIDTH 9 0
BBX 9 12 1 0
BITMAP
3280
3680
3E80
3700
2600
2000
4A00
CA00
5A00
7C00
4C00
0800
ENDCHAR
STARTCHAR 02AD
ENCODING 685
SWIDTH 500 0
DWIDTH 9 0
BBX 11 12 -1 0
BITMAP
1FE0
1FE0
1060
0000
0000
0000
0000
0000
7F80
7F80
4100
8000
ENDCHAR
STARTCHAR 02AE
ENCODING 686
SWIDTH 555 0
DWIDTH 10 0
BBX 10 12 -1 -4
BITMAP
70C0
D8C0
19C0
1980
3B80
3580
3B80
3300
0300
0300
0700
0700
ENDCHAR
STARTCHAR 02AF
ENCODING 687
SWIDTH 555 0
DWIDTH 10 0
BBX 10 12 -1 -4
BITMAP
70C0
D8C0
19C0
1980
3B80
3580
3B80
3300
0300
0300
03C0
0380
ENDCHAR
STARTCHAR 02B0
ENCODING 688
SWIDTH 277 0
DWIDTH 5 0
BBX 5 7 1 5
BITMAP
60
60
58
78
D0
90
90
ENDCHAR
STARTCHAR 02B1
ENCODING 689
SWIDTH 277 0
DWIDTH 5 0
BBX 5 7 1 5
BITMAP
38
60
58
78
D0
90
90
ENDCHAR
STARTCHAR 02B2
ENCODING 690
SWIDTH 166 0
DWIDTH 3 0
BBX 4 10 0 2
BITMAP
10
10
10
30
20
20
60
60
40
80
ENDCHAR
STARTCHAR 02B3
ENCODING 691
SWIDTH 222 0
DWIDTH 4 0
BBX 4 5 1 5
BITMAP
50
70
C0
80
80
ENDCHAR
STARTCHAR 02B4
ENCODING 692
SWIDTH 222 0
DWIDTH 4 0
BBX 4 5 1 5
BITMAP
30
20
20
E0
A0
ENDCHAR
STARTCHAR 02B5
ENCODING 693
SWIDTH 222 0
DWIDTH 4 0
BBX 4 7 1 3
BITMAP
30
20
20
E0
60
40
20
ENDCHAR
STARTCHAR 02B6
ENCODING 694
SWIDTH 333 0
DWIDTH 6 0
BBX 7 5 0 4
BITMAP
36
28
38
68
F0
ENDCHAR
STARTCHAR 02B7
ENCODING 695
SWIDTH 388 0
DWIDTH 7 0
BBX 7 4 1 5
BITMAP
C2
5A
7C
58
ENDCHAR
STARTCHAR 02B8
ENCODING 696
SWIDTH 277 0
DWIDTH 5 0
BBX 6 7 0 2
BITMAP
24
24
28
28
30
20
C0
ENDCHAR
STARTCHAR 02B9
ENCODING 697
SWIDTH 277 0
DWIDTH 5 0
BBX 3 5 3 6
BITMAP
60
E0
C0
80
80
ENDCHAR
STARTCHAR 02BA
ENCODING 698
SWIDTH 555 0
DWIDTH 10 0
BBX 7 6 3 6
BITMAP
66
EE
CC
CC
88
08
ENDCHAR
STARTCHAR 02BB
ENCODING 699
SWIDTH 333 0
DWIDTH 6 0
BBX 2 5 3 8
BITMAP
40
80
C0
C0
C0
ENDCHAR
STARTCHAR 02BC
ENCODING 700
SWIDTH 333 0
DWIDTH 6 0
BBX 3 5 3 6
BITMAP
60
E0
60
60
40
ENDCHAR
STARTCHAR 02BD
ENCODING 701
SWIDTH 333 0
DWIDTH 6 0
BBX 3 5 3 6
BITMAP
60
E0
E0
80
40
ENDCHAR
STARTCHAR 02BE
ENCODING 702
SWIDTH 333 0
DWIDTH 6 0
BBX 2 4 4 8
BITMAP
80
40
40
80
ENDCHAR
STARTCHAR 02BF
ENCODING 703
SWIDTH 333 0
DWIDTH 6 0
BBX 2 4 4 8
BITMAP
40
80
80
40
ENDCHAR
STARTCHAR 02C0
ENCODING 704
SWIDTH 277 0
DWIDTH 5 0
BBX 5 7 1 5
BITMAP
70
48
18
10
60
40
C0
ENDCHAR
STARTCHAR 02C1
ENCODING 705
SWIDTH 277 0
DWIDTH 5 0
BBX 4 7 2 5
BITMAP
70
D0
80
80
40
40
C0
ENDCHAR
STARTCHAR 02C2
ENCODING 706
SWIDTH 555 0
DWIDTH 10 0
BBX 9 8 1 2
BITMAP
0080
0700
1C00
7000
E000
3800
0700
0180
ENDCHAR
STARTCHAR 02C3
ENCODING 707
SWIDTH 555 0
DWIDTH 10 0
BBX 9 8 1 2
BITMAP
8000
7000
1C00
0780
0380
0E00
7000
C000
ENDCHAR
STARTCHAR 02C4
ENCODING 708
SWIDTH 555 0
DWIDTH 10 0
BBX 9 10 1 1
BITMAP
0800
0800
1C00
1400
3600
2200
2200
6100
4100
C180
ENDCHAR
STARTCHAR 02C5
ENCODING 709
SWIDTH 555 0
DWIDTH 10 0
BBX 9 10 1 1
BITMAP
8080
4100
4100
6300
2200
3600
1400
1400
0C00
0800
ENDCHAR
STARTCHAR 02C6
ENCODING 710
SWIDTH 333 0
DWIDTH 6 0
BBX 5 3 2 9
BITMAP
30
50
88
ENDCHAR
STARTCHAR 02C7
ENCODING 711
SWIDTH 333 0
DWIDTH 6 0
BBX 5 3 2 9
BITMAP
88
D0
70
ENDCHAR
STARTCHAR 02C8
ENCODING 712
SWIDTH 333 0
DWIDTH 6 0
BBX 1 1 4 10
BITMAP
80
ENDCHAR
STARTCHAR 02C9
ENCODING 713
SWIDTH 333 0
DWIDTH 6 0
BBX 6 1 2 10
BITMAP
FC
ENDCHAR
STARTCHAR 02CA
ENCODING 714
SWIDTH 333 0
DWIDTH 6 0
BBX 3 3 4 9
BITMAP
E0
C0
80
ENDCHAR
STARTCHAR 02CB
ENCODING 715
SWIDTH 333 0
DWIDTH 6 0
BBX 3 3 3 9
BITMAP
C0
40
20
ENDCHAR
STARTCHAR 02CC
ENCODING 716
SWIDTH 333 0
DWIDTH 6 0
BBX 1 3 1 -4
BITMAP
80
80
80
ENDCHAR
STARTCHAR 02CD
ENCODING 717
SWIDTH 333 0
DWIDTH 6 0
BBX 6 1 -2 -2
BITMAP
FC
ENDCHAR
STARTCHAR 02CE
ENCODING 718
SWIDTH 333 0
DWIDTH 6 0
BBX 3 3 0 -4
BITMAP
C0
60
20
ENDCHAR
STARTCHAR 02CF
ENCODING 719
SWIDTH 333 0
DWIDTH 6 0
BBX 3 3 0 -4
BITMAP
E0
C0
80
ENDCHAR
STARTCHAR 02D0
ENCODING 720
SWIDTH 333 0
DWIDTH 6 0
BBX 4 8 1 0
BITMAP
30
30
00
00
00
00
C0
C0
ENDCHAR
STARTCHAR 02D1
ENCODING 721
SWIDTH 333 0
DWIDTH 6 0
BBX 2 2 3 5
BITMAP
C0
C0
ENDCHAR
STARTCHAR 02D2
ENCODING 722
SWIDTH 333 0
DWIDTH 6 0
BBX 2 4 2 1
BITMAP
80
40
40
80
ENDCHAR
STARTCHAR 02D3
ENCODING 723
SWIDTH 333 0
DWIDTH 6 0
BBX 2 4 2 1
BITMAP
40
80
80
40
ENDCHAR
STARTCHAR 02D4
ENCODING 724
SWIDTH 333 0
DWIDTH 6 0
BBX 4 3 1 1
BITMAP
60
60
F0
ENDCHAR
STARTCHAR 02D5
ENCODING 725
SWIDTH 333 0
DWIDTH 6 0
BBX 4 3 1 1
BITMAP
F0
60
60
ENDCHAR
STARTCHAR 02D6
ENCODING 726
SWIDTH 333 0
DWIDTH 6 0
BBX 4 3 1 3
BITMAP
60
F0
60
ENDCHAR
STARTCHAR 02D7
ENCODING 727
SWIDTH 333 0
DWIDTH 6 0
BBX 6 1 0 3
BITMAP
FC
ENDCHAR
STARTCHAR 02D8
ENCODING 728
SWIDTH 333 0
DWIDTH 6 0
BBX 5 3 2 9
BITMAP
80
F8
70
ENDCHAR
STARTCHAR 02D9
ENCODING 729
SWIDTH 333 0
DWIDTH 6 0
BBX 2 2 4 9
BITMAP
C0
C0
ENDCHAR
STARTCHAR 02DA
ENCODING 730
SWIDTH 333 0
DWIDTH 6 0
BBX 4 4 3 8
BITMAP
60
90
90
60
ENDCHAR
STARTCHAR 02DB
ENCODING 731
SWIDTH 333 0
DWIDTH 6 0
BBX 3 4 0 -3
BITMAP
20
40
C0
E0
ENDCHAR
STARTCHAR 02DC
ENCODING 732
SWIDTH 333 0
DWIDTH 6 0
BBX 5 3 2 9
BITMAP
E8
F8
10
ENDCHAR
STARTCHAR 02DD
ENCODING 733
SWIDTH 333 0
DWIDTH 6 0
BBX 5 3 3 9
BITMAP
D8
90
A0
ENDCHAR
STARTCHAR 02DE
ENCODING 734
SWIDTH 333 0
DWIDTH 6 0
BBX 4 3 0 4
BITMAP
80
F0
60
ENDCHAR
STARTCHAR 02DF
ENCODING 735
SWIDTH 388 0
DWIDTH 7 0
BBX 6 6 2 6
BITMAP
04
4C
38
30
68
C4
ENDCHAR
STARTCHAR 02E0
ENCODING 736
SWIDTH 333 0
DWIDTH 6 0
BBX 6 8 1 2
BITMAP
6C
68
70
60
20
20
E0
40
ENDCHAR
STARTCHAR 02E1
ENCODING 737
SWIDTH 166 0
DWIDTH 3 0
BBX 3 7 1 5
BITMAP
60
60
40
40
C0
C0
C0
ENDCHAR
STARTCHAR 02E2
ENCODING 738
SWIDTH 222 0
DWIDTH 4 0
BBX 4 6 1 4
BITMAP
20
50
60
20
A0
C0
ENDCHAR
STARTCHAR 02E3
ENCODING 739
SWIDTH 333 0
DWIDTH 6 0
BBX 6 5 1 5
BITMAP
6C
30
30
50
98
ENDCHAR
STARTCHAR 02E4
ENCODING 740
SWIDTH 277 0
DWIDTH 5 0
BBX 4 7 2 5
BITMAP
30
50
80
80
40
40
C0
ENDCHAR
STARTCHAR 02E5
ENCODING 741
SWIDTH 388 0
DWIDTH 7 0
BBX 5 13 1 1
BITMAP
F8
18
18
18
18
18
18
18
18
18
18
18
18
ENDCHAR
STARTCHAR 02E6
ENCODING 742
SWIDTH 388 0
DWIDTH 7 0
BBX 5 13 1 0
BITMAP
18
18
18
F8
18
18
18
18
18
18
18
18
18
ENDCHAR
STARTCHAR 02E7
ENCODING 743
SWIDTH 388 0
DWIDTH 7 0
BBX 5 13 1 0
BITMAP
18
18
18
18
18
18
F8
18
18
18
18
18
18
ENDCHAR
STARTCHAR 02E8
ENCODING 744
SWIDTH 388 0
DWIDTH 7 0
BBX 5 13 1 0
BITMAP
18
18
18
18
18
18
18
18
18
F8
18
18
18
ENDCHAR
STARTCHAR 02E9
ENCODING 745
SWIDTH 388 0
DWIDTH 7 0
BBX 5 13 1 0
BITMAP
18
18
18
18
18
18
18
18
18
18
18
18
F8
ENDCHAR
STARTCHAR 02EA
ENCODING 746
SWIDTH 333 0
DWIDTH 6 0
BBX 4 8 1 0
BITMAP
80
80
80
80
80
80
80
F0
ENDCHAR
STARTCHAR 02EB
ENCODING 747
SWIDTH 333 0
DWIDTH 6 0
BBX 4 8 1 0
BITMAP
80
80
80
80
F0
80
80
80
ENDCHAR
STARTCHAR 02EC
ENCODING 748
SWIDTH 333 0
DWIDTH 6 0
BBX 5 3 -1 -4
BITMAP
88
D0
70
ENDCHAR
STARTCHAR 02ED
ENCODING 749
SWIDTH 333 0
DWIDTH 6 0
BBX 7 3 1 8
BITMAP
7E
00
FC
ENDCHAR
STARTCHAR 02EE
ENCODING 750
SWIDTH 500 0
DWIDTH 9 0
BBX 7 5 3 6
BITMAP
CC
EE
EE
44
88
ENDCHAR
STARTCHAR 02EF
ENCODING 751
SWIDTH 333 0
DWIDTH 6 0
BBX 4 3 0 -3
BITMAP
10
A0
60
ENDCHAR
STARTCHAR 02F0
ENCODING 752
SWIDTH 333 0
DWIDTH 6 0
BBX 3 3 0 -3
BITMAP
60
E0
80
ENDCHAR
STARTCHAR 02F1
ENCODING 753
SWIDTH 333 0
DWIDTH 6 0
BBX 3 4 0 -4
BITMAP
20
C0
C0
20
ENDCHAR
STARTCHAR 02F2
ENCODING 754
SWIDTH 333 0
DWIDTH 6 0
BBX 3 4 0 -4
BITMAP
80
60
60
80
ENDCHAR
STARTCHAR 02F3
ENCODING 755
SWIDTH 333 0
DWIDTH 6 0
BBX 4 4 -1 -4
BITMAP
60
90
90
70
ENDCHAR
STARTCHAR 02F4
ENCODING 756
SWIDTH 333 0
DWIDTH 6 0
BBX 3 3 1 2
BITMAP
E0
60
20
ENDCHAR
STARTCHAR 02F5
ENCODING 757
SWIDTH 333 0
DWIDTH 6 0
BBX 6 3 0 2
BITMAP
D8
4C
24
ENDCHAR
STARTCHAR 02F6
ENCODING 758
SWIDTH 333 0
DWIDTH 6 0
BBX 6 3 0 2
BITMAP
6C
58
90
ENDCHAR
STARTCHAR 02F7
ENCODING 759
SWIDTH 333 0
DWIDTH 6 0
BBX 5 3 -1 -4
BITMAP
40
F8
38
ENDCHAR
STARTCHAR 02F8
ENCODING 760
SWIDTH 333 0
DWIDTH 6 0
BBX 4 8 2 4
BITMAP
30
70
30
00
00
C0
E0
C0
ENDCHAR
STARTCHAR 02F9
ENCODING 761
SWIDTH 333 0
DWIDTH 6 0
BBX 3 3 4 9
BITMAP
E0
80
80
ENDCHAR
STARTCHAR 02FA
ENCODING 762
SWIDTH 333 0
DWIDTH 6 0
BBX 3 3 4 9
BITMAP
E0
20
20
ENDCHAR
STARTCHAR 02FB
ENCODING 763
SWIDTH 333 0
DWIDTH 6 0
BBX 3 3 0 -4
BITMAP
80
80
E0
ENDCHAR
STARTCHAR 02FC
ENCODING 764
SWIDTH 333 0
DWIDTH 6 0
BBX 3 3 0 -4
BITMAP
20
20
E0
ENDCHAR
STARTCHAR 02FD
ENCODING 765
SWIDTH 388 0
DWIDTH 7 0
BBX 7 4 -1 -4
BITMAP
C6
C6
C6
FE
ENDCHAR
STARTCHAR 02FE
ENCODING 766
SWIDTH 388 0
DWIDTH 7 0
BBX 7 4 -1 -4
BITMAP
C0
C0
C0
FE
ENDCHAR
STARTCHAR 02FF
ENCODING 767
SWIDTH 333 0
DWIDTH 6 0
BBX 5 5 -1 -4
BITMAP
20
40
F8
40
20
ENDCHAR
STARTCHAR 0300
ENCODING 768
SWIDTH 0 0
DWIDTH 0 0
BBX 3 3 -3 13
BITMAP
C0
60
20
ENDCHAR
STARTCHAR 0301
ENCODING 769
SWIDTH 0 0
DWIDTH 0 0
BBX 3 3 -1 13
BITMAP
60
C0
80
ENDCHAR
STARTCHAR 0302
ENCODING 770
SWIDTH 0 0
DWIDTH 0 0
BBX 5 3 -1 9
BITMAP
30
78
88
ENDCHAR
STARTCHAR 0303
ENCODING 771
SWIDTH 0 0
DWIDTH 0 0
BBX 6 2 -5 14
BITMAP
7C
B8
ENDCHAR
STARTCHAR 0304
ENCODING 772
SWIDTH 0 0
DWIDTH 0 0
BBX 6 1 -1 10
BITMAP
FC
ENDCHAR
STARTCHAR 0305
ENCODING 773
SWIDTH 0 0
DWIDTH 0 0
BBX 9 1 -2 12
BITMAP
FF80
ENDCHAR
STARTCHAR 0306
ENCODING 774
SWIDTH 0 0
DWIDTH 0 0
BBX 4 2 0 10
BITMAP
F0
E0
ENDCHAR
STARTCHAR 0307
ENCODING 775
SWIDTH 0 0
DWIDTH 0 0
BBX 3 2 0 9
BITMAP
60
E0
ENDCHAR
STARTCHAR 0308
ENCODING 776
SWIDTH 0 0
DWIDTH 0 0
BBX 5 2 -1 9
BITMAP
D8
D8
ENDCHAR
STARTCHAR 0309
ENCODING 777
SWIDTH 0 0
DWIDTH 0 0
BBX 4 3 -2 12
BITMAP
60
90
20
ENDCHAR
STARTCHAR 030A
ENCODING 778
SWIDTH 0 0
DWIDTH 0 0
BBX 4 4 0 8
BITMAP
60
90
90
60
ENDCHAR
STARTCHAR 030B
ENCODING 779
SWIDTH 0 0
DWIDTH 0 0
BBX 5 3 0 9
BITMAP
D8
D0
90
ENDCHAR
STARTCHAR 030C
ENCODING 780
SWIDTH 0 0
DWIDTH 0 0
BBX 5 3 -1 9
BITMAP
C8
58
70
ENDCHAR
STARTCHAR 030D
ENCODING 781
SWIDTH 0 0
DWIDTH 0 0
BBX 1 3 1 9
BITMAP
80
80
80
ENDCHAR
STARTCHAR 030E
ENCODING 782
SWIDTH 0 0
DWIDTH 0 0
BBX 3 3 0 9
BITMAP
A0
A0
A0
ENDCHAR
STARTCHAR 030F
ENCODING 783
SWIDTH 0 0
DWIDTH 0 0
BBX 6 3 -2 9
BITMAP
D8
6C
24
ENDCHAR
STARTCHAR 0310
ENCODING 784
SWIDTH 0 0
DWIDTH 0 0
BBX 4 5 0 9
BITMAP
60
60
00
F0
E0
ENDCHAR
STARTCHAR 0311
ENCODING 785
SWIDTH 0 0
DWIDTH 0 0
BBX 4 2 0 8
BITMAP
70
F0
ENDCHAR
STARTCHAR 0312
ENCODING 786
SWIDTH 0 0
DWIDTH 0 0
BBX 3 5 0 8
BITMAP
40
80
C0
E0
C0
ENDCHAR
STARTCHAR 0313
ENCODING 787
SWIDTH 0 0
DWIDTH 0 0
BBX 3 6 0 6
BITMAP
60
E0
60
60
00
80
ENDCHAR
STARTCHAR 0314
ENCODING 788
SWIDTH 0 0
DWIDTH 0 0
BBX 3 5 0 6
BITMAP
60
E0
C0
80
40
ENDCHAR
STARTCHAR 0315
ENCODING 789
SWIDTH 0 0
DWIDTH 0 0
BBX 3 5 3 6
BITMAP
E0
E0
60
40
80
ENDCHAR
STARTCHAR 0316
ENCODING 790
SWIDTH 0 0
DWIDTH 0 0
BBX 3 3 -3 -4
BITMAP
E0
60
20
ENDCHAR
STARTCHAR 0317
ENCODING 791
SWIDTH 0 0
DWIDTH 0 0
BBX 3 3 -3 -4
BITMAP
E0
C0
80
ENDCHAR
STARTCHAR 0318
ENCODING 792
SWIDTH 0 0
DWIDTH 0 0
BBX 3 3 -3 -3
BITMAP
20
E0
20
ENDCHAR
STARTCHAR 0319
ENCODING 793
SWIDTH 0 0
DWIDTH 0 0
BBX 3 3 -3 -3
BITMAP
80
E0
80
ENDCHAR
STARTCHAR 031A
ENCODING 794
SWIDTH 0 0
DWIDTH 0 0
BBX 6 4 -1 11
BITMAP
FC
04
04
04
ENDCHAR
STARTCHAR 031B
ENCODING 795
SWIDTH 0 0
DWIDTH 0 0
BBX 2 2 2 12
BITMAP
C0
C0
ENDCHAR
STARTCHAR 031C
ENCODING 796
SWIDTH 0 0
DWIDTH 0 0
BBX 2 4 -3 -4
BITMAP
40
80
80
40
ENDCHAR
STARTCHAR 031D
ENCODING 797
SWIDTH 0 0
DWIDTH 0 0
BBX 3 4 -3 -4
BITMAP
40
40
40
E0
ENDCHAR
STARTCHAR 031E
ENCODING 798
SWIDTH 0 0
DWIDTH 0 0
BBX 3 3 -3 -4
BITMAP
E0
40
40
ENDCHAR
STARTCHAR 031F
ENCODING 799
SWIDTH 0 0
DWIDTH 0 0
BBX 3 3 -3 -3
BITMAP
40
E0
40
ENDCHAR
STARTCHAR 0320
ENCODING 800
SWIDTH 0 0
DWIDTH 0 0
BBX 6 1 -5 -2
BITMAP
FC
ENDCHAR
STARTCHAR 0321
ENCODING 801
SWIDTH 0 0
DWIDTH 0 0
BBX 5 5 -3 -4
BITMAP
18
18
18
F0
A0
ENDCHAR
STARTCHAR 0322
ENCODING 802
SWIDTH 0 0
DWIDTH 0 0
BBX 4 5 0 -4
BITMAP
C0
C0
C0
B0
E0
ENDCHAR
STARTCHAR 0323
ENCODING 803
SWIDTH 0 0
DWIDTH 0 0
BBX 3 3 -10 -4
BITMAP
60
E0
60
ENDCHAR
STARTCHAR 0324
ENCODING 804
SWIDTH 0 0
DWIDTH 0 0
BBX 5 2 -4 -3
BITMAP
D8
D8
ENDCHAR
STARTCHAR 0325
ENCODING 805
SWIDTH 0 0
DWIDTH 0 0
BBX 4 4 -4 -4
BITMAP
60
90
90
70
ENDCHAR
STARTCHAR 0326
ENCODING 806
SWIDTH 0 0
DWIDTH 0 0
BBX 2 3 -3 -5
BITMAP
C0
40
40
ENDCHAR
STARTCHAR 0327
ENCODING 807
SWIDTH 0 0
DWIDTH 0 0
BBX 4 4 -4 -4
BITMAP
20
70
30
E0
ENDCHAR
STARTCHAR 0328
ENCODING 808
SWIDTH 0 0
DWIDTH 0 0
BBX 3 4 -2 -3
BITMAP
20
40
C0
E0
ENDCHAR
STARTCHAR 0329
ENCODING 809
SWIDTH 0 0
DWIDTH 0 0
BBX 1 3 -2 -4
BITMAP
80
80
80
ENDCHAR
STARTCHAR 032A
ENCODING 810
SWIDTH 0 0
DWIDTH 0 0
BBX 7 3 -5 -3
BITMAP
FE
C2
C2
ENDCHAR
STARTCHAR 032B
ENCODING 811
SWIDTH 0 0
DWIDTH 0 0
BBX 6 2 -4 -2
BITMAP
A4
58
ENDCHAR
STARTCHAR 032C
ENCODING 812
SWIDTH 0 0
DWIDTH 0 0
BBX 5 3 -4 -4
BITMAP
88
D0
70
ENDCHAR
STARTCHAR 032D
ENCODING 813
SWIDTH 0 0
DWIDTH 0 0
BBX 5 3 -5 -4
BITMAP
38
68
C8
ENDCHAR
STARTCHAR 032E
ENCODING 814
SWIDTH 0 0
DWIDTH 0 0
BBX 5 3 -4 -4
BITMAP
80
F8
70
ENDCHAR
STARTCHAR 032F
ENCODING 815
SWIDTH 0 0
DWIDTH 0 0
BBX 4 2 -4 -4
BITMAP
70
F0
ENDCHAR
STARTCHAR 0330
ENCODING 816
SWIDTH 0 0
DWIDTH 0 0
BBX 5 3 -4 -4
BITMAP
40
F8
38
ENDCHAR
STARTCHAR 0331
ENCODING 817
SWIDTH 0 0
DWIDTH 0 0
BBX 6 1 -4 -2
BITMAP
FC
ENDCHAR
STARTCHAR 0332
ENCODING 818
SWIDTH 0 0
DWIDTH 0 0
BBX 10 1 -7 -3
BITMAP
FFC0
ENDCHAR
STARTCHAR 0333
ENCODING 819
SWIDTH 0 0
DWIDTH 0 0
BBX 6 3 -4 -4
BITMAP
FC
00
FC
ENDCHAR
STARTCHAR 0334
ENCODING 820
SWIDTH 0 0
DWIDTH 0 0
BBX 5 3 -2 5
BITMAP
40
F8
38
ENDCHAR
STARTCHAR 0335
ENCODING 821
SWIDTH 0 0
DWIDTH 0 0
BBX 7 1 -3 5
BITMAP
FE
ENDCHAR
STARTCHAR 0336
ENCODING 822
SWIDTH 0 0
DWIDTH 0 0
BBX 9 1 -4 5
BITMAP
FF80
ENDCHAR
STARTCHAR 0337
ENCODING 823
SWIDTH 0 0
DWIDTH 0 0
BBX 5 6 -2 3
BITMAP
08
18
30
E0
C0
80
ENDCHAR
STARTCHAR 0338
ENCODING 824
SWIDTH 0 0
DWIDTH 0 0
BBX 9 12 -4 0
BITMAP
0180
0100
0200
0600
0400
0800
0800
1000
2000
2000
4000
C000
ENDCHAR
STARTCHAR 0339
ENCODING 825
SWIDTH 0 0
DWIDTH 0 0
BBX 1 4 -2 -4
BITMAP
80
80
80
80
ENDCHAR
STARTCHAR 033A
ENCODING 826
SWIDTH 0 0
DWIDTH 0 0
BBX 7 4 -5 -4
BITMAP
C2
C2
C2
FE
ENDCHAR
STARTCHAR 033B
ENCODING 827
SWIDTH 0 0
DWIDTH 0 0
BBX 3 3 -3 -4
BITMAP
E0
A0
E0
ENDCHAR
STARTCHAR 033C
ENCODING 828
SWIDTH 0 0
DWIDTH 0 0
BBX 5 2 -4 -3
BITMAP
D8
20
ENDCHAR
STARTCHAR 033D
ENCODING 829
SWIDTH 0 0
DWIDTH 0 0
BBX 3 4 0 9
BITMAP
A0
E0
E0
A0
ENDCHAR
STARTCHAR 033E
ENCODING 830
SWIDTH 0 0
DWIDTH 0 0
BBX 2 5 1 9
BITMAP
C0
80
C0
40
80
ENDCHAR
STARTCHAR 033F
ENCODING 831
SWIDTH 0 0
DWIDTH 0 0
BBX 9 3 -2 10
BITMAP
FF80
0000
FF80
ENDCHAR
STARTCHAR 0340
ENCODING 832
SWIDTH 0 0
DWIDTH 0 0
BBX 3 3 0 9
BITMAP
C0
40
20
ENDCHAR
STARTCHAR 0341
ENCODING 833
SWIDTH 0 0
DWIDTH 0 0
BBX 3 3 1 9
BITMAP
E0
C0
80
ENDCHAR
STARTCHAR 0342
ENCODING 834
SWIDTH 0 0
DWIDTH 0 0
BBX 6 3 -1 9
BITMAP
64
F8
90
ENDCHAR
STARTCHAR 0343
ENCODING 835
SWIDTH 0 0
DWIDTH 0 0
BBX 3 6 0 6
BITMAP
60
E0
60
60
00
80
ENDCHAR
STARTCHAR 0344
ENCODING 836
SWIDTH 0 0
DWIDTH 0 0
BBX 8 3 -2 9
BITMAP
1C
DF
F3
ENDCHAR
STARTCHAR 0345
ENCODING 837
SWIDTH 0 0
DWIDTH 0 0
BBX 2 3 -2 -4
BITMAP
80
80
C0
ENDCHAR
STARTCHAR 0346
ENCODING 838
SWIDTH 0 0
DWIDTH 0 0
BBX 6 3 -1 11
BITMAP
FC
84
84
ENDCHAR
STARTCHAR 0347
ENCODING 839
SWIDTH 0 0
DWIDTH 0 0
BBX 10 3 -7 -4
BITMAP
FFC0
0000
FFC0
ENDCHAR
STARTCHAR 0348
ENCODING 840
SWIDTH 0 0
DWIDTH 0 0
BBX 3 3 -3 -4
BITMAP
A0
A0
A0
ENDCHAR
STARTCHAR 0349
ENCODING 841
SWIDTH 0 0
DWIDTH 0 0
BBX 3 3 -3 -4
BITMAP
E0
20
20
ENDCHAR
STARTCHAR 034A
ENCODING 842
SWIDTH 0 0
DWIDTH 0 0
BBX 6 3 -1 9
BITMAP
74
F8
A0
ENDCHAR
STARTCHAR 034B
ENCODING 843
SWIDTH 0 0
DWIDTH 0 0
BBX 5 5 0 10
BITMAP
30
40
F8
10
40
ENDCHAR
STARTCHAR 034C
ENCODING 844
SWIDTH 0 0
DWIDTH 0 0
BBX 6 6 -1 9
BITMAP
20
7C
1C
64
F8
90
ENDCHAR
STARTCHAR 034D
ENCODING 845
SWIDTH 0 0
DWIDTH 0 0
BBX 4 3 -4 -3
BITMAP
80
F0
80
ENDCHAR
STARTCHAR 034E
ENCODING 846
SWIDTH 0 0
DWIDTH 0 0
BBX 2 3 -3 -3
BITMAP
C0
40
40
ENDCHAR
STARTCHAR 034F
ENCODING 847
SWIDTH 0 0
DWIDTH 0 0
BBX 13 13 -7 0
BITMAP
6318
8008
0000
0CC0
0000
1020
8008
0000
1020
0840
0480
8008
6318
ENDCHAR
STARTCHAR 0350
ENCODING 848
SWIDTH 0 0
DWIDTH 0 0
BBX 3 4 0 8
BITMAP
80
60
20
40
ENDCHAR
STARTCHAR 0351
ENCODING 849
SWIDTH 0 0
DWIDTH 0 0
BBX 3 4 0 8
BITMAP
60
80
80
20
ENDCHAR
STARTCHAR 0352
ENCODING 850
SWIDTH 0 0
DWIDTH 0 0
BBX 5 5 0 9
BITMAP
20
F0
88
60
60
ENDCHAR
STARTCHAR 0353
ENCODING 851
SWIDTH 0 0
DWIDTH 0 0
BBX 4 4 -3 -4
BITMAP
90
60
E0
80
ENDCHAR
STARTCHAR 0354
ENCODING 852
SWIDTH 0 0
DWIDTH 0 0
BBX 2 4 -2 -4
BITMAP
40
80
80
40
ENDCHAR
STARTCHAR 0355
ENCODING 853
SWIDTH 0 0
DWIDTH 0 0
BBX 2 2 -2 -3
BITMAP
40
C0
ENDCHAR
STARTCHAR 0356
ENCODING 854
SWIDTH 0 0
DWIDTH 0 0
BBX 6 3 -4 -3
BITMAP
98
58
E4
ENDCHAR
STARTCHAR 0357
ENCODING 855
SWIDTH 0 0
DWIDTH 0 0
BBX 1 4 1 8
BITMAP
80
80
80
80
ENDCHAR
STARTCHAR 0358
ENCODING 856
SWIDTH 0 0
DWIDTH 0 0
BBX 1 1 4 10
BITMAP
80
ENDCHAR
STARTCHAR 0359
ENCODING 857
SWIDTH 0 0
DWIDTH 0 0
BBX 3 3 -3 -5
BITMAP
40
E0
20
ENDCHAR
STARTCHAR 035A
ENCODING 858
SWIDTH 0 0
DWIDTH 0 0
BBX 7 4 -5 -4
BITMAP
6C
92
92
7C
ENDCHAR
STARTCHAR 035B
ENCODING 859
SWIDTH 0 0
DWIDTH 0 0
BBX 3 3 1 9
BITMAP
80
80
E0
ENDCHAR
STARTCHAR 035C
ENCODING 860
SWIDTH 0 0
DWIDTH 0 0
BBX 11 3 0 -4
BITMAP
8020
7FC0
1F00
ENDCHAR
STARTCHAR 035D
ENCODING 861
SWIDTH 0 0
DWIDTH 0 0
BBX 11 3 1 9
BITMAP
8020
7FC0
1F00
ENDCHAR
STARTCHAR 035E
ENCODING 862
SWIDTH 0 0
DWIDTH 0 0
BBX 12 1 1 10
BITMAP
FFF0
ENDCHAR
STARTCHAR 035F
ENCODING 863
SWIDTH 0 0
DWIDTH 0 0
BBX 12 1 -4 -2
BITMAP
FFF0
ENDCHAR
STARTCHAR 0360
ENCODING 864
SWIDTH 0 0
DWIDTH 0 0
BBX 12 2 1 9
BITMAP
7C10
FFE0
ENDCHAR
STARTCHAR 0361
ENCODING 865
SWIDTH 0 0
DWIDTH 0 0
BBX 11 3 1 8
BITMAP
1F00
7FC0
8020
ENDCHAR
STARTCHAR 0362
ENCODING 866
SWIDTH 0 0
DWIDTH 0 0
BBX 10 2 -4 -2
BITMAP
FFC0
0040
ENDCHAR
STARTCHAR 0363
ENCODING 867
SWIDTH 0 0
DWIDTH 0 0
BBX 5 5 -1 5
BITMAP
38
D0
B0
B0
F0
ENDCHAR
STARTCHAR 0364
ENCODING 868
SWIDTH 0 0
DWIDTH 0 0
BBX 4 5 -1 4
BITMAP
30
50
A0
D0
E0
ENDCHAR
STARTCHAR 0365
ENCODING 869
SWIDTH 0 0
DWIDTH 0 0
BBX 2 7 0 5
BITMAP
40
00
C0
C0
80
80
80
ENDCHAR
STARTCHAR 0366
ENCODING 870
SWIDTH 0 0
DWIDTH 0 0
BBX 5 6 -2 4
BITMAP
10
68
48
D8
D0
20
ENDCHAR
STARTCHAR 0367
ENCODING 871
SWIDTH 0 0
DWIDTH 0 0
BBX 5 5 -2 6
BITMAP
68
48
58
F8
D8
ENDCHAR
STARTCHAR 0368
ENCODING 872
SWIDTH 0 0
DWIDTH 0 0
BBX 4 5 -1 5
BITMAP
20
50
80
80
E0
ENDCHAR
STARTCHAR 0369
ENCODING 873
SWIDTH 0 0
DWIDTH 0 0
BBX 5 7 -1 5
BITMAP
18
18
30
D0
B0
A0
F0
ENDCHAR
STARTCHAR 036A
ENCODING 874
SWIDTH 0 0
DWIDTH 0 0
BBX 5 7 -2 5
BITMAP
60
20
68
78
58
D8
98
ENDCHAR
STARTCHAR 036B
ENCODING 875
SWIDTH 0 0
DWIDTH 0 0
BBX 7 5 -3 5
BITMAP
DA
7E
DA
D6
B6
ENDCHAR
STARTCHAR 036C
ENCODING 876
SWIDTH 0 0
DWIDTH 0 0
BBX 4 5 -1 5
BITMAP
50
70
C0
C0
80
ENDCHAR
STARTCHAR 036D
ENCODING 877
SWIDTH 0 0
DWIDTH 0 0
BBX 3 5 0 7
BITMAP
E0
C0
80
80
80
ENDCHAR
STARTCHAR 036E
ENCODING 878
SWIDTH 0 0
DWIDTH 0 0
BBX 4 5 -1 5
BITMAP
D0
50
50
60
40
ENDCHAR
STARTCHAR 036F
ENCODING 879
SWIDTH 0 0
DWIDTH 0 0
BBX 6 5 -2 5
BITMAP
6C
30
20
30
D8
ENDCHAR
STARTCHAR 0370
ENCODING 880
SWIDTH 555 0
DWIDTH 10 0
BBX 10 12 0 0
BITMAP
1F00
0E00
0C00
1C00
1C00
1C00
3FC0
3800
3800
3000
7000
F000
ENDCHAR
STARTCHAR 0371
ENCODING 881
SWIDTH 444 0
DWIDTH 8 0
BBX 6 8 1 0
BITMAP
60
60
60
7C
E0
C0
C0
C0
ENDCHAR
STARTCHAR 0372
ENCODING 882
SWIDTH 611 0
DWIDTH 11 0
BBX 12 12 1 0
BITMAP
7FF0
6770
6660
EE60
0E00
0E00
0C00
1C00
1C00
1800
3800
7800
ENDCHAR
STARTCHAR 0373
ENCODING 883
SWIDTH 500 0
DWIDTH 9 0
BBX 9 12 2 0
BITMAP
7F80
DD80
5980
1800
1800
3800
3000
3000
7000
6000
6000
E000
ENDCHAR
STARTCHAR 0374
ENCODING 884
SWIDTH 333 0
DWIDTH 6 0
BBX 3 3 4 9
BITMAP
E0
C0
80
ENDCHAR
STARTCHAR 0375
ENCODING 885
SWIDTH 333 0
DWIDTH 6 0
BBX 3 3 -1 -4
BITMAP
20
60
C0
ENDCHAR
STARTCHAR 0376
ENCODING 886
SWIDTH 777 0
DWIDTH 14 0
BBX 13 12 1 0
BITMAP
3E08
1C18
1830
3870
38F0
3360
74E0
78E0
70E0
E0C0
C1C0
83C0
ENDCHAR
STARTCHAR 0377
ENCODING 887
SWIDTH 666 0
DWIDTH 12 0
BBX 9 8 1 0
BITMAP
7880
7180
6380
6F00
7300
E700
C600
8F00
ENDCHAR
STARTCHAR 037A
ENCODING 890
SWIDTH 333 0
DWIDTH 6 0
BBX 3 3 0 -4
BITMAP
40
C0
E0
ENDCHAR
STARTCHAR 037B
ENCODING 891
SWIDTH 444 0
DWIDTH 8 0
BBX 7 8 1 0
BITMAP
3C
CC
0E
0C
0C
0C
18
E0
ENDCHAR
STARTCHAR 037C
ENCODING 892
SWIDTH 444 0
DWIDTH 8 0
BBX 7 8 0 0
BITMAP
0E
30
64
6E
6C
E0
60
7C
ENDCHAR
STARTCHAR 037D
ENCODING 893
SWIDTH 444 0
DWIDTH 8 0
BBX 7 8 1 0
BITMAP
3C
CC
0E
CC
EC
4C
18
E0
ENDCHAR
STARTCHAR 037E
ENCODING 894
SWIDTH 333 0
DWIDTH 6 0
BBX 5 11 0 -3
BITMAP
18
38
18
00
00
00
70
70
20
40
80
ENDCHAR
STARTCHAR 037F
ENCODING 895
SWIDTH 500 0
DWIDTH 9 0
BBX 10 12 0 0
BITMAP
03C0
0380
0380
0300
0700
0700
0600
0E00
0E00
CC00
DC00
F000
ENDCHAR
STARTCHAR 0384
ENCODING 900
SWIDTH 333 0
DWIDTH 6 0
BBX 3 3 4 9
BITMAP
E0
C0
80
ENDCHAR
STARTCHAR 0385
ENCODING 901
SWIDTH 333 0
DWIDTH 6 0
BBX 8 3 1 9
BITMAP
1C
DF
F3
ENDCHAR
STARTCHAR 0386
ENCODING 902
SWIDTH 666 0
DWIDTH 12 0
BBX 11 12 -1 0
BITMAP
0320
0660
0460
00E0
01E0
02E0
04E0
0FE0
10E0
20E0
20E0
E1E0
ENDCHAR
STARTCHAR 0387
ENCODING 903
SWIDTH 333 0
DWIDTH 6 0
BBX 3 3 2 5
BITMAP
60
E0
60
ENDCHAR
STARTCHAR 0388
ENCODING 904
SWIDTH 777 0
DWIDTH 14 0
BBX 13 12 1 0
BITMAP
EFF8
C708
8608
0E00
0E20
0FC0
1C40
1C40
1C00
1800
3860
7FE0
ENDCHAR
STARTCHAR 0389
ENCODING 905
SWIDTH 888 0
DWIDTH 16 0
BBX 16 12 1 0
BITMAP
EF9F
C70E
860C
0E1C
0E1C
0E18
0FF8
1C38
1C38
1830
3870
78F0
ENDCHAR
STARTCHAR 038A
ENCODING 906
SWIDTH 500 0
DWIDTH 9 0
BBX 9 12 1 0
BITMAP
E780
C700
8600
0E00
0E00
0E00
0C00
1C00
1C00
1800
3800
7800
ENDCHAR
STARTCHAR 038C
ENCODING 908
SWIDTH 722 0
DWIDTH 13 0
BBX 12 12 1 0
BITMAP
E3C0
CC60
9870
3070
7070
7070
E070
E0E0
E0C0
E1C0
6380
3E00
ENDCHAR
STARTCHAR 038E
ENCODING 910
SWIDTH 777 0
DWIDTH 14 0
BBX 14 12 1 0
BITMAP
EF9C
C708
8710
0320
0320
03C0
0380
0380
0300
0700
0700
0F00
ENDCHAR
STARTCHAR 038F
ENCODING 911
SWIDTH 777 0
DWIDTH 14 0
BBX 13 12 1 0
BITMAP
E7E0
CC30
9838
3838
3038
7038
7070
3060
38C0
8B10
FBE0
FBE0
ENDCHAR
STARTCHAR 0390
ENCODING 912
SWIDTH 277 0
DWIDTH 5 0
BBX 8 12 0 0
BITMAP
1C
DB
D3
00
70
30
30
70
60
60
F0
60
ENDCHAR
STARTCHAR 0391
ENCODING 913
SWIDTH 666 0
DWIDTH 12 0
BBX 10 12 0 0
BITMAP
0040
00C0
00C0
01C0
03C0
05C0
09C0
1FC0
21C0
41C0
41C0
C1C0
ENDCHAR
STARTCHAR 0392
ENCODING 914
SWIDTH 666 0
DWIDTH 12 0
BBX 11 12 1 0
BITMAP
3FC0
1CC0
18E0
38C0
3980
3E00
3380
7180
71C0
6180
E380
FF00
ENDCHAR
STARTCHAR 0393
ENCODING 915
SWIDTH 611 0
DWIDTH 11 0
BBX 12 12 0 0
BITMAP
1FF0
0E10
0C10
1C00
1C00
1800
3800
3800
3800
3000
7000
F000
ENDCHAR
STARTCHAR 0394
ENCODING 916
SWIDTH 611 0
DWIDTH 11 0
BBX 10 12 0 0
BITMAP
0040
00C0
0180
0380
0580
0580
0980
1380
2380
4380
8380
FF80
ENDCHAR
STARTCHAR 0395
ENCODING 917
SWIDTH 666 0
DWIDTH 12 0
BBX 12 12 0 0
BITMAP
1FF0
0E10
0C10
1C00
1C40
1F80
3880
3880
3800
3000
70C0
FFC0
ENDCHAR
STARTCHAR 0396
ENCODING 918
SWIDTH 611 0
DWIDTH 11 0
BBX 12 12 0 0
BITMAP
1FF0
10E0
21C0
03C0
0780
0700
0E00
1C00
3800
7840
F080
FF80
ENDCHAR
STARTCHAR 0397
ENCODING 919
SWIDTH 777 0
DWIDTH 14 0
BBX 15 12 0 0
BITMAP
1F3E
0E1C
0C18
1C38
1C38
1C30
3FF0
3870
3870
3060
70E0
F1E0
ENDCHAR
STARTCHAR 0398
ENCODING 920
SWIDTH 777 0
DWIDTH 14 0
BBX 13 12 1 0
BITMAP
03C0
0C70
3830
3030
70B8
EF70
EF70
E170
E0E0
E0C0
6180
3E00
ENDCHAR
STARTCHAR 0399
ENCODING 921
SWIDTH 388 0
DWIDTH 7 0
BBX 8 12 0 0
BITMAP
1F
0E
0C
1C
1C
18
38
38
38
30
70
F0
ENDCHAR
STARTCHAR 039A
ENCODING 922
SWIDTH 666 0
DWIDTH 12 0
BBX 11 12 1 0
BITMAP
3CE0
1C40
1880
3B00
3E00
3E00
7600
7700
7700
6300
E380
E7C0
ENDCHAR
STARTCHAR 039B
ENCODING 923
SWIDTH 666 0
DWIDTH 12 0
BBX 11 12 -1 0
BITMAP
0020
0060
00E0
00E0
01E0
02E0
04E0
08E0
10E0
20E0
60E0
E1E0
ENDCHAR
STARTCHAR 039C
ENCODING 924
SWIDTH 888 0
DWIDTH 16 0
BBX 17 12 0 0
BITMAP
1E0780
0E0F00
161600
161E00
162E00
264C00
265C00
279C00
271C00
471800
463800
E07800
ENDCHAR
STARTCHAR 039D
ENCODING 925
SWIDTH 722 0
DWIDTH 13 0
BBX 14 12 0 0
BITMAP
1E1C
0E08
1710
1710
1390
2390
21A0
21E0
20E0
40C0
4040
E040
ENDCHAR
STARTCHAR 039E
ENCODING 926
SWIDTH 666 0
DWIDTH 12 0
BBX 13 12 0 0
BITMAP
1FF8
1FF0
2010
2010
0840
0F80
1F80
1080
0020
8040
FFC0
FFC0
ENDCHAR
STARTCHAR 039F
ENCODING 927
SWIDTH 722 0
DWIDTH 13 0
BBX 12 12 1 0
BITMAP
07C0
0C60
3870
3070
7070
E070
E0E0
E0E0
E0C0
E180
6300
3E00
ENDCHAR
STARTCHAR 03A0
ENCODING 928
SWIDTH 777 0
DWIDTH 14 0
BBX 15 12 0 0
BITMAP
1FFE
0E1C
0C18
1C38
1C38
1830
3870
3870
3870
3060
70E0
F1E0
ENDCHAR
STARTCHAR 03A1
ENCODING 929
SWIDTH 611 0
DWIDTH 11 0
BBX 11 12 1 0
BITMAP
3F80
1CC0
18E0
38E0
39C0
3180
3F00
7000
7000
6000
E000
E000
ENDCHAR
STARTCHAR 03A3
ENCODING 931
SWIDTH 611 0
DWIDTH 11 0
BBX 13 12 -1 0
BITMAP
0FF8
0E08
0608
0700
0300
0300
0200
0400
0800
3020
7FC0
FFC0
ENDCHAR
STARTCHAR 03A4
ENCODING 932
SWIDTH 611 0
DWIDTH 11 0
BBX 10 12 2 0
BITMAP
7FC0
CE40
8C40
1C00
1C00
1C00
1800
3800
3800
3000
7000
F000
ENDCHAR
STARTCHAR 03A5
ENCODING 933
SWIDTH 611 0
DWIDTH 11 0
BBX 9 12 3 0
BITMAP
F180
6100
6100
7200
7400
3800
3800
3000
7000
7000
6000
F000
ENDCHAR
STARTCHAR 03A6
ENCODING 934
SWIDTH 777 0
DWIDTH 14 0
BBX 13 12 1 0
BITMAP
07C0
0380
0FE0
33B0
6338
E738
E738
E630
6E60
3FC0
0C00
1E00
ENDCHAR
STARTCHAR 03A7
ENCODING 935
SWIDTH 666 0
DWIDTH 12 0
BBX 14 12 -1 0
BITMAP
1E1C
0E18
0710
0720
0340
0380
0380
05C0
09C0
10C0
20E0
E0F0
ENDCHAR
STARTCHAR 03A8
ENCODING 936
SWIDTH 777 0
DWIDTH 14 0
BBX 13 12 2 0
BITMAP
6F98
6738
E738
E770
E670
6E60
2FC0
1C00
1C00
1C00
1800
3C00
ENDCHAR
STARTCHAR 03A9
ENCODING 937
SWIDTH 722 0
DWIDTH 13 0
BBX 13 12 0 0
BITMAP
03E0
0C30
1C38
3838
3838
3838
3030
3870
18C0
0510
F9F0
FBE0
ENDCHAR
STARTCHAR 03AA
ENCODING 938
SWIDTH 388 0
DWIDTH 7 0
BBX 9 15 0 0
BITMAP
1980
1D80
0000
1F00
0E00
0C00
1C00
1C00
1800
3800
3800
3800
3000
7000
F000
ENDCHAR
STARTCHAR 03AB
ENCODING 939
SWIDTH 611 0
DWIDTH 11 0
BBX 9 15 3 0
BITMAP
1B00
1B00
0000
F180
6100
6100
7200
7400
3800
3800
3000
7000
7000
6000
F000
ENDCHAR
STARTCHAR 03AC
ENCODING 940
SWIDTH 555 0
DWIDTH 10 0
BBX 9 12 0 0
BITMAP
0380
0300
0200
0000
0D80
3380
7380
6300
E700
C600
4D80
7980
ENDCHAR
STARTCHAR 03AD
ENCODING 941
SWIDTH 388 0
DWIDTH 7 0
BBX 7 12 0 0
BITMAP
06
04
0C
00
3E
32
20
1C
60
E4
C4
78
ENDCHAR
STARTCHAR 03AE
ENCODING 942
SWIDTH 555 0
DWIDTH 10 0
BBX 8 16 1 -4
BITMAP
07
06
04
00
63
77
7B
77
E6
C6
CE
CC
0C
1C
1C
18
ENDCHAR
STARTCHAR 03AF
ENCODING 943
SWIDTH 277 0
DWIDTH 5 0
BBX 6 12 0 0
BITMAP
0C
18
10
00
70
30
30
70
60
60
F0
60
ENDCHAR
STARTCHAR 03B0
ENCODING 944
SWIDTH 500 0
DWIDTH 9 0
BBX 9 12 1 0
BITMAP
0E00
6D80
6980
0000
6400
6200
6200
6200
C600
C400
CC00
7800
ENDCHAR
STARTCHAR 03B1
ENCODING 945
SWIDTH 555 0
DWIDTH 10 0
BBX 9 8 0 0
BITMAP
0D80
3380
7380
6300
E700
C600
4D80
7980
ENDCHAR
STARTCHAR 03B2
ENCODING 946
SWIDTH 500 0
DWIDTH 9 0
BBX 11 16 -1 -4
BITMAP
03C0
0640
0CE0
0CC0
1CC0
1B00
1980
3980
3180
3380
3300
6E00
6000
6000
E000
C000
ENDCHAR
STARTCHAR 03B3
ENCODING 947
SWIDTH 388 0
DWIDTH 7 0
BBX 6 12 1 -4
BITMAP
CC
EC
2C
2C
28
30
30
20
40
C0
C0
C0
ENDCHAR
STARTCHAR 03B4
ENCODING 948
SWIDTH 500 0
DWIDTH 9 0
BBX 9 12 0 0
BITMAP
0700
0980
0C00
0600
0300
1F00
3300
6300
E300
E700
E600
7800
ENDCHAR
STARTCHAR 03B5
ENCODING 949
SWIDTH 388 0
DWIDTH 7 0
BBX 7 8 0 0
BITMAP
3E
32
20
1C
60
E4
C4
78
ENDCHAR
STARTCHAR 03B6
ENCODING 950
SWIDTH 444 0
DWIDTH 8 0
BBX 10 15 0 -3
BITMAP
0400
08C0
0F80
0400
0800
1000
2000
6000
4000
C000
E000
FC00
7E00
0200
3C00
ENDCHAR
STARTCHAR 03B7
ENCODING 951
SWIDTH 555 0
DWIDTH 10 0
BBX 8 12 1 -4
BITMAP
63
77
7B
77
E6
C6
CE
CC
0C
1C
1C
18
ENDCHAR
STARTCHAR 03B8
ENCODING 952
SWIDTH 500 0
DWIDTH 9 0
BBX 9 12 1 0
BITMAP
0E00
1100
3180
6380
6300
FF00
C700
C600
C600
CC00
C800
7000
ENDCHAR
STARTCHAR 03B9
ENCODING 953
SWIDTH 277 0
DWIDTH 5 0
BBX 4 8 0 0
BITMAP
70
30
30
70
60
60
F0
60
ENDCHAR
STARTCHAR 03BA
ENCODING 954
SWIDTH 555 0
DWIDTH 10 0
BBX 10 8 0 0
BITMAP
78C0
31C0
3600
3C00
7E00
6600
6600
E700
ENDCHAR
STARTCHAR 03BB
ENCODING 955
SWIDTH 444 0
DWIDTH 8 0
BBX 8 12 -1 0
BITMAP
06
0E
02
02
02
06
0E
0E
1C
3C
72
E3
ENDCHAR
STARTCHAR 03BC
ENCODING 956
SWIDTH 555 0
DWIDTH 10 0
BBX 10 12 -1 -4
BITMAP
1CC0
18C0
19C0
1980
3980
3780
3FC0
7380
4000
4000
C000
C000
ENDCHAR
STARTCHAR 03BD
ENCODING 957
SWIDTH 444 0
DWIDTH 8 0
BBX 7 8 1 0
BITMAP
E6
66
62
64
68
70
60
40
ENDCHAR
STARTCHAR 03BE
ENCODING 958
SWIDTH 444 0
DWIDTH 8 0
BBX 9 15 0 -4
BITMAP
0980
0B80
0C00
0800
0F00
1700
2000
4000
C000
E000
7C00
7E00
0200
0400
1C00
ENDCHAR
STARTCHAR 03BF
ENCODING 959
SWIDTH 500 0
DWIDTH 9 0
BBX 8 8 0 0
BITMAP
0E
33
73
63
63
E6
66
68
ENDCHAR
STARTCHAR 03C0
ENCODING 960
SWIDTH 555 0
DWIDTH 10 0
BBX 10 8 0 0
BITMAP
3FC0
7FC0
9300
1300
3600
6600
E680
C700
ENDCHAR
STARTCHAR 03C1
ENCODING 961
SWIDTH 500 0
DWIDTH 9 0
BBX 10 12 -1 -4
BITMAP
0F00
1980
19C0
3980
3180
3380
7300
7E00
6000
E000
C000
C000
ENDCHAR
STARTCHAR 03C2
ENCODING 962
SWIDTH 444 0
DWIDTH 8 0
BBX 8 10 0 -3
BITMAP
1F
23
40
40
80
40
7C
3E
02
1C
ENDCHAR
STARTCHAR 03C3
ENCODING 963
SWIDTH 555 0
DWIDTH 10 0
BBX 9 8 1 0
BITMAP
1F80
7F80
E400
C600
C600
8600
8C00
7800
ENDCHAR
STARTCHAR 03C4
ENCODING 964
SWIDTH 444 0
DWIDTH 8 0
BBX 8 8 0 0
BITMAP
3F
7F
98
18
10
30
3C
38
ENDCHAR
STARTCHAR 03C5
ENCODING 965
SWIDTH 500 0
DWIDTH 9 0
BBX 7 8 1 0
BITMAP
64
62
62
62
C6
C4
CC
78
ENDCHAR
STARTCHAR 03C6
ENCODING 966
SWIDTH 611 0
DWIDTH 11 0
BBX 9 12 1 -4
BITMAP
3700
6D80
C980
C980
DB00
D300
9600
7C00
2000
2000
2000
6000
ENDCHAR
STARTCHAR 03C7
ENCODING 967
SWIDTH 444 0
DWIDTH 8 0
BBX 10 12 -1 -4
BITMAP
31C0
0980
0B00
0F00
0600
0C00
1C00
1800
3800
7400
E500
C700
ENDCHAR
STARTCHAR 03C8
ENCODING 968
SWIDTH 666 0
DWIDTH 12 0
BBX 12 12 1 -4
BITMAP
C470
64C0
6CC0
EDC0
C980
C980
DB00
3E00
1000
3000
3000
2000
ENDCHAR
STARTCHAR 03C9
ENCODING 969
SWIDTH 722 0
DWIDTH 13 0
BBX 11 8 1 0
BITMAP
3840
6660
E660
C660
C460
C8E0
C8C0
F780
ENDCHAR
STARTCHAR 03CA
ENCODING 970
SWIDTH 277 0
DWIDTH 5 0
BBX 7 11 0 1
BITMAP
6E
64
00
70
30
30
70
60
60
F0
60
ENDCHAR
STARTCHAR 03CB
ENCODING 971
SWIDTH 500 0
DWIDTH 9 0
BBX 7 11 1 1
BITMAP
36
36
00
64
62
62
62
C6
C4
CC
78
ENDCHAR
STARTCHAR 03CC
ENCODING 972
SWIDTH 500 0
DWIDTH 9 0
BBX 8 12 0 0
BITMAP
03
02
04
00
0E
33
73
63
63
E6
66
68
ENDCHAR
STARTCHAR 03CD
ENCODING 973
SWIDTH 500 0
DWIDTH 9 0
BBX 7 12 1 0
BITMAP
06
0C
08
00
64
62
62
62
C6
C4
CC
78
ENDCHAR
STARTCHAR 03CE
ENCODING 974
SWIDTH 722 0
DWIDTH 13 0
BBX 11 12 1 0
BITMAP
0180
0100
0200
0000
3840
6660
E660
C660
C460
C8E0
C8C0
F780
ENDCHAR
STARTCHAR 03CF
ENCODING 975
SWIDTH 722 0
DWIDTH 13 0
BBX 12 15 0 -4
BITMAP
1E70
0E20
0C40
1D80
1F00
1F00
3B80
3980
39C0
30E0
70E0
70F0
87E0
0380
0300
ENDCHAR
STARTCHAR 03D0
ENCODING 976
SWIDTH 500 0
DWIDTH 9 0
BBX 8 12 1 0
BITMAP
0F
11
3E
40
9C
E6
E6
C6
C6
CE
CC
70
ENDCHAR
STARTCHAR 03D1
ENCODING 977
SWIDTH 555 0
DWIDTH 10 0
BBX 10 12 0 0
BITMAP
0780
1980
19C0
19C0
1180
1180
0FC0
C7C0
6300
E700
E600
7800
ENDCHAR
STARTCHAR 03D2
ENCODING 978
SWIDTH 722 0
DWIDTH 13 0
BBX 12 12 3 0
BITMAP
C070
70B0
3320
3A00
3C00
3800
3800
3800
3000
7000
7000
F000
ENDCHAR
STARTCHAR 03D3
ENCODING 979
SWIDTH 833 0
DWIDTH 15 0
BBX 17 12 0 0
BITMAP
660380
438580
81C900
01D000
01E000
01C000
01C000
01C000
018000
038000
038000
078000
ENDCHAR
STARTCHAR 03D4
ENCODING 980
SWIDTH 722 0
DWIDTH 13 0
BBX 12 15 3 1
BITMAP
1B00
1B00
0000
C070
70B0
3320
3A00
3C00
3800
3800
3800
3000
7000
7000
F000
ENDCHAR
STARTCHAR 03D5
ENCODING 981
SWIDTH 555 0
DWIDTH 10 0
BBX 10 16 0 -4
BITMAP
0100
0300
0200
0200
0F80
36C0
64C0
64C0
6DC0
E980
6B00
3E00
1800
1000
1000
3000
ENDCHAR
STARTCHAR 03D6
ENCODING 982
SWIDTH 777 0
DWIDTH 14 0
BBX 14 8 0 0
BITMAP
3FFC
7FFC
B018
7318
6338
6230
6670
39C0
ENDCHAR
STARTCHAR 03D7
ENCODING 983
SWIDTH 555 0
DWIDTH 10 0
BBX 10 12 0 -4
BITMAP
30C0
59C0
1380
1F00
3E00
7A00
E280
C380
0180
0100
0F00
0A00
ENDCHAR
STARTCHAR 03D8
ENCODING 984
SWIDTH 722 0
DWIDTH 13 0
BBX 12 16 1 -4
BITMAP
07C0
0C60
3870
3070
7070
F070
E060
E0E0
E0E0
E1C0
6180
7700
1800
3800
3800
7800
ENDCHAR
STARTCHAR 03D9
ENCODING 985
SWIDTH 500 0
DWIDTH 9 0
BBX 8 12 0 -4
BITMAP
0F
33
33
63
63
E7
E6
6C
30
30
70
70
ENDCHAR
STARTCHAR 03DA
ENCODING 986
SWIDTH 666 0
DWIDTH 12 0
BBX 11 12 1 0
BITMAP
07C0
1C20
3800
7000
7000
E000
E000
6000
7000
3E00
0E00
1E00
ENDCHAR
STARTCHAR 03DB
ENCODING 987
SWIDTH 444 0
DWIDTH 8 0
BBX 9 12 0 -3
BITMAP
0F80
3F00
2000
4000
8000
C000
7C00
7C00
0400
0400
0800
7000
ENDCHAR
STARTCHAR 03DC
ENCODING 988
SWIDTH 666 0
DWIDTH 12 0
BBX 12 12 1 0
BITMAP
1FF0
1C30
1C00
1C00
1800
3F80
3900
3000
7000
7000
7000
F000
ENDCHAR
STARTCHAR 03DD
ENCODING 989
SWIDTH 444 0
DWIDTH 8 0
BBX 10 12 -1 -4
BITMAP
3FC0
1840
3800
3000
3200
3E00
7400
6000
6000
E000
C000
C000
ENDCHAR
STARTCHAR 03DE
ENCODING 990
SWIDTH 500 0
DWIDTH 9 0
BBX 10 12 0 0
BITMAP
3000
0800
1040
1180
2780
2F80
3F00
7900
6200
8200
0200
0300
ENDCHAR
STARTCHAR 03DF
ENCODING 991
SWIDTH 444 0
DWIDTH 8 0
BBX 9 12 0 0
BITMAP
0800
0800
1000
2000
2000
7F80
FF00
0200
0200
0400
0800
0800
ENDCHAR
STARTCHAR 03E0
ENCODING 992
SWIDTH 722 0
DWIDTH 13 0
BBX 11 16 2 -4
BITMAP
3E00
EF80
23C0
21C0
62E0
44E0
0CE0
1CE0
18C0
18C0
18C0
3180
0180
0100
0200
0400
ENDCHAR
STARTCHAR 03E1
ENCODING 993
SWIDTH 500 0
DWIDTH 9 0
BBX 7 12 2 -4
BITMAP
E0
18
0C
0E
36
06
0E
76
06
04
04
08
ENDCHAR
STARTCHAR 03E2
ENCODING 994
SWIDTH 833 0
DWIDTH 15 0
BBX 16 16 0 -4
BITMAP
1EE7
1CE6
1CCE
19CE
39CC
39CC
399C
339C
77B8
7B78
77B8
7330
0070
0070
7060
8FC0
ENDCHAR
STARTCHAR 03E3
ENCODING 995
SWIDTH 777 0
DWIDTH 14 0
BBX 14 12 -1 -4
BITMAP
18CC
39CC
199C
3998
33B8
3758
3BB8
3330
0030
0070
7860
C7C0
ENDCHAR
STARTCHAR 03E4
ENCODING 996
SWIDTH 722 0
DWIDTH 13 0
BBX 11 12 2 0
BITMAP
1DE0
64C0
61C0
C1C0
C180
C180
E380
7F80
0300
0700
0700
0F00
ENDCHAR
STARTCHAR 03E5
ENCODING 997
SWIDTH 555 0
DWIDTH 10 0
BBX 9 12 1 0
BITMAP
1D80
2180
4180
C300
C700
CB00
CF00
F600
0600
0600
0D00
0E00
ENDCHAR
STARTCHAR 03E6
ENCODING 998
SWIDTH 722 0
DWIDTH 13 0
BBX 15 16 -2 -4
BITMAP
0380
0380
0300
0700
0700
0778
0F8C
0E0E
0E0E
0C0E
1C0C
3E0C
0018
0018
7830
C7C0
ENDCHAR
STARTCHAR 03E7
ENCODING 999
SWIDTH 444 0
DWIDTH 8 0
BBX 9 8 -1 0
BITMAP
0F80
3780
2380
1D80
0100
0300
6600
BC00
ENDCHAR
STARTCHAR 03E8
ENCODING 1000
SWIDTH 611 0
DWIDTH 11 0
BBX 11 12 0 0
BITMAP
07C0
08E0
18E0
10C0
0180
0600
1800
7180
E0C0
E1C0
E180
7E00
ENDCHAR
STARTCHAR 03E9
ENCODING 1001
SWIDTH 611 0
DWIDTH 11 0
BBX 11 12 0 0
BITMAP
07C0
08E0
18E0
10C0
0180
0600
1800
7000
6000
E080
E100
7E00
ENDCHAR
STARTCHAR 03EA
ENCODING 1002
SWIDTH 722 0
DWIDTH 13 0
BBX 14 12 0 0
BITMAP
1E18
376C
0748
0380
0380
0380
0580
0980
11C0
3FC0
7FC0
FFC0
ENDCHAR
STARTCHAR 03EB
ENCODING 1003
SWIDTH 555 0
DWIDTH 10 0
BBX 10 8 1 0
BITMAP
F1C0
DEC0
9C80
1800
1C00
2C00
4C00
FC00
ENDCHAR
STARTCHAR 03EC
ENCODING 1004
SWIDTH 777 0
DWIDTH 14 0
BBX 13 12 1 0
BITMAP
03F8
0FE0
1800
37C0
7860
E030
E030
E070
E070
E0E0
60C0
3F00
ENDCHAR
STARTCHAR 03ED
ENCODING 1005
SWIDTH 555 0
DWIDTH 10 0
BBX 10 8 0 0
BITMAP
0FC0
1800
2E00
6300
6300
E300
6300
3C00
ENDCHAR
STARTCHAR 03EE
ENCODING 1006
SWIDTH 444 0
DWIDTH 8 0
BBX 9 12 1 0
BITMAP
1E00
0C00
1C00
FF80
9C80
9900
3A00
3800
3000
7000
7000
F000
ENDCHAR
STARTCHAR 03EF
ENCODING 1007
SWIDTH 388 0
DWIDTH 7 0
BBX 7 12 1 0
BITMAP
0C
1C
18
18
FE
30
30
30
60
60
60
E0
ENDCHAR
STARTCHAR 03F0
ENCODING 1008
SWIDTH 555 0
DWIDTH 10 0
BBX 10 8 0 0
BITMAP
30C0
59C0
1380
1F00
3E00
7A00
E280
C300
ENDCHAR
STARTCHAR 03F1
ENCODING 1009
SWIDTH 555 0
DWIDTH 10 0
BBX 9 12 0 -4
BITMAP
0F00
1180
3180
6180
6180
E300
E200
BC00
8000
8000
7C00
7E00
ENDCHAR
STARTCHAR 03F2
ENCODING 1010
SWIDTH 444 0
DWIDTH 8 0
BBX 7 8 0 0
BITMAP
0E
30
60
60
60
E0
60
7C
ENDCHAR
STARTCHAR 03F3
ENCODING 1011
SWIDTH 277 0
DWIDTH 5 0
BBX 8 16 -3 -4
BITMAP
03
03
00
00
0F
06
06
06
0E
0C
0C
0C
18
18
D0
E0
ENDCHAR
STARTCHAR 03F4
ENCODING 1012
SWIDTH 722 0
DWIDTH 13 0
BBX 12 12 1 0
BITMAP
07C0
0C60
3870
7070
7070
FFF0
E0E0
E0E0
E0C0
E1C0
6300
3E00
ENDCHAR
STARTCHAR 03F5
ENCODING 1013
SWIDTH 444 0
DWIDTH 8 0
BBX 8 8 0 0
BITMAP
0F
38
70
60
7C
E0
60
30
ENDCHAR
STARTCHAR 03F6
ENCODING 1014
SWIDTH 444 0
DWIDTH 8 0
BBX 6 8 1 0
BITMAP
78
0C
0C
0C
7C
18
30
E0
ENDCHAR
STARTCHAR 03F7
ENCODING 1015
SWIDTH 611 0
DWIDTH 11 0
BBX 11 12 0 0
BITMAP
0F00
0E00
0C00
1F80
1CC0
1CE0
38E0
38C0
39C0
3F00
7000
F000
ENDCHAR
STARTCHAR 03F8
ENCODING 1016
SWIDTH 500 0
DWIDTH 9 0
BBX 11 16 -2 -4
BITMAP
0700
0600
0600
0600
0DC0
0EC0
0CE0
18C0
18C0
1980
3980
3A00
3400
3000
7000
F000
ENDCHAR
STARTCHAR 03F9
ENCODING 1017
SWIDTH 666 0
DWIDTH 12 0
BBX 12 12 1 0
BITMAP
03C0
0C30
3800
7000
7000
E000
E000
E000
E000
6040
7080
1F00
ENDCHAR
STARTCHAR 03FA
ENCODING 1018
SWIDTH 888 0
DWIDTH 16 0
BBX 17 12 0 0
BITMAP
1E0780
0E0F00
171600
172E00
13CE00
238C00
211C00
201C00
201C00
401800
403800
E07800
ENDCHAR
STARTCHAR 03FB
ENCODING 1019
SWIDTH 666 0
DWIDTH 12 0
BBX 12 12 -1 -4
BITMAP
1C30
0C70
1CE0
2D60
2E60
26E0
24C0
41E0
4000
4000
4000
C000
ENDCHAR
STARTCHAR 03FC
ENCODING 1020
SWIDTH 500 0
DWIDTH 9 0
BBX 11 12 -2 -4
BITMAP
0780
0CC0
0CE0
1CE0
18C0
19C0
3980
3F00
3000
3000
FC00
6000
ENDCHAR
STARTCHAR 03FD
ENCODING 1021
SWIDTH 666 0
DWIDTH 12 0
BBX 11 12 1 0
BITMAP
0F80
31C0
00E0
00E0
00E0
00E0
00E0
01C0
01C0
0380
0700
FC00
ENDCHAR
STARTCHAR 03FE
ENCODING 1022
SWIDTH 666 0
DWIDTH 12 0
BBX 12 12 1 0
BITMAP
03C0
0C30
3800
7000
7300
E380
E300
E000
E000
6040
7080
1F00
ENDCHAR
STARTCHAR 03FF
ENCODING 1023
SWIDTH 666 0
DWIDTH 12 0
BBX 11 12 1 0
BITMAP
0F80
31C0
40E0
00E0
18E0
38E0
18E0
01C0
01C0
0380
0700
FC00
ENDCHAR
STARTCHAR 0400
ENCODING 1024
SWIDTH 666 0
DWIDTH 12 0
BBX 12 16 0 0
BITMAP
0380
0180
0080
0040
1FF0
0E10
0C10
1C10
1C40
1F80
3880
3880
3800
3000
70C0
FFC0
ENDCHAR
STARTCHAR 0401
ENCODING 1025
SWIDTH 666 0
DWIDTH 12 0
BBX 12 15 0 0
BITMAP
0360
0360
0000
1FF0
0E10
0C10
1C10
1C40
1F80
3880
3880
3800
3000
70C0
FFC0
ENDCHAR
STARTCHAR 0402
ENCODING 1026
SWIDTH 833 0
DWIDTH 15 0
BBX 12 12 2 0
BITMAP
7FE0
CC40
9C00
1C00
1DE0
1A70
3C70
3870
3070
7060
70E0
F3C0
ENDCHAR
STARTCHAR 0403
ENCODING 1027
SWIDTH 611 0
DWIDTH 11 0
BBX 12 16 0 0
BITMAP
00E0
00C0
0080
0100
1FF0
0E10
0C10
1C00
1C00
1800
3800
3800
3800
3000
7000
F000
ENDCHAR
STARTCHAR 0404
ENCODING 1028
SWIDTH 666 0
DWIDTH 12 0
BBX 12 12 1 0
BITMAP
03F0
0E10
1800
3800
7000
7F00
E000
E000
E000
E000
E180
7E00
ENDCHAR
STARTCHAR 0405
ENCODING 1029
SWIDTH 555 0
DWIDTH 10 0
BBX 10 12 0 0
BITMAP
0FC0
18C0
3840
3800
1C00
1E00
0F00
0700
0380
8380
C300
FE00
ENDCHAR
STARTCHAR 0406
ENCODING 1030
SWIDTH 388 0
DWIDTH 7 0
BBX 8 12 0 0
BITMAP
1F
0E
0C
1C
1C
18
38
38
38
30
70
F0
ENDCHAR
STARTCHAR 0407
ENCODING 1031
SWIDTH 388 0
DWIDTH 7 0
BBX 9 15 0 0
BITMAP
1980
1D80
0000
1F00
0E00
0C00
1C00
1C00
1800
3800
3800
3800
3000
7000
F000
ENDCHAR
STARTCHAR 0408
ENCODING 1032
SWIDTH 500 0
DWIDTH 9 0
BBX 10 12 0 0
BITMAP
03C0
0380
0380
0300
0700
0700
0600
0E00
0E00
CC00
DC00
F000
ENDCHAR
STARTCHAR 0409
ENCODING 1033
SWIDTH 888 0
DWIDTH 16 0
BBX 16 12 -1 0
BITMAP
03F8
0230
0270
0470
0460
047C
08E7
08E7
08C7
11C7
D1CE
E3FC
ENDCHAR
STARTCHAR 040A
ENCODING 1034
SWIDTH 1000 0
DWIDTH 18 0
BBX 17 12 0 0
BITMAP
1F7C00
0E3800
0C3000
1C3000
1C7000
1C7000
3FFC00
38E700
38E380
30C300
71C700
F3FC00
ENDCHAR
STARTCHAR 040B
ENCODING 1035
SWIDTH 833 0
DWIDTH 15 0
BBX 11 12 2 0
BITMAP
7FC0
CC40
9C40
1C00
1DE0
1EE0
3860
3860
30E0
70E0
70C0
F3E0
ENDCHAR
STARTCHAR 040C
ENCODING 1036
SWIDTH 666 0
DWIDTH 12 0
BBX 13 15 0 1
BITMAP
0060
00C0
0000
1F38
0E78
0C40
1C80
1C80
1B00
3F00
3B80
3B80
3180
71C0
F1E0
ENDCHAR
STARTCHAR 040D
ENCODING 1037
SWIDTH 777 0
DWIDTH 14 0
BBX 14 16 0 0
BITMAP
0380
0180
0080
0040
1F3C
0E1C
0C38
1C78
1CB8
1930
3A70
3C70
3C70
3860
70E0
F1E0
ENDCHAR
STARTCHAR 040E
ENCODING 1038
SWIDTH 722 0
DWIDTH 13 0
BBX 12 15 2 1
BITMAP
08C0
0700
0000
78F0
3040
3840
3880
1880
1D00
1E00
0E00
0C00
C800
C800
F000
ENDCHAR
STARTCHAR 040F
ENCODING 1039
SWIDTH 777 0
DWIDTH 14 0
BBX 15 15 0 -4
BITMAP
1F3E
0E1C
0C18
1C38
1C38
1830
3870
3870
3860
3060
70E0
F0E0
0F00
0400
0800
ENDCHAR
STARTCHAR 0410
ENCODING 1040
SWIDTH 666 0
DWIDTH 12 0
BBX 10 12 0 0
BITMAP
0040
00C0
00C0
01C0
03C0
05C0
09C0
1FC0
21C0
41C0
41C0
C1C0
ENDCHAR
STARTCHAR 0411
ENCODING 1041
SWIDTH 611 0
DWIDTH 11 0
BBX 12 12 0 0
BITMAP
1FF0
0E20
0C20
1C00
1C00
1C00
3F00
39C0
38C0
31C0
71C0
FF00
ENDCHAR
STARTCHAR 0412
ENCODING 1042
SWIDTH 666 0
DWIDTH 12 0
BBX 11 12 1 0
BITMAP
3FC0
1CC0
18E0
38C0
3980
3E00
3380
7180
71C0
6180
E380
FF00
ENDCHAR
STARTCHAR 0413
ENCODING 1043
SWIDTH 611 0
DWIDTH 11 0
BBX 12 12 0 0
BITMAP
1FF0
0E10
0C10
1C00
1C00
1800
3800
3800
3800
3000
7000
F000
ENDCHAR
STARTCHAR 0414
ENCODING 1044
SWIDTH 666 0
DWIDTH 12 0
BBX 15 16 -2 -4
BITMAP
03FE
011C
0118
0238
0238
0238
0430
0470
0870
0870
10E0
3FE0
6030
4010
8010
8010
ENDCHAR
STARTCHAR 0415
ENCODING 1045
SWIDTH 666 0
DWIDTH 12 0
BBX 12 12 0 0
BITMAP
1FF0
0E10
0C10
1C00
1C40
1F80
3880
3880
3800
3000
70C0
FFC0
ENDCHAR
STARTCHAR 0416
ENCODING 1046
SWIDTH 944 0
DWIDTH 17 0
BBX 19 12 -1 0
BITMAP
0EF8C0
0E31E0
027200
027200
026400
01F800
07FC00
0EEC00
1CCE00
39CE00
39CE00
F3C700
ENDCHAR
STARTCHAR 0417
ENCODING 1047
SWIDTH 500 0
DWIDTH 9 0
BBX 9 12 0 0
BITMAP
1F00
2180
2180
0380
0700
1C00
0700
0300
0300
0700
8E00
7C00
ENDCHAR
STARTCHAR 0418
ENCODING 1048
SWIDTH 777 0
DWIDTH 14 0
BBX 14 12 0 0
BITMAP
1F3C
0E1C
0C38
1C78
1CB8
1930
3A70
3C70
3C70
3860
70E0
F1E0
ENDCHAR
STARTCHAR 0419
ENCODING 1049
SWIDTH 777 0
DWIDTH 14 0
BBX 14 15 0 0
BITMAP
0118
00E0
0000
1F3C
0E1C
0C38
1C78
1CB8
1930
3A70
3C70
3C70
3860
70E0
F1E0
ENDCHAR
STARTCHAR 041A
ENCODING 1050
SWIDTH 666 0
DWIDTH 12 0
BBX 13 12 0 0
BITMAP
1F38
0E78
0C40
1C80
1C80
1B00
3F00
3B80
3B80
3180
71C0
F1E0
ENDCHAR
STARTCHAR 041B
ENCODING 1051
SWIDTH 666 0
DWIDTH 12 0
BBX 14 12 -1 0
BITMAP
03FC
0238
0238
0430
0470
0470
0860
08E0
08E0
10E0
D0C0
E1E0
ENDCHAR
STARTCHAR 041C
ENCODING 1052
SWIDTH 888 0
DWIDTH 16 0
BBX 17 12 0 0
BITMAP
1E0780
0E0F00
161600
161E00
162E00
264C00
265C00
279C00
271C00
471800
463800
E07800
ENDCHAR
STARTCHAR 041D
ENCODING 1053
SWIDTH 777 0
DWIDTH 14 0
BBX 15 12 0 0
BITMAP
1F3E
0E1C
0C18
1C38
1C38
1C30
3FF0
3870
3870
3060
70E0
F1E0
ENDCHAR
STARTCHAR 041E
ENCODING 1054
SWIDTH 722 0
DWIDTH 13 0
BBX 12 12 1 0
BITMAP
07C0
0C60
3870
3070
7070
E070
E0E0
E0E0
E0C0
E180
6300
3E00
ENDCHAR
STARTCHAR 041F
ENCODING 1055
SWIDTH 777 0
DWIDTH 14 0
BBX 15 12 0 0
BITMAP
1FFE
0E1C
0C18
1C38
1C38
1830
3870
3870
3870
3060
70E0
F1E0
ENDCHAR
STARTCHAR 0420
ENCODING 1056
SWIDTH 611 0
DWIDTH 11 0
BBX 11 12 1 0
BITMAP
3F80
1CC0
18E0
38E0
39C0
3180
3F00
7000
7000
6000
E000
E000
ENDCHAR
STARTCHAR 0421
ENCODING 1057
SWIDTH 666 0
DWIDTH 12 0
BBX 12 12 1 0
BITMAP
03F0
1C30
3800
7000
7000
E000
E000
E000
E000
6040
7080
1F00
ENDCHAR
STARTCHAR 0422
ENCODING 1058
SWIDTH 611 0
DWIDTH 11 0
BBX 10 12 2 0
BITMAP
7FC0
CE40
8C40
1C00
1C00
1C00
1800
3800
3800
3000
7000
F000
ENDCHAR
STARTCHAR 0423
ENCODING 1059
SWIDTH 722 0
DWIDTH 13 0
BBX 12 12 2 0
BITMAP
78F0
3040
3840
3880
1880
1D00
1E00
0E00
0C00
C800
C800
F000
ENDCHAR
STARTCHAR 0424
ENCODING 1060
SWIDTH 833 0
DWIDTH 15 0
BBX 14 12 1 0
BITMAP
03E0
01C0
07E0
1998
338C
639C
E31C
E718
E738
6730
1FC0
0E00
ENDCHAR
STARTCHAR 0425
ENCODING 1061
SWIDTH 666 0
DWIDTH 12 0
BBX 14 12 -1 0
BITMAP
1E1C
0E18
0710
0720
0340
0380
0380
05C0
09C0
10C0
20E0
E0F0
ENDCHAR
STARTCHAR 0426
ENCODING 1062
SWIDTH 777 0
DWIDTH 14 0
BBX 14 15 0 -4
BITMAP
1F3C
0E1C
0C18
1C38
1C38
1830
3870
3870
3870
3060
70E0
7FE0
8030
0010
0010
ENDCHAR
STARTCHAR 0427
ENCODING 1063
SWIDTH 722 0
DWIDTH 13 0
BBX 12 12 2 0
BITMAP
79F0
70E0
70E0
60C0
E1C0
E1C0
7FC0
0180
0380
0380
0300
0F80
ENDCHAR
STARTCHAR 0428
ENCODING 1064
SWIDTH 1111 0
DWIDTH 20 0
BBX 21 12 0 0
BITMAP
1F3C78
0E3870
0C3860
1C38E0
1C30E0
1870E0
3870C0
3861C0
38E1C0
30E1C0
70E380
FFFF80
ENDCHAR
STARTCHAR 0429
ENCODING 1065
SWIDTH 1111 0
DWIDTH 20 0
BBX 21 16 0 -4
BITMAP
1F3C78
0E3870
0C3860
1C38E0
1C30E0
1870E0
3870C0
3861C0
38E1C0
30E1C0
70E380
FFFF80
0000C0
000040
000040
000040
ENDCHAR
STARTCHAR 042A
ENCODING 1066
SWIDTH 777 0
DWIDTH 14 0
BBX 11 12 2 0
BITMAP
7F00
CE00
8E00
0C00
1C00
1C00
1F80
38C0
38E0
38E0
71C0
FF80
ENDCHAR
STARTCHAR 042B
ENCODING 1067
SWIDTH 944 0
DWIDTH 17 0
BBX 18 12 0 0
BITMAP
1E03C0
0E0380
0C0380
1C0300
1C0700
1C0700
3F0700
39C600
38CE00
31CE00
71CC00
FF3E00
ENDCHAR
STARTCHAR 042C
ENCODING 1068
SWIDTH 611 0
DWIDTH 11 0
BBX 10 12 0 0
BITMAP
1E00
0E00
0C00
1C00
1C00
1C00
3F00
39C0
38C0
31C0
71C0
FF00
ENDCHAR
STARTCHAR 042D
ENCODING 1069
SWIDTH 666 0
DWIDTH 12 0
BBX 11 12 0 0
BITMAP
1F80
10C0
20E0
0060
0060
0FE0
00E0
00E0
01C0
81C0
4380
3E00
ENDCHAR
STARTCHAR 042E
ENCODING 1070
SWIDTH 1055 0
DWIDTH 19 0
BBX 19 12 0 0
BITMAP
3F0F80
0E38C0
0C70E0
1CE0E0
1CE0E0
1FC0E0
39C1C0
39C1C0
31C180
31C380
70C700
F07C00
ENDCHAR
STARTCHAR 042F
ENCODING 1071
SWIDTH 666 0
DWIDTH 12 0
BBX 14 12 -1 0
BITMAP
03FC
0F38
0E38
0E30
0E70
0E70
03E0
0E60
1CE0
3CE0
38C0
F1E0
ENDCHAR
STARTCHAR 0430
ENCODING 1072
SWIDTH 500 0
DWIDTH 9 0
BBX 8 8 0 0
BITMAP
1F
33
73
67
66
EE
F7
66
ENDCHAR
STARTCHAR 0431
ENCODING 1073
SWIDTH 500 0
DWIDTH 9 0
BBX 8 12 1 0
BITMAP
0F
1E
30
40
5C
E6
E6
C6
C6
CC
CC
D0
ENDCHAR
STARTCHAR 0432
ENCODING 1074
SWIDTH 444 0
DWIDTH 8 0
BBX 8 8 0 0
BITMAP
0E
33
76
68
74
E6
6C
78
ENDCHAR
STARTCHAR 0433
ENCODING 1075
SWIDTH 388 0
DWIDTH 7 0
BBX 7 8 0 0
BITMAP
1C
26
0C
08
30
C0
C4
F8
ENDCHAR
STARTCHAR 0434
ENCODING 1076
SWIDTH 500 0
DWIDTH 9 0
BBX 8 12 0 0
BITMAP
08
06
02
03
0F
33
73
63
63
E6
64
68
ENDCHAR
STARTCHAR 0435
ENCODING 1077
SWIDTH 444 0
DWIDTH 8 0
BBX 8 8 0 0
BITMAP
0F
13
36
64
78
E0
60
7C
ENDCHAR
STARTCHAR 0436
ENCODING 1078
SWIDTH 944 0
DWIDTH 17 0
BBX 17 8 0 0
BITMAP
1CE380
7CCD80
0CC800
0FF800
0D9800
C99800
D19D00
A38E00
ENDCHAR
STARTCHAR 0437
ENCODING 1079
SWIDTH 388 0
DWIDTH 7 0
BBX 6 8 1 0
BITMAP
F8
9C
18
60
18
38
30
E0
ENDCHAR
STARTCHAR 0438
ENCODING 1080
SWIDTH 555 0
DWIDTH 10 0
BBX 8 8 1 0
BITMAP
F3
63
67
E6
CE
DE
ED
CE
ENDCHAR
STARTCHAR 0439
ENCODING 1081
SWIDTH 555 0
DWIDTH 10 0
BBX 8 12 1 0
BITMAP
11
1A
0C
00
F3
63
67
E6
CE
DE
ED
CE
ENDCHAR
STARTCHAR 043A
ENCODING 1082
SWIDTH 500 0
DWIDTH 9 0
BBX 9 8 0 0
BITMAP
7980
3280
3400
3800
6C00
6600
6600
E300
ENDCHAR
STARTCHAR 043B
ENCODING 1083
SWIDTH 500 0
DWIDTH 9 0
BBX 9 8 -1 0
BITMAP
1F80
0980
1180
1380
1300
2300
E780
C300
ENDCHAR
STARTCHAR 043C
ENCODING 1084
SWIDTH 666 0
DWIDTH 12 0
BBX 13 8 -1 0
BITMAP
1E38
0E70
16B0
16F0
1760
2660
E670
C460
ENDCHAR
STARTCHAR 043D
ENCODING 1085
SWIDTH 555 0
DWIDTH 10 0
BBX 9 8 0 0
BITMAP
7980
3180
3380
7F00
6300
6700
6680
E700
ENDCHAR
STARTCHAR 043E
ENCODING 1086
SWIDTH 500 0
DWIDTH 9 0
BBX 8 8 0 0
BITMAP
0E
33
73
63
63
E6
66
68
ENDCHAR
STARTCHAR 043F
ENCODING 1087
SWIDTH 555 0
DWIDTH 10 0
BBX 9 8 0 0
BITMAP
7B80
3780
3B80
3300
7300
6300
6680
E700
ENDCHAR
STARTCHAR 0440
ENCODING 1088
SWIDTH 500 0
DWIDTH 9 0
BBX 11 12 -2 -4
BITMAP
1DC0
0EC0
0CE0
18C0
18C0
1980
3980
3A00
3400
3000
7000
F000
ENDCHAR
STARTCHAR 0441
ENCODING 1089
SWIDTH 444 0
DWIDTH 8 0
BBX 8 8 0 0
BITMAP
0E
33
62
60
60
E0
70
7C
ENDCHAR
STARTCHAR 0442
ENCODING 1090
SWIDTH 777 0
DWIDTH 14 0
BBX 13 8 0 0
BITMAP
7B18
37B8
3BF8
33B0
7330
6730
6678
E670
ENDCHAR
STARTCHAR 0443
ENCODING 1091
SWIDTH 444 0
DWIDTH 8 0
BBX 10 12 -2 -4
BITMAP
18C0
1CC0
0C40
0C80
0C80
0D00
0E00
0E00
0C00
0800
F000
6000
ENDCHAR
STARTCHAR 0444
ENCODING 1092
SWIDTH 722 0
DWIDTH 13 0
BBX 12 16 0 -4
BITMAP
01C0
0180
0180
0180
1FE0
33B0
7330
6730
6630
E660
6E60
7D80
0C00
0C00
1C00
3C00
ENDCHAR
STARTCHAR 0445
ENCODING 1093
SWIDTH 500 0
DWIDTH 9 0
BBX 10 8 -1 0
BITMAP
38C0
1DC0
0E00
0C00
0E00
1600
F780
C300
ENDCHAR
STARTCHAR 0446
ENCODING 1094
SWIDTH 555 0
DWIDTH 10 0
BBX 8 11 1 -4
BITMAP
F3
63
67
E6
CE
DE
ED
CE
02
02
02
ENDCHAR
STARTCHAR 0447
ENCODING 1095
SWIDTH 500 0
DWIDTH 9 0
BBX 8 8 1 0
BITMAP
E7
66
E6
CE
FC
0C
0E
0C
ENDCHAR
STARTCHAR 0448
ENCODING 1096
SWIDTH 833 0
DWIDTH 15 0
BBX 13 8 1 0
BITMAP
F318
6318
6338
E730
CE70
D6B0
EF78
C670
ENDCHAR
STARTCHAR 0449
ENCODING 1097
SWIDTH 833 0
DWIDTH 15 0
BBX 13 11 1 -4
BITMAP
F318
6318
6338
E730
CE70
D6B0
EF78
C670
0010
0010
0010
ENDCHAR
STARTCHAR 044A
ENCODING 1098
SWIDTH 500 0
DWIDTH 9 0
BBX 9 8 0 0
BITMAP
7C00
9C00
1800
1B00
3F80
3300
3300
1E00
ENDCHAR
STARTCHAR 044B
ENCODING 1099
SWIDTH 666 0
DWIDTH 12 0
BBX 11 8 1 0
BITMAP
70E0
60C0
60C0
FCC0
EDC0
CD80
DD80
F1C0
ENDCHAR
STARTCHAR 044C
ENCODING 1100
SWIDTH 444 0
DWIDTH 8 0
BBX 6 8 1 0
BITMAP
70
60
60
FC
EC
CC
DC
F0
ENDCHAR
STARTCHAR 044D
ENCODING 1101
SWIDTH 388 0
DWIDTH 7 0
BBX 6 8 1 0
BITMAP
F8
8C
1C
7C
18
38
30
E0
ENDCHAR
STARTCHAR 044E
ENCODING 1102
SWIDTH 722 0
DWIDTH 13 0
BBX 13 8 0 0
BITMAP
78F0
3330
3738
3E30
6630
6670
6660
E280
ENDCHAR
STARTCHAR 044F
ENCODING 1103
SWIDTH 500 0
DWIDTH 9 0
BBX 9 8 -1 0
BITMAP
0F80
1980
1980
0F80
1B00
3B00
3780
E300
ENDCHAR
STARTCHAR 0450
ENCODING 1104
SWIDTH 444 0
DWIDTH 8 0
BBX 8 12 0 0
BITMAP
0C
06
02
00
0F
13
36
64
78
E0
60
7C
ENDCHAR
STARTCHAR 0451
ENCODING 1105
SWIDTH 444 0
DWIDTH 8 0
BBX 9 12 0 0
BITMAP
1980
1980
0000
0000
0F00
1300
3600
6400
7800
E000
6000
7C00
ENDCHAR
STARTCHAR 0452
ENCODING 1106
SWIDTH 500 0
DWIDTH 9 0
BBX 9 16 0 -4
BITMAP
1C00
1C00
3F80
1800
3B80
3780
3B80
3300
7300
6300
6600
E600
0400
0C00
1000
2000
ENDCHAR
STARTCHAR 0453
ENCODING 1107
SWIDTH 388 0
DWIDTH 7 0
BBX 8 12 0 0
BITMAP
07
06
04
00
3F
30
30
70
60
60
60
E0
ENDCHAR
STARTCHAR 0454
ENCODING 1108
SWIDTH 388 0
DWIDTH 7 0
BBX 8 8 0 0
BITMAP
0F
31
70
7C
60
E0
E4
78
ENDCHAR
STARTCHAR 0455
ENCODING 1109
SWIDTH 388 0
DWIDTH 7 0
BBX 7 8 0 0
BITMAP
3E
60
70
38
1C
8C
8C
F8
ENDCHAR
STARTCHAR 0456
ENCODING 1110
SWIDTH 277 0
DWIDTH 5 0
BBX 5 12 0 0
BITMAP
18
18
00
00
70
30
30
70
60
60
F0
60
ENDCHAR
STARTCHAR 0457
ENCODING 1111
SWIDTH 277 0
DWIDTH 5 0
BBX 7 11 0 1
BITMAP
6E
64
00
70
30
30
70
60
60
F0
60
ENDCHAR
STARTCHAR 0458
ENCODING 1112
SWIDTH 277 0
DWIDTH 5 0
BBX 8 16 -3 -4
BITMAP
03
03
00
00
0F
06
06
06
0E
0C
0C
0C
18
18
D0
E0
ENDCHAR
STARTCHAR 0459
ENCODING 1113
SWIDTH 666 0
DWIDTH 12 0
BBX 12 8 -1 0
BITMAP
0380
0D80
0B80
1360
13B0
2330
E660
C3C0
ENDCHAR
STARTCHAR 045A
ENCODING 1114
SWIDTH 722 0
DWIDTH 13 0
BBX 12 8 0 0
BITMAP
3B80
3180
3380
3FE0
6330
6770
6660
E3C0
ENDCHAR
STARTCHAR 045B
ENCODING 1115
SWIDTH 555 0
DWIDTH 10 0
BBX 9 12 0 0
BITMAP
1C00
1C00
3F00
1800
3B80
3780
3B80
3300
7300
6300
6680
E700
ENDCHAR
STARTCHAR 045C
ENCODING 1116
SWIDTH 500 0
DWIDTH 9 0
BBX 9 12 0 0
BITMAP
0380
0300
0600
0000
7980
3280
3400
3800
6C00
6600
6600
E300
ENDCHAR
STARTCHAR 045D
ENCODING 1117
SWIDTH 555 0
DWIDTH 10 0
BBX 8 12 1 0
BITMAP
18
0C
04
00
F3
63
67
E6
CE
DE
ED
CE
ENDCHAR
STARTCHAR 045E
ENCODING 1118
SWIDTH 444 0
DWIDTH 8 0
BBX 10 16 -2 -4
BITMAP
0600
0680
0300
0000
18C0
1CC0
0C40
0C80
0C80
0D00
0E00
0E00
0C00
0800
F000
6000
ENDCHAR
STARTCHAR 045F
ENCODING 1119
SWIDTH 555 0
DWIDTH 10 0
BBX 8 11 1 -4
BITMAP
F3
63
67
E6
CE
DE
ED
CE
80
80
80
ENDCHAR
STARTCHAR 0460
ENCODING 1120
SWIDTH 1166 0
DWIDTH 21 0
BBX 19 12 1 0
BITMAP
078780
18C8C0
30C860
600060
E00060
E00060
E1F060
E0E0E0
E0C0C0
E0C1C0
61C380
3F7E00
ENDCHAR
STARTCHAR 0461
ENCODING 1121
SWIDTH 555 0
DWIDTH 10 0
BBX 10 8 1 0
BITMAP
CCC0
CCC0
CC80
DF00
EF00
C600
C400
8400
ENDCHAR
STARTCHAR 0462
ENCODING 1122
SWIDTH 611 0
DWIDTH 11 0
BBX 10 12 1 0
BITMAP
1E00
0C00
FF80
9C80
1880
3800
3F00
39C0
31C0
71C0
7380
FF00
ENDCHAR
STARTCHAR 0463
ENCODING 1123
SWIDTH 666 0
DWIDTH 12 0
BBX 12 8 0 0
BITMAP
7B80
3780
3900
33E0
7770
6660
6660
E2C0
ENDCHAR
STARTCHAR 0464
ENCODING 1124
SWIDTH 1000 0
DWIDTH 18 0
BBX 19 12 0 0
BITMAP
0F07E0
0E1C20
0C3820
1C7000
1CE000
1FFE00
19C000
39C000
39C000
31C080
70C300
F07C00
ENDCHAR
STARTCHAR 0465
ENCODING 1125
SWIDTH 666 0
DWIDTH 12 0
BBX 13 8 0 0
BITMAP
78F8
3180
3300
3FC0
6700
6600
6600
E3C0
ENDCHAR
STARTCHAR 0466
ENCODING 1126
SWIDTH 666 0
DWIDTH 12 0
BBX 11 12 -1 0
BITMAP
0020
0060
0060
00E0
01E0
02E0
04E0
0BE0
16E0
26E0
24E0
ECE0
ENDCHAR
STARTCHAR 0467
ENCODING 1127
SWIDTH 555 0
DWIDTH 10 0
BBX 10 8 -1 0
BITMAP
0100
0300
0700
0980
1F80
2D80
49C0
D9C0
ENDCHAR
STARTCHAR 0468
ENCODING 1128
SWIDTH 1055 0
DWIDTH 19 0
BBX 17 12 0 0
BITMAP
0F0080
0E0180
0C0380
1C0780
1C0B80
180B80
3FF780
383B80
385B80
309380
711380
F3B380
ENDCHAR
STARTCHAR 0469
ENCODING 1129
SWIDTH 888 0
DWIDTH 16 0
BBX 15 8 0 0
BITMAP
3810
3038
3058
3F98
61F8
625C
64CC
ECDE
ENDCHAR
STARTCHAR 046A
ENCODING 1130
SWIDTH 944 0
DWIDTH 17 0
BBX 17 12 -1 0
BITMAP
03FF80
038100
01C200
01C400
00F800
03F800
0EEC00
1CEE00
38CE00
39C600
71C600
F3C700
ENDCHAR
STARTCHAR 046B
ENCODING 1131
SWIDTH 666 0
DWIDTH 12 0
BBX 12 8 -1 0
BITMAP
07F0
0620
0740
0380
1F60
3B60
7770
EF70
ENDCHAR
STARTCHAR 046C
ENCODING 1132
SWIDTH 1333 0
DWIDTH 24 0
BBX 23 12 0 0
BITMAP
0F0FFE
0E0E04
0C0708
1C0710
1C0320
1C03C0
3FFFF0
383BB8
387398
30E318
71E718
F3CF1C
ENDCHAR
STARTCHAR 046D
ENCODING 1133
SWIDTH 1000 0
DWIDTH 18 0
BBX 17 8 0 0
BITMAP
387F00
307100
303200
303400
7FFE00
61BF00
63B300
E77B80
ENDCHAR
STARTCHAR 046E
ENCODING 1134
SWIDTH 500 0
DWIDTH 9 0
BBX 10 18 -1 -4
BITMAP
0640
0280
0F80
10C0
10C0
01C0
0380
0E00
0380
0180
0180
0380
0300
7E00
C000
C000
C700
FB00
ENDCHAR
STARTCHAR 046F
ENCODING 1135
SWIDTH 388 0
DWIDTH 7 0
BBX 9 14 -2 -4
BITMAP
0C80
0700
1B00
1380
0300
0C00
0300
0300
0700
3E00
6000
C000
C600
7A00
ENDCHAR
STARTCHAR 0470
ENCODING 1136
SWIDTH 777 0
DWIDTH 14 0
BBX 14 12 2 0
BITMAP
E7CC
E398
6338
6738
6730
6670
6E60
1F80
0E00
1C00
1C00
3C00
ENDCHAR
STARTCHAR 0471
ENCODING 1137
SWIDTH 666 0
DWIDTH 12 0
BBX 12 12 1 -4
BITMAP
C470
64C0
6CC0
6DC0
6980
6980
7B00
7600
1800
3000
3000
2000
ENDCHAR
STARTCHAR 0472
ENCODING 1138
SWIDTH 722 0
DWIDTH 13 0
BBX 12 12 1 0
BITMAP
07C0
0C60
3870
7070
7070
FC70
E7E0
E0E0
E0C0
E1C0
6300
3E00
ENDCHAR
STARTCHAR 0473
ENCODING 1139
SWIDTH 500 0
DWIDTH 9 0
BBX 8 8 0 0
BITMAP
0F
33
73
7B
67
E6
66
68
ENDCHAR
STARTCHAR 0474
ENCODING 1140
SWIDTH 777 0
DWIDTH 14 0
BBX 12 12 3 0
BITMAP
E030
E070
E080
E100
E200
E400
E800
F000
E000
C000
C000
8000
ENDCHAR
STARTCHAR 0475
ENCODING 1141
SWIDTH 555 0
DWIDTH 10 0
BBX 9 8 1 0
BITMAP
E180
6380
6400
6800
7000
6000
6000
4000
ENDCHAR
STARTCHAR 0476
ENCODING 1142
SWIDTH 777 0
DWIDTH 14 0
BBX 12 16 3 0
BITMAP
0B00
0B00
0F00
0000
E030
E070
E080
E100
E200
E400
E800
F000
E000
C000
C000
8000
ENDCHAR
STARTCHAR 0477
ENCODING 1143
SWIDTH 555 0
DWIDTH 10 0
BBX 9 12 1 0
BITMAP
1400
1600
1600
0000
E180
6380
6400
6800
7000
6000
6000
4000
ENDCHAR
STARTCHAR 0478
ENCODING 1144
SWIDTH 1111 0
DWIDTH 20 0
BBX 19 16 1 -4
BITMAP
078000
18C000
38E000
70E000
70EE60
E0E660
E0E620
E1C640
E1C640
E38680
630700
3C0700
000600
000400
007800
003000
ENDCHAR
STARTCHAR 0479
ENCODING 1145
SWIDTH 888 0
DWIDTH 16 0
BBX 16 12 0 -4
BITMAP
0E63
3373
7331
6332
6732
E634
6C38
7838
0030
0020
03C0
0180
ENDCHAR
STARTCHAR 047A
ENCODING 1146
SWIDTH 833 0
DWIDTH 15 0
BBX 15 14 0 -1
BITMAP
00C0
03F8
0C1C
180E
300E
700E
600E
E00E
E01C
E018
E038
7060
3F80
0600
ENDCHAR
STARTCHAR 047B
ENCODING 1147
SWIDTH 611 0
DWIDTH 11 0
BBX 10 10 0 -1
BITMAP
0600
1F80
30C0
60C0
E0C0
C0C0
C1C0
C180
7E00
1800
ENDCHAR
STARTCHAR 047C
ENCODING 1148
SWIDTH 1166 0
DWIDTH 21 0
BBX 20 18 1 0
BITMAP
001C00
006300
00D9C0
001800
000800
001000
07C7C0
1CCC60
380070
700070
700070
E00070
E00070
E000E0
E000C0
E00180
708700
3F7C00
ENDCHAR
STARTCHAR 047D
ENCODING 1149
SWIDTH 833 0
DWIDTH 15 0
BBX 15 14 0 0
BITMAP
01F0
030E
00C0
0040
0040
0000
0818
300C
600C
600C
601C
E018
6630
79E0
ENDCHAR
STARTCHAR 047E
ENCODING 1150
SWIDTH 1166 0
DWIDTH 21 0
BBX 19 15 1 1
BITMAP
01FE00
009200
000000
078780
18C8C0
30C860
600060
E00060
E00060
E1F060
E0E0E0
E0C0C0
E0C1C0
61C380
3F7E00
ENDCHAR
STARTCHAR 047F
ENCODING 1151
SWIDTH 555 0
DWIDTH 10 0
BBX 10 12 1 0
BITMAP
3FC0
2480
0000
0000
CCC0
CCC0
CC80
DF00
EF00
C600
C400
8400
ENDCHAR
STARTCHAR 0480
ENCODING 1152
SWIDTH 666 0
DWIDTH 12 0
BBX 12 16 1 -4
BITMAP
03F0
0C30
3800
7000
7000
E000
E000
E000
E000
6000
7000
1E00
0E00
0C00
1C00
3C00
ENDCHAR
STARTCHAR 0481
ENCODING 1153
SWIDTH 444 0
DWIDTH 8 0
BBX 8 12 0 -4
BITMAP
0E
33
62
60
60
E0
60
78
38
30
30
70
ENDCHAR
STARTCHAR 0482
ENCODING 1154
SWIDTH 444 0
DWIDTH 8 0
BBX 8 12 0 0
BITMAP
01
01
02
16
0C
4F
38
18
24
60
40
80
ENDCHAR
STARTCHAR 0483
ENCODING 1155
SWIDTH 0 0
DWIDTH 0 0
BBX 6 3 -1 8
BITMAP
0C
FC
C0
ENDCHAR
STARTCHAR 0484
ENCODING 1156
SWIDTH 0 0
DWIDTH 0 0
BBX 6 2 -1 9
BITMAP
18
E4
ENDCHAR
STARTCHAR 0485
ENCODING 1157
SWIDTH 0 0
DWIDTH 0 0
BBX 3 4 0 8
BITMAP
60
40
80
40
ENDCHAR
STARTCHAR 0486
ENCODING 1158
SWIDTH 0 0
DWIDTH 0 0
BBX 2 3 1 8
BITMAP
C0
C0
40
ENDCHAR
STARTCHAR 0487
ENCODING 1159
SWIDTH 0 0
DWIDTH 0 0
BBX 10 2 -3 11
BITMAP
3C00
C3C0
ENDCHAR
STARTCHAR 0488
ENCODING 1160
SWIDTH 0 0
DWIDTH 0 0
BBX 18 15 -9 -4
BITMAP
00C000
012000
380700
480400
000000
000000
600180
900240
000000
000000
000000
300700
480400
00C000
012000
ENDCHAR
STARTCHAR 0489
ENCODING 1161
SWIDTH 0 0
DWIDTH 0 0
BBX 16 17 -8 -3
BITMAP
0080
0100
0180
0006
200C
3000
0000
0000
0007
E000
0000
0000
100C
1000
2180
0080
0100
ENDCHAR
STARTCHAR 048A
ENCODING 1162
SWIDTH 777 0
DWIDTH 14 0
BBX 14 17 0 -3
BITMAP
0318
00E0
1E3C
0E1C
0C38
1C78
1CB8
1930
3A70
3C70
3C70
3860
70E0
F1E0
0030
0020
0020
ENDCHAR
STARTCHAR 048B
ENCODING 1163
SWIDTH 555 0
DWIDTH 10 0
BBX 8 15 1 -4
BITMAP
11
1A
0C
00
F3
63
67
E6
CE
DE
ED
CE
04
04
04
ENDCHAR
STARTCHAR 048C
ENCODING 1164
SWIDTH 611 0
DWIDTH 11 0
BBX 10 12 0 0
BITMAP
0E00
0E00
3F00
1C00
1C00
1C00
1F00
39C0
38C0
31C0
71C0
FF00
ENDCHAR
STARTCHAR 048D
ENCODING 1165
SWIDTH 444 0
DWIDTH 8 0
BBX 6 12 1 0
BITMAP
38
7C
30
30
70
60
60
FC
EC
CC
CC
F0
ENDCHAR
STARTCHAR 048E
ENCODING 1166
SWIDTH 611 0
DWIDTH 11 0
BBX 11 12 1 0
BITMAP
3F80
1CC0
18E0
38E0
3BC0
31C0
3F00
7080
7000
6000
E000
E000
ENDCHAR
STARTCHAR 048F
ENCODING 1167
SWIDTH 500 0
DWIDTH 9 0
BBX 11 12 -2 -4
BITMAP
1DC0
0EC0
0CE0
1CC0
18C0
1B80
3980
3B80
3480
3000
7000
F000
ENDCHAR
STARTCHAR 0490
ENCODING 1168
SWIDTH 444 0
DWIDTH 8 0
BBX 11 14 0 0
BITMAP
0020
0040
1FC0
0C00
0C00
1C00
1C00
1800
3800
3800
3800
3000
7000
F000
ENDCHAR
STARTCHAR 0491
ENCODING 1169
SWIDTH 388 0
DWIDTH 7 0
BBX 7 10 1 0
BITMAP
02
04
7C
60
60
E0
C0
C0
C0
E0
ENDCHAR
STARTCHAR 0492
ENCODING 1170
SWIDTH 611 0
DWIDTH 11 0
BBX 12 12 0 0
BITMAP
1FF0
0E10
0C10
1C00
1C00
7F00
3800
3800
3800
3000
7000
F000
ENDCHAR
STARTCHAR 0493
ENCODING 1171
SWIDTH 388 0
DWIDTH 7 0
BBX 7 8 0 0
BITMAP
1C
26
2C
18
30
C8
C4
F8
ENDCHAR
STARTCHAR 0494
ENCODING 1172
SWIDTH 722 0
DWIDTH 13 0
BBX 13 16 0 -4
BITMAP
1FF0
0E10
0C10
1C00
1C00
1DE0
3E30
3830
3838
3030
7030
F070
0060
20E0
20C0
1F00
ENDCHAR
STARTCHAR 0495
ENCODING 1173
SWIDTH 500 0
DWIDTH 9 0
BBX 8 12 0 -4
BITMAP
3F
30
30
70
7E
63
63
E3
03
06
C4
F8
ENDCHAR
STARTCHAR 0496
ENCODING 1174
SWIDTH 944 0
DWIDTH 17 0
BBX 18 15 0 -4
BITMAP
1CF180
1C63C0
04E400
04E400
04E400
04C800
07F000
1DD800
399800
3B9C00
739C00
E78E00
000600
000200
000200
ENDCHAR
STARTCHAR 0497
ENCODING 1175
SWIDTH 944 0
DWIDTH 17 0
BBX 17 11 0 -4
BITMAP
1CE380
7CCD80
0CC800
0FF800
0D9800
C99800
D19D00
A38E00
400200
000200
000200
ENDCHAR
STARTCHAR 0498
ENCODING 1176
SWIDTH 500 0
DWIDTH 9 0
BBX 9 16 0 -4
BITMAP
1F00
1380
2180
0180
0300
0600
1C00
0700
0300
0700
8600
7C00
1000
1800
3000
7000
ENDCHAR
STARTCHAR 0499
ENCODING 1177
SWIDTH 388 0
DWIDTH 7 0
BBX 6 12 0 -4
BITMAP
7C
4C
0C
0C
30
0C
1C
18
70
20
60
E0
ENDCHAR
STARTCHAR 049A
ENCODING 1178
SWIDTH 666 0
DWIDTH 12 0
BBX 13 15 0 -4
BITMAP
1F38
0E78
0C40
1C80
1C80
1900
3F00
3B80
3B80
3180
71C0
F1E0
0060
0020
0040
ENDCHAR
STARTCHAR 049B
ENCODING 1179
SWIDTH 500 0
DWIDTH 9 0
BBX 9 11 0 -4
BITMAP
7980
3280
3400
3800
6C00
6600
6680
E300
0100
0100
0100
ENDCHAR
STARTCHAR 049C
ENCODING 1180
SWIDTH 666 0
DWIDTH 12 0
BBX 13 12 0 0
BITMAP
1F38
0E78
0C40
1D80
1E80
1B00
3F00
3B80
3B80
3580
71C0
F1E0
ENDCHAR
STARTCHAR 049D
ENCODING 1181
SWIDTH 500 0
DWIDTH 9 0
BBX 9 8 0 0
BITMAP
7980
3280
3400
3800
6C00
6E00
6600
E300
ENDCHAR
STARTCHAR 049E
ENCODING 1182
SWIDTH 666 0
DWIDTH 12 0
BBX 13 12 0 0
BITMAP
1F38
0E78
0C40
3E80
1C80
1900
1F00
3B80
3B80
3180
71C0
F1E0
ENDCHAR
STARTCHAR 049F
ENCODING 1183
SWIDTH 500 0
DWIDTH 9 0
BBX 9 12 0 0
BITMAP
3C00
1800
7E00
1800
3980
3280
3400
7800
6C00
6600
6600
E300
ENDCHAR
STARTCHAR 04A0
ENCODING 1184
SWIDTH 833 0
DWIDTH 15 0
BBX 14 12 2 0
BITMAP
7F1C
4E3C
8E40
0E40
0C80
1D00
1F80
1980
39C0
39C0
38C0
78E0
ENDCHAR
STARTCHAR 04A1
ENCODING 1185
SWIDTH 555 0
DWIDTH 10 0
BBX 9 8 1 0
BITMAP
F980
3280
3200
3C00
7600
6600
6300
6300
ENDCHAR
STARTCHAR 04A2
ENCODING 1186
SWIDTH 777 0
DWIDTH 14 0
BBX 15 15 0 -4
BITMAP
1F3E
0E1C
0C18
1C38
1C38
1C30
3FF0
3870
3870
3060
70E0
F1E0
0030
0010
0010
ENDCHAR
STARTCHAR 04A3
ENCODING 1187
SWIDTH 555 0
DWIDTH 10 0
BBX 9 11 0 -4
BITMAP
7980
3180
3380
7F00
6300
6700
6680
E700
0100
0100
0100
ENDCHAR
STARTCHAR 04A4
ENCODING 1188
SWIDTH 1000 0
DWIDTH 18 0
BBX 19 12 0 0
BITMAP
1F3FE0
0E1C20
0C1820
1C3800
1C3800
1C3000
3FF000
387000
387000
306000
70E000
F1E000
ENDCHAR
STARTCHAR 04A5
ENCODING 1189
SWIDTH 611 0
DWIDTH 11 0
BBX 12 8 0 0
BITMAP
79F0
3190
3380
7F00
6300
6700
6680
E700
ENDCHAR
STARTCHAR 04A6
ENCODING 1190
SWIDTH 1111 0
DWIDTH 20 0
BBX 19 16 0 -4
BITMAP
1FFE00
0E1C00
0C1800
1C3800
1C3800
1833C0
387C60
387060
387060
306060
70E060
F1E0E0
0000C0
0041C0
004180
003E00
ENDCHAR
STARTCHAR 04A7
ENCODING 1191
SWIDTH 777 0
DWIDTH 14 0
BBX 13 12 0 -4
BITMAP
3980
3780
3B80
3380
73F0
6338
6798
E718
0038
0030
0460
0780
ENDCHAR
STARTCHAR 04A8
ENCODING 1192
SWIDTH 722 0
DWIDTH 13 0
BBX 12 12 1 0
BITMAP
07E0
1DB0
3BB0
7330
6730
E730
E670
E660
E6E0
E6C0
6780
3FC0
ENDCHAR
STARTCHAR 04A9
ENCODING 1193
SWIDTH 500 0
DWIDTH 9 0
BBX 9 8 0 0
BITMAP
0D00
3680
7480
6D80
ED80
ED00
6F00
7F00
ENDCHAR
STARTCHAR 04AA
ENCODING 1194
SWIDTH 666 0
DWIDTH 12 0
BBX 12 16 1 -4
BITMAP
03F0
0C30
3800
7000
7000
E000
E000
E000
E000
6040
7080
3F00
0400
0400
0C00
3800
ENDCHAR
STARTCHAR 04AB
ENCODING 1195
SWIDTH 444 0
DWIDTH 8 0
BBX 8 12 0 -4
BITMAP
0E
33
23
60
60
E0
62
7C
30
10
30
E0
ENDCHAR
STARTCHAR 04AC
ENCODING 1196
SWIDTH 611 0
DWIDTH 11 0
BBX 10 15 2 -4
BITMAP
7FC0
CE40
8C40
1C00
1C00
1C00
1800
3800
3800
3000
7000
F000
1800
0800
0800
ENDCHAR
STARTCHAR 04AD
ENCODING 1197
SWIDTH 777 0
DWIDTH 14 0
BBX 13 11 0 -4
BITMAP
7B98
37B8
3BF8
73B0
7330
6730
6678
E670
0020
0020
0020
ENDCHAR
STARTCHAR 04AE
ENCODING 1198
SWIDTH 611 0
DWIDTH 11 0
BBX 9 12 3 0
BITMAP
F180
6100
6100
7200
7400
3800
3800
3000
7000
7000
6000
F000
ENDCHAR
STARTCHAR 04AF
ENCODING 1199
SWIDTH 500 0
DWIDTH 9 0
BBX 8 12 1 -4
BITMAP
71
62
62
74
78
78
70
70
60
60
60
E0
ENDCHAR
STARTCHAR 04B0
ENCODING 1200
SWIDTH 611 0
DWIDTH 11 0
BBX 10 12 2 0
BITMAP
78C0
7080
3080
3900
3A00
3C00
1C00
FF00
3800
3800
3000
7800
ENDCHAR
STARTCHAR 04B1
ENCODING 1201
SWIDTH 500 0
DWIDTH 9 0
BBX 9 12 0 -4
BITMAP
3880
3100
3100
3A00
3C00
3C00
3800
FE00
3000
3000
3000
7000
ENDCHAR
STARTCHAR 04B2
ENCODING 1202
SWIDTH 666 0
DWIDTH 12 0
BBX 14 15 -1 -4
BITMAP
1E1C
0E18
0710
0720
0340
0380
0380
05C0
09C0
10C0
20E0
E0F0
0030
0010
0010
ENDCHAR
STARTCHAR 04B3
ENCODING 1203
SWIDTH 500 0
DWIDTH 9 0
BBX 10 10 -1 -4
BITMAP
38C0
1DC0
0E00
0C00
0E00
1600
F780
C380
0180
0080
ENDCHAR
STARTCHAR 04B4
ENCODING 1204
SWIDTH 777 0
DWIDTH 14 0
BBX 15 15 0 -4
BITMAP
7FDE
4C9C
8C18
1C38
1C38
1830
3870
3870
3870
3060
70E0
7FE0
8030
0010
0010
ENDCHAR
STARTCHAR 04B5
ENCODING 1205
SWIDTH 555 0
DWIDTH 10 0
BBX 8 15 1 -4
BITMAP
1D
1F
02
00
F3
63
67
E6
CE
DE
ED
CE
02
02
02
ENDCHAR
STARTCHAR 04B6
ENCODING 1206
SWIDTH 722 0
DWIDTH 13 0
BBX 12 16 2 -4
BITMAP
78F0
70E0
70E0
70C0
60C0
E1C0
E3C0
7D80
0380
0380
0300
0780
00C0
0080
0080
0080
ENDCHAR
STARTCHAR 04B7
ENCODING 1207
SWIDTH 500 0
DWIDTH 9 0
BBX 8 11 1 -4
BITMAP
E7
66
E6
CE
FC
0C
0E
0C
04
0C
08
ENDCHAR
STARTCHAR 04B8
ENCODING 1208
SWIDTH 722 0
DWIDTH 13 0
BBX 12 12 2 0
BITMAP
78F0
70E0
74E0
64C0
E5C0
E9C0
7FC0
0980
0380
0380
0300
0780
ENDCHAR
STARTCHAR 04B9
ENCODING 1209
SWIDTH 500 0
DWIDTH 9 0
BBX 8 8 1 0
BITMAP
E7
66
F6
D6
FC
2C
2C
0E
ENDCHAR
STARTCHAR 04BA
ENCODING 1210
SWIDTH 722 0
DWIDTH 13 0
BBX 12 12 0 0
BITMAP
0E00
0E00
0C00
1C00
1C00
1DE0
3E70
3870
3870
3060
70E0
F1E0
ENDCHAR
STARTCHAR 04BB
ENCODING 1211
SWIDTH 555 0
DWIDTH 10 0
BBX 9 12 0 0
BITMAP
3C00
1C00
1800
1800
3B80
3780
3B80
3300
7300
6300
6680
E700
ENDCHAR
STARTCHAR 04BC
ENCODING 1212
SWIDTH 888 0
DWIDTH 16 0
BBX 15 12 1 0
BITMAP
01F8
070C
6E0C
FC0E
9C0E
FFFC
1C00
1C00
1C00
1C08
0E10
07E0
ENDCHAR
STARTCHAR 04BD
ENCODING 1213
SWIDTH 555 0
DWIDTH 10 0
BBX 10 8 0 0
BITMAP
03C0
64C0
ECC0
9900
7E00
3800
1800
1F00
ENDCHAR
STARTCHAR 04BE
ENCODING 1214
SWIDTH 888 0
DWIDTH 16 0
BBX 15 15 1 -3
BITMAP
00F8
030C
660C
EE0E
9C0E
9C1C
7FFC
1C00
1C00
1C08
0C10
07E0
0100
0300
0200
ENDCHAR
STARTCHAR 04BF
ENCODING 1215
SWIDTH 555 0
DWIDTH 10 0
BBX 10 11 0 -3
BITMAP
03C0
64C0
ECC0
9980
7E00
3800
3800
1F00
0800
0800
0800
ENDCHAR
STARTCHAR 04C0
ENCODING 1216
SWIDTH 388 0
DWIDTH 7 0
BBX 8 12 0 0
BITMAP
1F
0E
0C
1C
1C
18
38
38
38
30
70
F0
ENDCHAR
STARTCHAR 04C1
ENCODING 1217
SWIDTH 944 0
DWIDTH 17 0
BBX 19 15 -1 0
BITMAP
004200
006600
001800
0EF8C0
0E31E0
027200
027200
026400
01F800
07FC00
0EEC00
1CCE00
39CE00
39CE00
F3C700
ENDCHAR
STARTCHAR 04C2
ENCODING 1218
SWIDTH 944 0
DWIDTH 17 0
BBX 17 12 0 0
BITMAP
010800
019800
006000
000000
1CE380
7CCD80
0CC800
0FF800
0D9800
C99800
D19D00
A38E00
ENDCHAR
STARTCHAR 04C3
ENCODING 1219
SWIDTH 666 0
DWIDTH 12 0
BBX 13 16 0 -4
BITMAP
1F38
0E38
0C40
1C80
1C80
1900
3FC0
3860
3870
3070
7070
F060
0060
40C0
6180
1E00
ENDCHAR
STARTCHAR 04C4
ENCODING 1220
SWIDTH 500 0
DWIDTH 9 0
BBX 9 12 0 -4
BITMAP
7980
3280
3200
3400
7E00
6300
6300
E300
0300
0600
C400
F800
ENDCHAR
STARTCHAR 04C5
ENCODING 1221
SWIDTH 666 0
DWIDTH 12 0
BBX 14 16 -1 -4
BITMAP
03FC
0238
0238
0430
0470
0470
0860
08E0
08E0
10E0
D0C0
E1E0
0020
0020
0020
0020
ENDCHAR
STARTCHAR 04C6
ENCODING 1222
SWIDTH 500 0
DWIDTH 9 0
BBX 9 11 -1 -4
BITMAP
0F80
0980
1180
1380
1300
2300
E780
C300
0200
0200
0200
ENDCHAR
STARTCHAR 04C7
ENCODING 1223
SWIDTH 777 0
DWIDTH 14 0
BBX 15 16 0 -4
BITMAP
1F3E
0E1C
0C18
1C38
1C38
1C30
3FF0
3870
3870
3060
70E0
F0E0
00C0
01C0
4300
BE00
ENDCHAR
STARTCHAR 04C8
ENCODING 1224
SWIDTH 555 0
DWIDTH 10 0
BBX 10 12 -1 -4
BITMAP
3CC0
18C0
19C0
1980
3F80
3180
3300
7300
0300
0600
C400
F800
ENDCHAR
STARTCHAR 04C9
ENCODING 1225
SWIDTH 777 0
DWIDTH 14 0
BBX 15 15 0 -4
BITMAP
1F3E
0E1C
0C18
1C38
1C38
1C30
3FF0
3870
3870
3060
70E0
F1E0
0030
0010
0010
ENDCHAR
STARTCHAR 04CA
ENCODING 1226
SWIDTH 555 0
DWIDTH 10 0
BBX 9 11 0 -4
BITMAP
7980
3180
3380
7F00
6300
6700
6680
E700
0100
0100
0100
ENDCHAR
STARTCHAR 04CB
ENCODING 1227
SWIDTH 722 0
DWIDTH 13 0
BBX 12 15 2 -4
BITMAP
78F0
70E0
70E0
70C0
60C0
E1C0
E3C0
7D80
0380
0380
0300
0780
0C00
1800
1000
ENDCHAR
STARTCHAR 04CC
ENCODING 1228
SWIDTH 500 0
DWIDTH 9 0
BBX 8 11 1 -4
BITMAP
E7
66
E6
CE
FC
0C
0E
0C
10
30
20
ENDCHAR
STARTCHAR 04CD
ENCODING 1229
SWIDTH 888 0
DWIDTH 16 0
BBX 17 15 0 -4
BITMAP
1E0780
0E0F00
161600
161E00
162E00
264C00
265C00
279C00
271C00
471800
463800
E07800
000C00
000800
000800
ENDCHAR
STARTCHAR 04CE
ENCODING 1230
SWIDTH 666 0
DWIDTH 12 0
BBX 13 11 -1 -4
BITMAP
1E38
0E70
16B0
16F0
1760
2660
E670
C460
0020
0060
0040
ENDCHAR
STARTCHAR 04CF
ENCODING 1231
SWIDTH 277 0
DWIDTH 5 0
BBX 6 12 0 0
BITMAP
3C
18
18
38
30
30
30
60
60
60
F0
E0
ENDCHAR
STARTCHAR 04D0
ENCODING 1232
SWIDTH 666 0
DWIDTH 12 0
BBX 13 15 0 0
BITMAP
0188
0198
0060
0040
00C0
00C0
01C0
03C0
05C0
09C0
1FC0
21C0
41C0
41C0
C1C0
ENDCHAR
STARTCHAR 04D1
ENCODING 1233
SWIDTH 500 0
DWIDTH 9 0
BBX 10 12 0 0
BITMAP
18C0
0880
0700
0000
1F00
3300
7300
6700
6600
EE00
F700
6600
ENDCHAR
STARTCHAR 04D2
ENCODING 1234
SWIDTH 666 0
DWIDTH 12 0
BBX 13 15 0 1
BITMAP
01D8
00D8
0000
0040
00C0
00C0
01C0
03C0
05C0
09C0
1FC0
21C0
41C0
41C0
C1C0
ENDCHAR
STARTCHAR 04D3
ENCODING 1235
SWIDTH 500 0
DWIDTH 9 0
BBX 9 12 0 0
BITMAP
0D80
0D80
0000
0000
1F00
3300
7300
6700
6600
EE00
F700
6600
ENDCHAR
STARTCHAR 04D4
ENCODING 1236
SWIDTH 944 0
DWIDTH 17 0
BBX 18 12 -1 0
BITMAP
007FC0
007840
00B840
013040
027100
027E00
046200
0FE200
10E000
20E080
20C300
E1FF00
ENDCHAR
STARTCHAR 04D5
ENCODING 1237
SWIDTH 722 0
DWIDTH 13 0
BBX 13 8 0 0
BITMAP
0DF8
3398
3330
6320
67C0
EF00
F700
63E0
ENDCHAR
STARTCHAR 04D6
ENCODING 1238
SWIDTH 666 0
DWIDTH 12 0
BBX 12 15 0 0
BITMAP
0630
0220
01C0
1FF0
0E10
0C10
1C10
1C40
1F80
3880
3880
3800
3000
70C0
FFC0
ENDCHAR
STARTCHAR 04D7
ENCODING 1239
SWIDTH 444 0
DWIDTH 8 0
BBX 9 12 0 0
BITMAP
1880
1980
0600
0000
0F00
1300
3600
6400
7800
E000
6000
7C00
ENDCHAR
STARTCHAR 04D8
ENCODING 1240
SWIDTH 722 0
DWIDTH 13 0
BBX 12 12 1 0
BITMAP
1FC0
18E0
0060
0070
0070
FFF0
E070
E0E0
E0E0
E1C0
6380
3E00
ENDCHAR
STARTCHAR 04D9
ENCODING 1241
SWIDTH 444 0
DWIDTH 8 0
BBX 8 8 0 0
BITMAP
1E
26
07
0E
76
CC
C8
F0
ENDCHAR
STARTCHAR 04DA
ENCODING 1242
SWIDTH 722 0
DWIDTH 13 0
BBX 12 15 1 1
BITMAP
0EC0
06C0
0000
1FC0
18E0
0060
0070
0070
FFF0
E070
E0E0
E0E0
E1C0
6380
3E00
ENDCHAR
STARTCHAR 04DB
ENCODING 1243
SWIDTH 444 0
DWIDTH 8 0
BBX 8 12 0 0
BITMAP
1B
1B
00
00
1E
26
07
0E
76
CC
C8
F0
ENDCHAR
STARTCHAR 04DC
ENCODING 1244
SWIDTH 944 0
DWIDTH 17 0
BBX 19 15 -1 1
BITMAP
006C00
006C00
000000
0EF8C0
0E31E0
027200
027200
026400
01F800
07FC00
0EEC00
1CCE00
39CE00
39CE00
F3C700
ENDCHAR
STARTCHAR 04DD
ENCODING 1245
SWIDTH 944 0
DWIDTH 17 0
BBX 17 12 0 0
BITMAP
00D800
01D800
000000
000000
1CE380
7CCD80
0CC800
0FF800
0D9800
C99800
D19D00
A38E00
ENDCHAR
STARTCHAR 04DE
ENCODING 1246
SWIDTH 500 0
DWIDTH 9 0
BBX 9 15 0 1
BITMAP
0D80
0D80
0000
1F00
2180
2180
0380
0700
1C00
0700
0300
0300
0700
8E00
7C00
ENDCHAR
STARTCHAR 04DF
ENCODING 1247
SWIDTH 388 0
DWIDTH 7 0
BBX 6 12 1 0
BITMAP
6C
6C
00
00
F8
9C
18
60
18
38
30
E0
ENDCHAR
STARTCHAR 04E0
ENCODING 1248
SWIDTH 555 0
DWIDTH 10 0
BBX 11 12 0 0
BITMAP
1FE0
31C0
2380
0700
0E00
1E00
0700
0300
0300
0700
8E00
7C00
ENDCHAR
STARTCHAR 04E1
ENCODING 1249
SWIDTH 444 0
DWIDTH 8 0
BBX 10 12 -1 -4
BITMAP
1FC0
2380
0700
0C00
1800
0E00
0600
0600
0600
0600
0C00
F800
ENDCHAR
STARTCHAR 04E2
ENCODING 1250
SWIDTH 777 0
DWIDTH 14 0
BBX 14 14 0 1
BITMAP
03F8
0000
1F3C
0E1C
0C38
1C78
1CB8
1930
3A70
3C70
3C70
3860
70E0
F1E0
ENDCHAR
STARTCHAR 04E3
ENCODING 1251
SWIDTH 555 0
DWIDTH 10 0
BBX 9 11 1 1
BITMAP
3F80
0000
0000
F300
6300
6700
E600
CE00
DE00
ED00
CE00
ENDCHAR
STARTCHAR 04E4
ENCODING 1252
SWIDTH 777 0
DWIDTH 14 0
BBX 14 15 0 1
BITMAP
01B0
01B0
0000
1F3C
0E1C
0C38
1C78
1CB8
1930
3A70
3C70
3C70
3860
70E0
F1E0
ENDCHAR
STARTCHAR 04E5
ENCODING 1253
SWIDTH 555 0
DWIDTH 10 0
BBX 8 12 1 0
BITMAP
1B
1B
00
00
F3
63
67
E6
CE
DE
ED
CE
ENDCHAR
STARTCHAR 04E6
ENCODING 1254
SWIDTH 722 0
DWIDTH 13 0
BBX 12 15 1 1
BITMAP
0760
0260
0000
07C0
0C60
3870
3070
7070
E070
E0E0
E0E0
E0C0
E180
6300
3E00
ENDCHAR
STARTCHAR 04E7
ENCODING 1255
SWIDTH 500 0
DWIDTH 9 0
BBX 9 12 0 0
BITMAP
0980
1D80
0000
0000
0E00
3300
7300
6300
6300
E600
6600
6800
ENDCHAR
STARTCHAR 04E8
ENCODING 1256
SWIDTH 722 0
DWIDTH 13 0
BBX 12 12 1 0
BITMAP
07C0
0C60
3870
7070
7070
FFF0
E0E0
E0E0
E0C0
E1C0
6300
3E00
ENDCHAR
STARTCHAR 04E9
ENCODING 1257
SWIDTH 500 0
DWIDTH 9 0
BBX 8 8 0 0
BITMAP
0F
33
73
7F
63
E6
66
68
ENDCHAR
STARTCHAR 04EA
ENCODING 1258
SWIDTH 722 0
DWIDTH 13 0
BBX 12 15 1 1
BITMAP
0760
0260
0000
07C0
0C60
3870
7070
7070
FFF0
E0E0
E0E0
E0C0
E1C0
6300
3E00
ENDCHAR
STARTCHAR 04EB
ENCODING 1259
SWIDTH 500 0
DWIDTH 9 0
BBX 9 12 0 0
BITMAP
0980
1D80
0000
0000
0F00
3300
7300
7F00
6300
E600
6600
6800
ENDCHAR
STARTCHAR 04EC
ENCODING 1260
SWIDTH 666 0
DWIDTH 12 0
BBX 11 15 0 1
BITMAP
0EC0
06C0
0000
1F80
10C0
20E0
0060
0060
0FE0
00E0
00E0
01C0
81C0
4380
3E00
ENDCHAR
STARTCHAR 04ED
ENCODING 1261
SWIDTH 388 0
DWIDTH 7 0
BBX 6 12 1 0
BITMAP
6C
6C
00
00
F8
8C
1C
7C
18
38
30
E0
ENDCHAR
STARTCHAR 04EE
ENCODING 1262
SWIDTH 722 0
DWIDTH 13 0
BBX 12 15 2 1
BITMAP
0FC0
0000
0000
78F0
3040
3840
3880
1880
1D00
1E00
0E00
0C00
C800
C800
F000
ENDCHAR
STARTCHAR 04EF
ENCODING 1263
SWIDTH 444 0
DWIDTH 8 0
BBX 11 15 -2 -3
BITMAP
07E0
0000
0000
18C0
1CC0
0C40
0C80
0C80
0D00
0E00
0E00
0C00
0800
F000
6000
ENDCHAR
STARTCHAR 04F0
ENCODING 1264
SWIDTH 722 0
DWIDTH 13 0
BBX 12 15 2 1
BITMAP
0DC0
0C80
0000
78F0
3040
3840
3880
1880
1D00
1E00
0E00
0C00
C800
C800
F000
ENDCHAR
STARTCHAR 04F1
ENCODING 1265
SWIDTH 444 0
DWIDTH 8 0
BBX 11 16 -2 -4
BITMAP
0640
06E0
0000
0000
18C0
1CC0
0C40
0C80
0C80
0D00
0E00
0E00
0C00
0800
F000
6000
ENDCHAR
STARTCHAR 04F2
ENCODING 1266
SWIDTH 722 0
DWIDTH 13 0
BBX 12 16 2 0
BITMAP
06C0
0680
0480
0000
78F0
3040
3840
3880
1880
1D00
1E00
0E00
0C00
C800
C800
F000
ENDCHAR
STARTCHAR 04F3
ENCODING 1267
SWIDTH 444 0
DWIDTH 8 0
BBX 11 16 -2 -4
BITMAP
0360
0240
0240
0000
18C0
1CC0
0C40
0C80
0C80
0D00
0E00
0E00
0C00
0800
F000
6000
ENDCHAR
STARTCHAR 04F4
ENCODING 1268
SWIDTH 722 0
DWIDTH 13 0
BBX 12 15 2 1
BITMAP
0DC0
0C80
0000
79F0
70E0
70E0
60C0
E1C0
E1C0
7FC0
0180
0380
0380
0300
0F80
ENDCHAR
STARTCHAR 04F5
ENCODING 1269
SWIDTH 500 0
DWIDTH 9 0
BBX 8 12 1 0
BITMAP
32
37
00
00
E7
66
E6
CE
FC
0C
0E
0C
ENDCHAR
STARTCHAR 04F6
ENCODING 1270
SWIDTH 611 0
DWIDTH 11 0
BBX 12 15 0 -4
BITMAP
1FF0
0E10
0C10
1C00
1C00
1800
3800
3800
3800
3000
7000
F000
1800
0800
0800
ENDCHAR
STARTCHAR 04F7
ENCODING 1271
SWIDTH 388 0
DWIDTH 7 0
BBX 7 11 0 -4
BITMAP
1C
26
0C
18
20
C0
C4
F8
20
30
20
ENDCHAR
STARTCHAR 04F8
ENCODING 1272
SWIDTH 944 0
DWIDTH 17 0
BBX 18 15 0 1
BITMAP
00EC00
004C00
000000
1E03C0
0E0380
0C0380
1C0300
1C0700
1C0700
3F0700
39C600
38CE00
31CE00
71CC00
FF3E00
ENDCHAR
STARTCHAR 04F9
ENCODING 1273
SWIDTH 666 0
DWIDTH 12 0
BBX 11 12 1 0
BITMAP
0980
1D80
0000
0000
70E0
60C0
60C0
FCC0
EDC0
CD80
DD80
F1C0
ENDCHAR
STARTCHAR 04FA
ENCODING 1274
SWIDTH 611 0
DWIDTH 11 0
BBX 12 16 0 -4
BITMAP
1FF0
0E10
0C10
1C00
1C00
1C00
7F00
3800
3800
3000
7000
F000
0800
0800
7000
7000
ENDCHAR
STARTCHAR 04FB
ENCODING 1275
SWIDTH 388 0
DWIDTH 7 0
BBX 7 12 0 -4
BITMAP
1C
26
2C
18
30
C8
C4
FC
08
28
68
70
ENDCHAR
STARTCHAR 04FC
ENCODING 1276
SWIDTH 666 0
DWIDTH 12 0
BBX 14 16 -1 -4
BITMAP
1E1C
0E18
0710
0720
0340
0380
0380
05C0
09C0
10C0
20E0
E060
0070
0070
01A0
01E0
ENDCHAR
STARTCHAR 04FD
ENCODING 1277
SWIDTH 500 0
DWIDTH 9 0
BBX 10 12 -1 -4
BITMAP
38C0
1DC0
0E00
0C00
0E00
1600
F600
C700
0300
0300
1B00
0E00
ENDCHAR
STARTCHAR 04FE
ENCODING 1278
SWIDTH 666 0
DWIDTH 12 0
BBX 14 12 -1 0
BITMAP
1E1C
0E18
0720
0740
0380
1FF0
0380
05C0
09C0
10E0
20E0
E0F0
ENDCHAR
STARTCHAR 04FF
ENCODING 1279
SWIDTH 500 0
DWIDTH 9 0
BBX 10 8 -1 0
BITMAP
38C0
1DC0
0E00
3F80
0E00
1600
E780
C300
ENDCHAR
STARTCHAR 0500
ENCODING 1280
SWIDTH 611 0
DWIDTH 11 0
BBX 12 12 0 0
BITMAP
00F0
00E0
00C0
00C0
01C0
0180
1F80
7380
6380
E300
6700
3F00
ENDCHAR
STARTCHAR 0501
ENCODING 1281
SWIDTH 500 0
DWIDTH 9 0
BBX 10 12 0 0
BITMAP
01C0
0180
0180
0180
1F00
3300
7300
6700
6600
EE00
F700
6600
ENDCHAR
STARTCHAR 0502
ENCODING 1282
SWIDTH 777 0
DWIDTH 14 0
BBX 14 12 0 0
BITMAP
00F0
00E0
00C0
01C0
01C0
1F8C
738C
7398
E398
E318
6730
3FE0
ENDCHAR
STARTCHAR 0503
ENCODING 1283
SWIDTH 722 0
DWIDTH 13 0
BBX 12 12 0 0
BITMAP
01C0
0180
0180
0180
1F00
3300
7300
6700
6630
EE70
F660
66C0
ENDCHAR
STARTCHAR 0504
ENCODING 1284
SWIDTH 777 0
DWIDTH 14 0
BBX 12 12 2 0
BITMAP
7C00
4600
8600
0E00
1C00
7030
1C70
0C60
1C60
1CE0
1CC0
0D80
ENDCHAR
STARTCHAR 0505
ENCODING 1285
SWIDTH 666 0
DWIDTH 12 0
BBX 10 8 1 0
BITMAP
F800
9C00
1800
6000
18C0
1980
3980
1A00
ENDCHAR
STARTCHAR 0506
ENCODING 1286
SWIDTH 555 0
DWIDTH 10 0
BBX 7 16 2 -4
BITMAP
7C
4E
86
06
0C
18
70
1C
0C
1C
1C
18
0E
04
04
04
ENDCHAR
STARTCHAR 0507
ENCODING 1287
SWIDTH 388 0
DWIDTH 7 0
BBX 6 11 1 -4
BITMAP
F8
9C
18
60
18
18
3C
38
10
10
10
ENDCHAR
STARTCHAR 0508
ENCODING 1288
SWIDTH 888 0
DWIDTH 16 0
BBX 16 12 -1 0
BITMAP
03FC
0238
0238
0430
0470
0473
0863
08E3
08E7
10E6
D0C4
E078
ENDCHAR
STARTCHAR 0509
ENCODING 1289
SWIDTH 722 0
DWIDTH 13 0
BBX 13 8 -1 0
BITMAP
0F80
0980
1180
1398
1318
2338
E330
C360
ENDCHAR
STARTCHAR 050A
ENCODING 1290
SWIDTH 1000 0
DWIDTH 18 0
BBX 17 12 0 0
BITMAP
1F3E00
0E1C00
0C1800
1C3800
1C3800
1FF180
387380
387300
306300
30E300
70E600
F07C00
ENDCHAR
STARTCHAR 050B
ENCODING 1291
SWIDTH 722 0
DWIDTH 13 0
BBX 13 8 0 0
BITMAP
7980
3180
3380
7F18
6338
6730
6630
E3C0
ENDCHAR
STARTCHAR 050C
ENCODING 1292
SWIDTH 722 0
DWIDTH 13 0
BBX 12 12 1 0
BITMAP
07F0
1C10
3810
7000
7000
E000
E1F0
E0E0
E0C0
61C0
7180
1F00
ENDCHAR
STARTCHAR 050D
ENCODING 1293
SWIDTH 500 0
DWIDTH 9 0
BBX 9 8 0 0
BITMAP
0F80
3080
6000
6000
E780
6300
6700
3C00
ENDCHAR
STARTCHAR 050E
ENCODING 1294
SWIDTH 722 0
DWIDTH 13 0
BBX 10 12 2 0
BITMAP
7FC0
CE40
8C40
1C00
1C00
1CC0
18C0
39C0
3980
3180
3300
3E00
ENDCHAR
STARTCHAR 050F
ENCODING 1295
SWIDTH 944 0
DWIDTH 17 0
BBX 17 8 0 0
BITMAP
7B9800
37B800
3BF800
33B000
733180
677300
667300
E63C00
ENDCHAR
STARTCHAR 0510
ENCODING 1296
SWIDTH 500 0
DWIDTH 9 0
BBX 10 12 0 0
BITMAP
07C0
0C40
1840
1800
1800
0E00
3800
6000
E000
E000
E200
7C00
ENDCHAR
STARTCHAR 0511
ENCODING 1297
SWIDTH 388 0
DWIDTH 7 0
BBX 7 8 0 0
BITMAP
1E
20
20
18
60
C0
C0
78
ENDCHAR
STARTCHAR 0512
ENCODING 1298
SWIDTH 666 0
DWIDTH 12 0
BBX 14 16 -1 -4
BITMAP
03FC
0238
0238
0430
0470
0470
0860
08E0
08E0
10E0
D0C0
E1C0
01C0
0180
0F80
0A00
ENDCHAR
STARTCHAR 0513
ENCODING 1299
SWIDTH 500 0
DWIDTH 9 0
BBX 9 12 -1 -4
BITMAP
0F80
0980
1180
1380
1300
2300
E700
C600
0600
0600
2C00
3800
ENDCHAR
STARTCHAR 0514
ENCODING 1300
SWIDTH 1000 0
DWIDTH 18 0
BBX 20 12 -1 0
BITMAP
03F870
023860
0218C0
041D00
041E00
040E00
080E00
081600
082700
104300
D08380
E383C0
ENDCHAR
STARTCHAR 0515
ENCODING 1301
SWIDTH 722 0
DWIDTH 13 0
BBX 14 8 -1 0
BITMAP
1F8C
08DC
10E0
10C0
10E0
20E0
E770
CE38
ENDCHAR
STARTCHAR 0516
ENCODING 1302
SWIDTH 833 0
DWIDTH 15 0
BBX 15 12 1 0
BITMAP
3F8E
1CCC
18E8
38F0
39E0
31C0
3FC0
70C0
70E0
6060
E070
E078
ENDCHAR
STARTCHAR 0517
ENCODING 1303
SWIDTH 666 0
DWIDTH 12 0
BBX 14 12 -2 -4
BITMAP
1DCC
0ED0
0CE0
18E0
18E0
19F0
39B0
3A38
3400
3000
7000
F000
ENDCHAR
STARTCHAR 0518
ENCODING 1304
SWIDTH 944 0
DWIDTH 17 0
BBX 18 12 -1 0
BITMAP
03FFC0
0F3840
0E3840
0E3040
0E7100
067F00
07E200
0E6000
1CE000
3CE080
38C180
F1FF00
ENDCHAR
STARTCHAR 0519
ENCODING 1305
SWIDTH 666 0
DWIDTH 12 0
BBX 13 8 -1 0
BITMAP
0FB8
19D8
1998
0FB0
1BC0
3B00
3390
E1E0
ENDCHAR
STARTCHAR 051A
ENCODING 1306
SWIDTH 722 0
DWIDTH 13 0
BBX 12 16 1 -4
BITMAP
07C0
0C60
3870
3070
7070
7070
E070
E0E0
E0E0
E1C0
E180
6300
1C00
2000
7F60
BF80
ENDCHAR
STARTCHAR 051B
ENCODING 1307
SWIDTH 500 0
DWIDTH 9 0
BBX 9 12 0 -4
BITMAP
1D80
3300
7300
6300
6600
E600
FE00
6E00
0C00
0C00
0C00
1C00
ENDCHAR
STARTCHAR 051C
ENCODING 1308
SWIDTH 888 0
DWIDTH 16 0
BBX 16 12 2 0
BITMAP
73C7
71C4
7184
7388
7590
65A0
69A0
73C0
6380
6380
C300
8200
ENDCHAR
STARTCHAR 051D
ENCODING 1309
SWIDTH 666 0
DWIDTH 12 0
BBX 11 8 1 0
BITMAP
E260
6660
6E60
7640
7680
6680
4700
0400
ENDCHAR
STARTCHAR 051E
ENCODING 1310
SWIDTH 666 0
DWIDTH 12 0
BBX 12 12 0 0
BITMAP
1E70
0EA0
0CC0
1DC0
1F40
1F00
3B00
3B80
3B80
3180
71C0
F3E0
ENDCHAR
STARTCHAR 051F
ENCODING 1311
SWIDTH 555 0
DWIDTH 10 0
BBX 10 8 0 0
BITMAP
7AC0
33C0
3400
3C00
7E00
6600
6600
E700
ENDCHAR
STARTCHAR 0520
ENCODING 1312
SWIDTH 1000 0
DWIDTH 18 0
BBX 18 16 -1 -4
BITMAP
03FC00
023800
023800
043000
047000
047780
0879C0
08E0C0
08E1C0
10E1C0
D0C180
E1E380
000380
006300
006600
003C00
ENDCHAR
STARTCHAR 0521
ENCODING 1313
SWIDTH 722 0
DWIDTH 13 0
BBX 13 12 -1 -4
BITMAP
0F80
0980
1180
1380
13F0
2318
E798
C318
0018
0030
0620
07C0
ENDCHAR
STARTCHAR 0522
ENCODING 1314
SWIDTH 1111 0
DWIDTH 20 0
BBX 19 16 0 -4
BITMAP
1F3E00
0E1C00
0C1800
1C3800
1C3800
1C3BC0
3FFCE0
3870E0
3870E0
3060C0
70E1C0
F1E1C0
000180
003380
003700
003C00
ENDCHAR
STARTCHAR 0523
ENCODING 1315
SWIDTH 722 0
DWIDTH 13 0
BBX 13 12 0 -4
BITMAP
7980
3180
3380
3300
7FF0
6338
6798
E718
0038
0030
0460
0780
ENDCHAR
STARTCHAR 0524
ENCODING 1316
SWIDTH 777 0
DWIDTH 14 0
BBX 14 15 0 -4
BITMAP
1FFC
0E1C
0C18
1C38
1C38
1830
3870
3870
3870
3060
70E0
F1E0
0030
0010
0010
ENDCHAR
STARTCHAR 0525
ENCODING 1317
SWIDTH 555 0
DWIDTH 10 0
BBX 9 11 0 -4
BITMAP
7B80
3780
3B80
3300
7300
6300
6780
E700
0100
0100
0100
ENDCHAR
STARTCHAR 0526
ENCODING 1318
SWIDTH 722 0
DWIDTH 13 0
BBX 12 15 0 -4
BITMAP
0E00
0E00
0C00
1C00
1C00
1DE0
3E70
3870
3870
3060
70E0
F1F0
0030
0010
0010
ENDCHAR
STARTCHAR 0527
ENCODING 1319
SWIDTH 555 0
DWIDTH 10 0
BBX 9 15 0 -4
BITMAP
3C00
1C00
1800
1800
3B80
3780
3B80
3300
7300
6300
6680
E700
0100
0100
0100
ENDCHAR
STARTCHAR 0528
ENCODING 1320
SWIDTH 777 0
DWIDTH 14 0
BBX 17 16 -2 -4
BITMAP
07CF80
038700
030600
070E00
070E00
070C00
0FFC00
0E1C00
0E1C00
0C1800
1C3800
1C7800
180000
380000
B00000
E00000
ENDCHAR
STARTCHAR 0529
ENCODING 1321
SWIDTH 555 0
DWIDTH 10 0
BBX 12 12 -3 -4
BITMAP
0F30
0630
0670
0660
0FE0
0C60
0CF0
1CE0
1800
1800
F000
E000
ENDCHAR
STARTCHAR 052A
ENCODING 1322
SWIDTH 1333 0
DWIDTH 24 0
BBX 26 16 -2 -4
BITMAP
01FE79C0
011C7180
011C7200
02387400
02386800
0238FC00
043FFC00
0470EC00
0870CE00
0871CE00
10E1C600
3FE3CF00
60300080
40100000
80100000
80100000
ENDCHAR
STARTCHAR 052B
ENCODING 1323
SWIDTH 1055 0
DWIDTH 19 0
BBX 19 12 0 0
BITMAP
080000
060000
020000
030000
0F18E0
333360
733300
63FE00
637600
E66600
646740
686380
ENDCHAR
STARTCHAR 052C
ENCODING 1324
SWIDTH 722 0
DWIDTH 13 0
BBX 15 16 -1 -4
BITMAP
0F1E
0E3C
0E5C
0C98
1CB8
1D38
0FF8
0430
0470
0870
1060
3FF0
6018
4010
8010
8010
ENDCHAR
STARTCHAR 052D
ENCODING 1325
SWIDTH 500 0
DWIDTH 9 0
BBX 11 10 -2 -2
BITMAP
1EE0
0DE0
1EC0
1CC0
0BC0
1180
2180
7F80
4080
8000
ENDCHAR
STARTCHAR 052E
ENCODING 1326
SWIDTH 666 0
DWIDTH 12 0
BBX 14 16 -1 -4
BITMAP
03FC
0238
0238
0430
0470
0470
0860
08E0
08E0
10E0
D0C0
E3E0
0060
0020
0020
0020
ENDCHAR
STARTCHAR 052F
ENCODING 1327
SWIDTH 500 0
DWIDTH 9 0
BBX 9 11 -1 -4
BITMAP
0F80
0980
1180
1380
1300
2300
E780
C300
0100
0180
0100
ENDCHAR
STARTCHAR 0531
ENCODING 1329
SWIDTH 722 0
DWIDTH 13 0
BBX 13 13 2 -1
BITMAP
7FF8
3860
30E0
70E0
70E0
70C0
60C0
E040
E280
EF80
E380
3FC0
0100
ENDCHAR
STARTCHAR 0532
ENCODING 1330
SWIDTH 722 0
DWIDTH 13 0
BBX 14 12 -1 0
BITMAP
01F0
0718
0618
0E18
0C38
1C7C
1C00
1FF0
1878
3800
3800
FC00
ENDCHAR
STARTCHAR 0533
ENCODING 1331
SWIDTH 777 0
DWIDTH 14 0
BBX 12 12 2 0
BITMAP
1F00
7180
E180
E180
C380
C380
C300
7FE0
0770
0700
0600
1F80
ENDCHAR
STARTCHAR 0534
ENCODING 1332
SWIDTH 777 0
DWIDTH 14 0
BBX 14 12 0 0
BITMAP
07C0
1C60
3860
3860
30E0
F8E0
00C0
01F8
01DC
01C0
0180
07C0
ENDCHAR
STARTCHAR 0535
ENCODING 1333
SWIDTH 666 0
DWIDTH 12 0
BBX 11 12 2 0
BITMAP
7C00
3800
3000
7000
7FC0
61E0
E000
E3C0
C380
C380
C300
7C00
ENDCHAR
STARTCHAR 0536
ENCODING 1334
SWIDTH 722 0
DWIDTH 13 0
BBX 13 13 0 -2
BITMAP
07E0
0C30
1C30
3838
3838
3C70
0070
00E0
00C0
0180
7300
FFC0
01E0
ENDCHAR
STARTCHAR 0537
ENCODING 1335
SWIDTH 611 0
DWIDTH 11 0
BBX 13 13 -1 -2
BITMAP
0F80
0700
0600
0E00
0FF8
0C38
1C00
1C00
1C00
1800
3800
FFC0
01C0
ENDCHAR
STARTCHAR 0538
ENCODING 1336
SWIDTH 722 0
DWIDTH 13 0
BBX 14 13 -1 -2
BITMAP
01F0
0718
0618
0E18
0C38
1C7C
1C00
1C00
1800
3800
3800
FFE0
00E0
ENDCHAR
STARTCHAR 0539
ENCODING 1337
SWIDTH 888 0
DWIDTH 16 0
BBX 18 12 0 0
BITMAP
01F800
060C00
0C0600
1C0E00
1C0E00
180C00
38FF80
399DC0
3B1C00
333800
733800
F1E000
ENDCHAR
STARTCHAR 053A
ENCODING 1338
SWIDTH 777 0
DWIDTH 14 0
BBX 14 12 1 0
BITMAP
00FC
0070
0060
00E0
1FFC
70CC
61C0
E1C0
E180
E380
E300
3E00
ENDCHAR
STARTCHAR 053B
ENCODING 1339
SWIDTH 666 0
DWIDTH 12 0
BBX 13 12 -1 0
BITMAP
0F80
0700
0600
0FE0
0E30
0C38
1C38
1C30
1CF8
1800
3800
FC00
ENDCHAR
STARTCHAR 053C
ENCODING 1340
SWIDTH 555 0
DWIDTH 10 0
BBX 11 13 -1 -2
BITMAP
0F80
0700
0600
0E00
0E00
0C00
1C00
1C00
1C00
1800
3800
FFC0
01E0
ENDCHAR
STARTCHAR 053D
ENCODING 1341
SWIDTH 1000 0
DWIDTH 18 0
BBX 19 12 -1 0
BITMAP
0F8000
070000
060000
0E0000
0FF9E0
0C71C0
1C61C0
1CE1C0
18E380
38C380
38E300
FC3E00
ENDCHAR
STARTCHAR 053E
ENCODING 1342
SWIDTH 722 0
DWIDTH 13 0
BBX 12 12 2 0
BITMAP
73F0
7E70
1980
31C0
70C0
E1C0
E1C0
C1C0
C180
C380
C700
7C00
ENDCHAR
STARTCHAR 053F
ENCODING 1343
SWIDTH 666 0
DWIDTH 12 0
BBX 10 12 3 0
BITMAP
F800
7000
6000
E000
E3C0
C380
C380
C700
7F00
0700
0600
1F80
ENDCHAR
STARTCHAR 0540
ENCODING 1344
SWIDTH 611 0
DWIDTH 11 0
BBX 12 15 0 -2
BITMAP
0010
0060
00E0
00E0
0080
0300
0C00
7000
F800
7E00
1F00
0780
0300
0100
0100
ENDCHAR
STARTCHAR 0541
ENCODING 1345
SWIDTH 722 0
DWIDTH 13 0
BBX 12 12 1 -1
BITMAP
07C0
1860
3870
3070
7070
7870
0060
00C0
7C80
9F00
87C0
F900
ENDCHAR
STARTCHAR 0542
ENCODING 1346
SWIDTH 777 0
DWIDTH 14 0
BBX 13 13 0 -2
BITMAP
07C0
1C60
3860
3860
30E0
F8E0
00C0
01C0
01C0
01C0
0180
07F0
0038
ENDCHAR
STARTCHAR 0543
ENCODING 1347
SWIDTH 722 0
DWIDTH 13 0
BBX 13 12 0 1
BITMAP
1838
06F0
0300
0580
0C80
18C0
30C0
70C0
60E0
E0C0
E1C0
FFC0
ENDCHAR
STARTCHAR 0544
ENCODING 1348
SWIDTH 833 0
DWIDTH 15 0
BBX 15 12 2 0
BITMAP
7DFC
30EE
70E0
70E0
71C0
61C0
E1C0
E180
C380
C380
C700
7C00
ENDCHAR
STARTCHAR 0545
ENCODING 1349
SWIDTH 666 0
DWIDTH 12 0
BBX 11 12 1 0
BITMAP
0FC0
1CE0
1C60
00E0
70C0
7F80
E0C0
00C0
F0C0
E1C0
E180
3F00
ENDCHAR
STARTCHAR 0546
ENCODING 1350
SWIDTH 777 0
DWIDTH 14 0
BBX 12 12 2 1
BITMAP
7C00
E000
F800
3800
3800
3000
31F0
70E0
60C0
61C0
6180
1F00
ENDCHAR
STARTCHAR 0547
ENCODING 1351
SWIDTH 666 0
DWIDTH 12 0
BBX 11 12 1 0
BITMAP
3F80
07E0
07E0
1C60
3020
7000
E1E0
E0E0
E0E0
E1C0
6180
3E00
ENDCHAR
STARTCHAR 0548
ENCODING 1352
SWIDTH 722 0
DWIDTH 13 0
BBX 14 12 -1 0
BITMAP
01F0
0718
061C
0E1C
0E18
0C38
1C38
1C30
1870
3870
3870
FDF8
ENDCHAR
STARTCHAR 0549
ENCODING 1353
SWIDTH 666 0
DWIDTH 12 0
BBX 11 13 2 -2
BITMAP
1F80
30C0
60C0
E0E0
E0E0
F0C0
01C0
0380
C700
F800
FC00
1E00
0400
ENDCHAR
STARTCHAR 054A
ENCODING 1354
SWIDTH 833 0
DWIDTH 15 0
BBX 14 12 0 1
BITMAP
07F8
19CC
39CC
39CC
319C
FB9C
039C
0118
0038
0038
0030
00FC
ENDCHAR
STARTCHAR 054B
ENCODING 1355
SWIDTH 722 0
DWIDTH 13 0
BBX 13 13 0 -2
BITMAP
07E0
0C30
1838
1838
3838
3C38
3E70
0360
03C0
0380
7600
FFC0
01E0
ENDCHAR
STARTCHAR 054C
ENCODING 1356
SWIDTH 833 0
DWIDTH 15 0
BBX 16 12 -1 0
BITMAP
01F0
0718
0618
0E18
0C38
1C38
1C30
1C3E
1877
3870
3860
FDF8
ENDCHAR
STARTCHAR 054D
ENCODING 1357
SWIDTH 722 0
DWIDTH 13 0
BBX 13 12 2 0
BITMAP
7DF8
38E0
30E0
70E0
70C0
61C0
E1C0
E180
C380
C380
C700
7C00
ENDCHAR
STARTCHAR 054E
ENCODING 1358
SWIDTH 722 0
DWIDTH 13 0
BBX 12 13 1 -2
BITMAP
01F0
00E0
00C0
01C0
F1C0
E180
E380
E380
7F80
0300
0700
0FE0
0070
ENDCHAR
STARTCHAR 054F
ENCODING 1359
SWIDTH 666 0
DWIDTH 12 0
BBX 11 12 1 0
BITMAP
0780
18E0
38E0
38E0
3E00
1F80
0FC0
03C0
F0C0
E0C0
6180
3E00
ENDCHAR
STARTCHAR 0550
ENCODING 1360
SWIDTH 666 0
DWIDTH 12 0
BBX 14 12 -1 0
BITMAP
01F0
0718
0618
0E18
0C38
1C7C
1C00
1C00
1800
3800
3800
FC00
ENDCHAR
STARTCHAR 0551
ENCODING 1361
SWIDTH 666 0
DWIDTH 12 0
BBX 11 12 1 0
BITMAP
07C0
1CE0
18E0
18E0
19C0
7F80
00C0
00E0
F0E0
E1C0
E380
3F00
ENDCHAR
STARTCHAR 0552
ENCODING 1362
SWIDTH 555 0
DWIDTH 10 0
BBX 12 12 -1 0
BITMAP
0F80
0700
0600
0E00
0FF0
0C70
1C00
1C00
1C00
1800
3800
FC00
ENDCHAR
STARTCHAR 0553
ENCODING 1363
SWIDTH 888 0
DWIDTH 16 0
BBX 15 12 1 0
BITMAP
03F0
03F0
19DC
71CE
738E
E38E
E38E
E39C
E71C
7770
1F80
1F80
ENDCHAR
STARTCHAR 0554
ENCODING 1364
SWIDTH 777 0
DWIDTH 14 0
BBX 15 12 -1 0
BITMAP
007C
01C6
0386
0386
030E
070E
071C
06F0
EE00
7FF8
0E3C
3F00
ENDCHAR
STARTCHAR 0555
ENCODING 1365
SWIDTH 777 0
DWIDTH 14 0
BBX 13 12 1 0
BITMAP
07C0
1C30
3830
3038
7038
7030
E070
E070
E060
60E0
61C0
1F00
ENDCHAR
STARTCHAR 0556
ENCODING 1366
SWIDTH 888 0
DWIDTH 16 0
BBX 15 12 1 0
BITMAP
0FF8
1CE0
39C0
39C0
0FF8
038C
738E
E38E
E30E
E71C
6738
3FC0
ENDCHAR
STARTCHAR 0559
ENCODING 1369
SWIDTH 222 0
DWIDTH 4 0
BBX 3 6 2 7
BITMAP
E0
E0
C0
80
00
40
ENDCHAR
STARTCHAR 055A
ENCODING 1370
SWIDTH 222 0
DWIDTH 4 0
BBX 3 5 3 7
BITMAP
E0
E0
60
40
80
ENDCHAR
STARTCHAR 055B
ENCODING 1371
SWIDTH 222 0
DWIDTH 4 0
BBX 3 3 1 10
BITMAP
60
C0
80
ENDCHAR
STARTCHAR 055C
ENCODING 1372
SWIDTH 166 0
DWIDTH 3 0
BBX 4 4 1 11
BITMAP
10
30
40
80
ENDCHAR
STARTCHAR 055D
ENCODING 1373
SWIDTH 222 0
DWIDTH 4 0
BBX 2 3 2 10
BITMAP
80
C0
40
ENDCHAR
STARTCHAR 055E
ENCODING 1374
SWIDTH 277 0
DWIDTH 5 0
BBX 5 4 1 10
BITMAP
38
58
90
20
ENDCHAR
STARTCHAR 055F
ENCODING 1375
SWIDTH 555 0
DWIDTH 10 0
BBX 10 2 4 14
BITMAP
8000
FFC0
ENDCHAR
STARTCHAR 0561
ENCODING 1377
SWIDTH 777 0
DWIDTH 14 0
BBX 12 8 1 0
BITMAP
6330
E730
6670
6670
EEE0
DF60
EDF0
CEE0
ENDCHAR
STARTCHAR 0562
ENCODING 1378
SWIDTH 555 0
DWIDTH 10 0
BBX 11 12 -2 -3
BITMAP
0CE0
0DE0
0EE0
1CC0
1CC0
18C0
1800
3FC0
3000
3000
7000
F800
ENDCHAR
STARTCHAR 0563
ENCODING 1379
SWIDTH 500 0
DWIDTH 9 0
BBX 8 12 0 -4
BITMAP
1B
37
67
66
C6
CE
FC
EF
0C
1C
18
3C
ENDCHAR
STARTCHAR 0564
ENCODING 1380
SWIDTH 555 0
DWIDTH 10 0
BBX 9 12 0 -3
BITMAP
3380
7780
3B80
7300
7300
6700
6600
C780
0600
0C00
0C00
1E00
ENDCHAR
STARTCHAR 0565
ENCODING 1381
SWIDTH 500 0
DWIDTH 9 0
BBX 10 12 0 0
BITMAP
3800
1800
1800
3800
3FC0
3000
3300
6300
6700
6F00
F600
6700
ENDCHAR
STARTCHAR 0566
ENCODING 1382
SWIDTH 500 0
DWIDTH 9 0
BBX 8 12 0 -4
BITMAP
1B
37
67
66
C6
CE
FC
EC
0C
1C
18
1E
ENDCHAR
STARTCHAR 0567
ENCODING 1383
SWIDTH 444 0
DWIDTH 8 0
BBX 9 14 0 -1
BITMAP
3800
1800
3800
3000
3F80
3000
7000
6000
6000
E000
C000
FC00
0C00
3800
ENDCHAR
STARTCHAR 0568
ENCODING 1384
SWIDTH 555 0
DWIDTH 10 0
BBX 10 12 -1 -3
BITMAP
19C0
3BC0
1DC0
3980
3980
3380
3340
6380
6000
6000
E000
FF00
ENDCHAR
STARTCHAR 0569
ENCODING 1385
SWIDTH 722 0
DWIDTH 13 0
BBX 14 12 -2 -3
BITMAP
0CF0
1D18
0E18
1CFC
1998
1B30
1B30
3360
31C0
3000
7000
F800
ENDCHAR
STARTCHAR 056A
ENCODING 1386
SWIDTH 500 0
DWIDTH 9 0
BBX 10 12 0 1
BITMAP
0380
0180
0180
0380
1FC0
3300
6700
E600
C600
C600
CC00
7800
ENDCHAR
STARTCHAR 056B
ENCODING 1387
SWIDTH 555 0
DWIDTH 10 0
BBX 11 16 -2 -3
BITMAP
0E00
0600
0600
0E00
0CE0
0DE0
0EC0
1CC0
18C0
1980
3980
31C0
3000
7000
7000
F800
ENDCHAR
STARTCHAR 056C
ENCODING 1388
SWIDTH 277 0
DWIDTH 5 0
BBX 5 12 -1 -3
BITMAP
18
18
18
18
30
30
30
70
60
60
60
F0
ENDCHAR
STARTCHAR 056D
ENCODING 1389
SWIDTH 777 0
DWIDTH 14 0
BBX 15 16 -2 -3
BITMAP
0F00
0600
0600
0600
0EC6
0DE6
0ECE
1CCC
1DDC
199C
19FA
399C
3000
3000
7000
F800
ENDCHAR
STARTCHAR 056E
ENCODING 1390
SWIDTH 500 0
DWIDTH 9 0
BBX 9 12 0 1
BITMAP
1C00
0C00
0E00
0700
1F80
3300
6300
6300
E300
C600
4600
7800
ENDCHAR
STARTCHAR 056F
ENCODING 1391
SWIDTH 500 0
DWIDTH 9 0
BBX 9 16 0 -3
BITMAP
3C00
1800
1800
3800
3180
3180
3380
6300
6700
6F00
F600
6600
0600
0C00
0C00
1E00
ENDCHAR
STARTCHAR 0570
ENCODING 1392
SWIDTH 555 0
DWIDTH 10 0
BBX 9 12 0 0
BITMAP
3C00
1800
1800
1800
3B80
3780
3B80
7300
7300
6700
6680
C700
ENDCHAR
STARTCHAR 0571
ENCODING 1393
SWIDTH 555 0
DWIDTH 10 0
BBX 8 13 0 -1
BITMAP
04
08
1E
0F
02
0E
13
33
67
67
CE
D6
E7
ENDCHAR
STARTCHAR 0572
ENCODING 1394
SWIDTH 555 0
DWIDTH 10 0
BBX 9 12 0 -3
BITMAP
3380
3580
3B80
7300
7300
6300
6700
E600
0600
0E00
0E00
0F00
ENDCHAR
STARTCHAR 0573
ENCODING 1395
SWIDTH 555 0
DWIDTH 10 0
BBX 10 12 0 -1
BITMAP
01C0
06C0
0C00
1800
7E00
3300
7300
6700
6700
EE00
D600
E700
ENDCHAR
STARTCHAR 0574
ENCODING 1396
SWIDTH 555 0
DWIDTH 10 0
BBX 11 12 1 0
BITMAP
01E0
02E0
0200
0300
7300
F300
7700
6700
6600
EE00
D700
E600
ENDCHAR
STARTCHAR 0575
ENCODING 1397
SWIDTH 277 0
DWIDTH 5 0
BBX 7 12 -3 -3
BITMAP
06
06
06
06
0E
0C
0C
1C
18
18
F0
E0
ENDCHAR
STARTCHAR 0576
ENCODING 1398
SWIDTH 555 0
DWIDTH 10 0
BBX 8 12 1 0
BITMAP
3E
30
30
38
33
73
67
67
EE
D6
EF
CE
ENDCHAR
STARTCHAR 0577
ENCODING 1399
SWIDTH 388 0
DWIDTH 7 0
BBX 8 12 -2 -3
BITMAP
1F
23
03
03
02
04
08
10
20
60
C0
FC
ENDCHAR
STARTCHAR 0578
ENCODING 1400
SWIDTH 555 0
DWIDTH 10 0
BBX 9 8 0 0
BITMAP
3380
3580
3B80
7300
7300
6300
6780
E700
ENDCHAR
STARTCHAR 0579
ENCODING 1401
SWIDTH 277 0
DWIDTH 5 0
BBX 6 11 -2 -2
BITMAP
10
10
38
1C
0C
04
08
30
60
E0
F8
ENDCHAR
STARTCHAR 057A
ENCODING 1402
SWIDTH 777 0
DWIDTH 14 0
BBX 12 12 1 -3
BITMAP
6330
6730
6670
EE60
CEE0
DD60
EEE0
CCC0
00C0
01C0
0180
03E0
ENDCHAR
STARTCHAR 057B
ENCODING 1403
SWIDTH 444 0
DWIDTH 8 0
BBX 8 12 0 -3
BITMAP
1F
23
23
63
76
34
18
10
20
C0
C0
FC
ENDCHAR
STARTCHAR 057C
ENCODING 1404
SWIDTH 555 0
DWIDTH 10 0
BBX 9 8 0 1
BITMAP
3380
7780
3980
7180
7300
6200
E400
CF00
ENDCHAR
STARTCHAR 057D
ENCODING 1405
SWIDTH 555 0
DWIDTH 10 0
BBX 9 8 1 0
BITMAP
7380
F300
7300
6700
6700
EE00
D600
E600
ENDCHAR
STARTCHAR 057E
ENCODING 1406
SWIDTH 555 0
DWIDTH 10 0
BBX 9 16 1 -3
BITMAP
0380
0180
0180
0380
6300
6300
6700
6600
EE00
D600
EE00
CC00
0C00
1C00
1C00
1E00
ENDCHAR
STARTCHAR 057F
ENCODING 1407
SWIDTH 777 0
DWIDTH 14 0
BBX 12 8 1 0
BITMAP
6330
E370
67B0
6770
EE60
DE60
EC70
EC60
ENDCHAR
STARTCHAR 0580
ENCODING 1408
SWIDTH 555 0
DWIDTH 10 0
BBX 11 12 -2 -3
BITMAP
0CE0
1DE0
0EE0
1CC0
1CC0
19C0
19A0
31C0
3000
3000
7000
F800
ENDCHAR
STARTCHAR 0581
ENCODING 1409
SWIDTH 500 0
DWIDTH 9 0
BBX 9 12 -1 -4
BITMAP
0D80
1B80
3380
3300
6300
6700
7F00
7600
0600
0C00
CC00
F000
ENDCHAR
STARTCHAR 0582
ENCODING 1410
SWIDTH 388 0
DWIDTH 7 0
BBX 6 8 0 1
BITMAP
30
30
30
30
60
60
60
FC
ENDCHAR
STARTCHAR 0583
ENCODING 1411
SWIDTH 777 0
DWIDTH 14 0
BBX 12 16 1 -3
BITMAP
0380
0180
0380
0380
6370
E7B0
6730
6770
EE60
DE60
EC70
EC60
1C00
1800
1800
7C00
ENDCHAR
STARTCHAR 0584
ENCODING 1412
SWIDTH 555 0
DWIDTH 10 0
BBX 10 12 -1 -3
BITMAP
1DC0
3EC0
18C0
18C0
19C0
3980
3300
3E00
7000
FF80
6000
F000
ENDCHAR
STARTCHAR 0585
ENCODING 1413
SWIDTH 500 0
DWIDTH 9 0
BBX 9 8 0 0
BITMAP
0F00
3300
7380
6380
6300
E700
6600
3800
ENDCHAR
STARTCHAR 0586
ENCODING 1414
SWIDTH 722 0
DWIDTH 13 0
BBX 12 16 0 -4
BITMAP
0F80
1980
1980
1B80
0FE0
0330
0730
6630
C670
CE60
CCC0
7F80
0C00
1C00
1800
7C00
ENDCHAR
STARTCHAR 0587
ENCODING 1415
SWIDTH 611 0
DWIDTH 11 0
BBX 11 12 0 0
BITMAP
3C00
1800
1800
3800
3180
3180
3300
7300
6700
6F00
F600
67E0
ENDCHAR
STARTCHAR 0589
ENCODING 1417
SWIDTH 277 0
DWIDTH 5 0
BBX 5 8 1 0
BITMAP
38
38
30
00
00
C0
E0
E0
ENDCHAR
STARTCHAR 058A
ENCODING 1418
SWIDTH 388 0
DWIDTH 7 0
BBX 6 3 2 3
BITMAP
40
C4
78
ENDCHAR
STARTCHAR 058D
ENCODING 1421
SWIDTH 944 0
DWIDTH 17 0
BBX 16 16 0 -4
BITMAP
01C0
0F80
1318
333C
3B72
1942
8D9E
C27F
FE43
79B1
4298
4EDC
3CCC
18C8
01F0
0300
ENDCHAR
STARTCHAR 058E
ENCODING 1422
SWIDTH 944 0
DWIDTH 17 0
BBX 16 16 0 -4
BITMAP
0380
01F0
18C8
3CCC
6EDC
4298
79B1
FE43
C27F
8D9E
1942
3B72
333C
1318
0F80
00C0
ENDCHAR
STARTCHAR 058F
ENCODING 1423
SWIDTH 777 0
DWIDTH 14 0
BBX 13 12 1 0
BITMAP
0F80
18C0
30E0
70E0
70C0
F1C0
03F0
07F0
03B8
0380
0380
0FC0
ENDCHAR
STARTCHAR 0591
ENCODING 1425
SWIDTH 0 0
DWIDTH 0 0
BBX 4 4 -4 -4
BITMAP
20
60
90
A0
ENDCHAR
STARTCHAR 0592
ENCODING 1426
SWIDTH 0 0
DWIDTH 0 0
BBX 4 3 0 10
BITMAP
20
00
F0
ENDCHAR
STARTCHAR 0593
ENCODING 1427
SWIDTH 0 0
DWIDTH 0 0
BBX 2 4 1 10
BITMAP
40
40
80
80
ENDCHAR
STARTCHAR 0594
ENCODING 1428
SWIDTH 0 0
DWIDTH 0 0
BBX 2 3 1 10
BITMAP
40
00
C0
ENDCHAR
STARTCHAR 0595
ENCODING 1429
SWIDTH 0 0
DWIDTH 0 0
BBX 4 3 0 10
BITMAP
50
80
B0
ENDCHAR
STARTCHAR 0596
ENCODING 1430
SWIDTH 0 0
DWIDTH 0 0
BBX 2 4 -3 -4
BITMAP
80
80
80
C0
ENDCHAR
STARTCHAR 0597
ENCODING 1431
SWIDTH 0 0
DWIDTH 0 0
BBX 2 3 1 10
BITMAP
40
C0
C0
ENDCHAR
STARTCHAR 0598
ENCODING 1432
SWIDTH 0 0
DWIDTH 0 0
BBX 6 3 -1 11
BITMAP
64
94
18
ENDCHAR
STARTCHAR 0599
ENCODING 1433
SWIDTH 0 0
DWIDTH 0 0
BBX 2 3 -1 10
BITMAP
C0
40
40
ENDCHAR
STARTCHAR 059A
ENCODING 1434
SWIDTH 0 0
DWIDTH 0 0
BBX 2 3 -1 -3
BITMAP
40
80
40
ENDCHAR
STARTCHAR 059B
ENCODING 1435
SWIDTH 0 0
DWIDTH 0 0
BBX 4 4 -4 -4
BITMAP
10
50
20
C0
ENDCHAR
STARTCHAR 059C
ENCODING 1436
SWIDTH 0 0
DWIDTH 0 0
BBX 4 4 0 10
BITMAP
30
40
80
80
ENDCHAR
STARTCHAR 059D
ENCODING 1437
SWIDTH 0 0
DWIDTH 0 0
BBX 4 4 2 10
BITMAP
10
60
40
80
ENDCHAR
STARTCHAR 059E
ENCODING 1438
SWIDTH 0 0
DWIDTH 0 0
BBX 6 4 -1 10
BITMAP
34
58
50
90
ENDCHAR
STARTCHAR 059F
ENCODING 1439
SWIDTH 0 0
DWIDTH 0 0
BBX 8 3 -2 10
BITMAP
63
A5
E6
ENDCHAR
STARTCHAR 05A0
ENCODING 1440
SWIDTH 0 0
DWIDTH 0 0
BBX 3 3 1 10
BITMAP
60
A0
C0
ENDCHAR
STARTCHAR 05A1
ENCODING 1441
SWIDTH 0 0
DWIDTH 0 0
BBX 4 4 0 10
BITMAP
50
50
E0
80
ENDCHAR
STARTCHAR 05A2
ENCODING 1442
SWIDTH 0 0
DWIDTH 0 0
BBX 3 3 -3 -3
BITMAP
A0
C0
80
ENDCHAR
STARTCHAR 05A3
ENCODING 1443
SWIDTH 0 0
DWIDTH 0 0
BBX 2 2 -3 -2
BITMAP
40
C0
ENDCHAR
STARTCHAR 05A4
ENCODING 1444
SWIDTH 0 0
DWIDTH 0 0
BBX 2 3 -3 -3
BITMAP
40
80
C0
ENDCHAR
STARTCHAR 05A5
ENCODING 1445
SWIDTH 0 0
DWIDTH 0 0
BBX 4 4 -4 -4
BITMAP
10
10
20
C0
ENDCHAR
STARTCHAR 05A6
ENCODING 1446
SWIDTH 0 0
DWIDTH 0 0
BBX 6 4 -5 -4
BITMAP
14
24
28
D0
ENDCHAR
STARTCHAR 05A7
ENCODING 1447
SWIDTH 0 0
DWIDTH 0 0
BBX 3 4 -3 -4
BITMAP
20
C0
40
80
ENDCHAR
STARTCHAR 05A8
ENCODING 1448
SWIDTH 0 0
DWIDTH 0 0
BBX 2 4 1 10
BITMAP
C0
40
40
40
ENDCHAR
STARTCHAR 05A9
ENCODING 1449
SWIDTH 0 0
DWIDTH 0 0
BBX 3 3 0 10
BITMAP
60
A0
60
ENDCHAR
STARTCHAR 05AA
ENCODING 1450
SWIDTH 0 0
DWIDTH 0 0
BBX 3 3 -3 -3
BITMAP
A0
C0
80
ENDCHAR
STARTCHAR 05AB
ENCODING 1451
SWIDTH 0 0
DWIDTH 0 0
BBX 2 3 1 10
BITMAP
40
80
80
ENDCHAR
STARTCHAR 05AC
ENCODING 1452
SWIDTH 0 0
DWIDTH 0 0
BBX 3 2 0 12
BITMAP
20
E0
ENDCHAR
STARTCHAR 05AD
ENCODING 1453
SWIDTH 0 0
DWIDTH 0 0
BBX 2 4 -1 -4
BITMAP
80
80
80
40
ENDCHAR
STARTCHAR 05AE
ENCODING 1454
SWIDTH 0 0
DWIDTH 0 0
BBX 6 3 -3 11
BITMAP
60
A4
18
ENDCHAR
STARTCHAR 05AF
ENCODING 1455
SWIDTH 0 0
DWIDTH 0 0
BBX 2 3 1 11
BITMAP
40
C0
C0
ENDCHAR
STARTCHAR 05B0
ENCODING 1456
SWIDTH 0 0
DWIDTH 0 0
BBX 2 3 -2 -3
BITMAP
C0
80
80
ENDCHAR
STARTCHAR 05B1
ENCODING 1457
SWIDTH 0 0
DWIDTH 0 0
BBX 6 3 -2 -3
BITMAP
FC
00
48
ENDCHAR
STARTCHAR 05B2
ENCODING 1458
SWIDTH 0 0
DWIDTH 0 0
BBX 5 3 -2 -4
BITMAP
E8
00
18
ENDCHAR
STARTCHAR 05B3
ENCODING 1459
SWIDTH 0 0
DWIDTH 0 0
BBX 6 3 -2 -3
BITMAP
F4
40
48
ENDCHAR
STARTCHAR 05B4
ENCODING 1460
SWIDTH 0 0
DWIDTH 0 0
BBX 2 1 -2 -1
BITMAP
C0
ENDCHAR
STARTCHAR 05B5
ENCODING 1461
SWIDTH 0 0
DWIDTH 0 0
BBX 4 1 -2 -1
BITMAP
F0
ENDCHAR
STARTCHAR 05B6
ENCODING 1462
SWIDTH 0 0
DWIDTH 0 0
BBX 4 3 -2 -3
BITMAP
F0
00
40
ENDCHAR
STARTCHAR 05B7
ENCODING 1463
SWIDTH 0 0
DWIDTH 0 0
BBX 4 1 -2 -2
BITMAP
F0
ENDCHAR
STARTCHAR 05B8
ENCODING 1464
SWIDTH 0 0
DWIDTH 0 0
BBX 4 3 -2 -4
BITMAP
F0
40
40
ENDCHAR
STARTCHAR 05B9
ENCODING 1465
SWIDTH 0 0
DWIDTH 0 0
BBX 2 2 1 10
BITMAP
C0
80
ENDCHAR
STARTCHAR 05BA
ENCODING 1466
SWIDTH 0 0
DWIDTH 0 0
BBX 2 2 1 10
BITMAP
C0
80
ENDCHAR
STARTCHAR 05BB
ENCODING 1467
SWIDTH 0 0
DWIDTH 0 0
BBX 5 3 -2 -3
BITMAP
C0
28
08
ENDCHAR
STARTCHAR 05BC
ENCODING 1468
SWIDTH 0 0
DWIDTH 0 0
BBX 2 1 2 4
BITMAP
C0
ENDCHAR
STARTCHAR 05BD
ENCODING 1469
SWIDTH 0 0
DWIDTH 0 0
BBX 2 4 -3 -4
BITMAP
40
40
80
80
ENDCHAR
STARTCHAR 05BE
ENCODING 1470
SWIDTH 388 0
DWIDTH 7 0
BBX 5 3 2 6
BITMAP
F8
F8
F8
ENDCHAR
STARTCHAR 05BF
ENCODING 1471
SWIDTH 0 0
DWIDTH 0 0
BBX 3 1 0 10
BITMAP
E0
ENDCHAR
STARTCHAR 05C0
ENCODING 1472
SWIDTH 333 0
DWIDTH 6 0
BBX 4 11 1 0
BITMAP
10
30
30
20
60
60
60
C0
C0
C0
80
ENDCHAR
STARTCHAR 05C1
ENCODING 1473
SWIDTH 0 0
DWIDTH 0 0
BBX 1 1 8 10
BITMAP
80
ENDCHAR
STARTCHAR 05C2
ENCODING 1474
SWIDTH 0 0
DWIDTH 0 0
BBX 1 2 1 10
BITMAP
80
80
ENDCHAR
STARTCHAR 05C3
ENCODING 1475
SWIDTH 333 0
DWIDTH 6 0
BBX 5 10 1 0
BITMAP
30
38
38
00
00
00
00
C0
E0
E0
ENDCHAR
STARTCHAR 05C4
ENCODING 1476
SWIDTH 0 0
DWIDTH 0 0
BBX 1 1 1 9
BITMAP
80
ENDCHAR
STARTCHAR 05C5
ENCODING 1477
SWIDTH 0 0
DWIDTH 0 0
BBX 1 1 -2 -1
BITMAP
80
ENDCHAR
STARTCHAR 05C6
ENCODING 1478
SWIDTH 333 0
DWIDTH 6 0
BBX 7 10 -1 1
BITMAP
02
1E
1E
10
20
20
20
78
78
F8
ENDCHAR
STARTCHAR 05C7
ENCODING 1479
SWIDTH 0 0
DWIDTH 0 0
BBX 4 3 -2 -5
BITMAP
F0
40
40
ENDCHAR
STARTCHAR 05D0
ENCODING 1488
SWIDTH 500 0
DWIDTH 9 0
BBX 9 10 0 -1
BITMAP
2200
3380
3380
3980
3E00
6E00
4E00
E700
E300
C200
ENDCHAR
STARTCHAR 05D1
ENCODING 1489
SWIDTH 444 0
DWIDTH 8 0
BBX 8 9 0 1
BITMAP
3E
3F
3F
01
02
02
7F
7F
FE
ENDCHAR
STARTCHAR 05D2
ENCODING 1490
SWIDTH 388 0
DWIDTH 7 0
BBX 7 10 -1 -1
BITMAP
08
1C
1E
06
04
04
04
3C
76
E4
ENDCHAR
STARTCHAR 05D3
ENCODING 1491
SWIDTH 444 0
DWIDTH 8 0
BBX 7 9 1 0
BITMAP
FE
FE
FC
08
10
10
10
10
30
ENDCHAR
STARTCHAR 05D4
ENCODING 1492
SWIDTH 500 0
DWIDTH 9 0
BBX 10 10 0 0
BITMAP
3FC0
3FC0
3F80
0100
0100
2100
6300
6300
4200
8000
ENDCHAR
STARTCHAR 05D5
ENCODING 1493
SWIDTH 333 0
DWIDTH 6 0
BBX 4 10 2 -1
BITMAP
80
F0
F0
30
20
20
20
20
40
40
ENDCHAR
STARTCHAR 05D6
ENCODING 1494
SWIDTH 333 0
DWIDTH 6 0
BBX 4 10 2 -1
BITMAP
80
F0
F0
70
40
40
C0
C0
C0
80
ENDCHAR
STARTCHAR 05D7
ENCODING 1495
SWIDTH 500 0
DWIDTH 9 0
BBX 10 10 0 0
BITMAP
3FC0
3FC0
3F80
1100
2100
2100
6300
6300
4200
8000
ENDCHAR
STARTCHAR 05D8
ENCODING 1496
SWIDTH 500 0
DWIDTH 9 0
BBX 9 10 1 1
BITMAP
4300
7780
7780
4900
4900
4100
4100
FE00
FE00
FC00
ENDCHAR
STARTCHAR 05D9
ENCODING 1497
SWIDTH 277 0
DWIDTH 5 0
BBX 4 6 1 3
BITMAP
40
E0
F0
30
30
20
ENDCHAR
STARTCHAR 05DA
ENCODING 1498
SWIDTH 444 0
DWIDTH 8 0
BBX 7 12 2 -3
BITMAP
FE
FE
FC
08
08
08
08
18
18
10
30
20
ENDCHAR
STARTCHAR 05DB
ENCODING 1499
SWIDTH 444 0
DWIDTH 8 0
BBX 8 9 0 1
BITMAP
3E
3F
3F
01
01
02
7E
7C
F8
ENDCHAR
STARTCHAR 05DC
ENCODING 1500
SWIDTH 444 0
DWIDTH 8 0
BBX 7 13 2 0
BITMAP
80
C0
40
80
FC
FE
FC
04
04
08
10
20
60
ENDCHAR
STARTCHAR 05DD
ENCODING 1501
SWIDTH 500 0
DWIDTH 9 0
BBX 9 9 -1 1
BITMAP
3F00
3F80
3F80
1080
2100
4100
7F00
7E00
FE00
ENDCHAR
STARTCHAR 05DE
ENCODING 1502
SWIDTH 500 0
DWIDTH 9 0
BBX 9 10 0 1
BITMAP
2000
3B00
3B80
0F80
1080
2080
2080
4F00
5F00
9F00
ENDCHAR
STARTCHAR 05DF
ENCODING 1503
SWIDTH 277 0
DWIDTH 5 0
BBX 5 13 1 -4
BITMAP
40
70
78
38
10
20
20
20
60
60
40
C0
80
ENDCHAR
STARTCHAR 05E0
ENCODING 1504
SWIDTH 333 0
DWIDTH 6 0
BBX 6 10 0 1
BITMAP
30
3C
3C
08
08
08
08
78
F8
F0
ENDCHAR
STARTCHAR 05E1
ENCODING 1505
SWIDTH 444 0
DWIDTH 8 0
BBX 7 10 1 1
BITMAP
40
7C
7E
7E
42
82
84
FC
F8
70
ENDCHAR
STARTCHAR 05E2
ENCODING 1506
SWIDTH 500 0
DWIDTH 9 0
BBX 10 11 0 -2
BITMAP
2100
39C0
3DC0
1C80
1080
1900
0900
0E00
7E00
7C00
C000
ENDCHAR
STARTCHAR 05E3
ENCODING 1507
SWIDTH 500 0
DWIDTH 9 0
BBX 7 12 2 -2
BITMAP
FC
FE
FE
84
E4
E4
04
0C
08
08
18
10
ENDCHAR
STARTCHAR 05E4
ENCODING 1508
SWIDTH 444 0
DWIDTH 8 0
BBX 8 9 0 1
BITMAP
3E
3F
3F
21
31
02
7E
7C
F8
ENDCHAR
STARTCHAR 05E5
ENCODING 1509
SWIDTH 555 0
DWIDTH 10 0
BBX 9 13 1 -4
BITMAP
4400
F780
F780
7380
1400
1800
1800
1000
1000
3000
3000
2000
2000
ENDCHAR
STARTCHAR 05E6
ENCODING 1510
SWIDTH 500 0
DWIDTH 9 0
BBX 9 10 0 1
BITMAP
3300
3B80
3B80
0980
0A00
0E00
0600
7E00
7E00
FC00
ENDCHAR
STARTCHAR 05E7
ENCODING 1511
SWIDTH 444 0
DWIDTH 8 0
BBX 9 13 -1 -4
BITMAP
1000
3F80
3F80
1F80
0180
0100
2300
2400
6800
5800
4000
4000
8000
ENDCHAR
STARTCHAR 05E8
ENCODING 1512
SWIDTH 444 0
DWIDTH 8 0
BBX 7 10 1 -1
BITMAP
40
7C
FE
7E
06
04
04
04
04
08
ENDCHAR
STARTCHAR 05E9
ENCODING 1513
SWIDTH 666 0
DWIDTH 12 0
BBX 11 10 2 1
BITMAP
88C0
EEE0
EEE0
AA40
8880
9100
A300
FE00
FE00
FC00
ENDCHAR
STARTCHAR 05EA
ENCODING 1514
SWIDTH 500 0
DWIDTH 9 0
BBX 10 10 -1 -1
BITMAP
0800
0F80
1FC0
0FC0
08C0
1080
1080
3080
7080
F100
ENDCHAR
STARTCHAR 05F0
ENCODING 1520
SWIDTH 611 0
DWIDTH 11 0
BBX 9 10 2 -1
BITMAP
8200
F780
F780
3180
2080
2100
2100
2100
4200
4200
ENDCHAR
STARTCHAR 05F1
ENCODING 1521
SWIDTH 611 0
DWIDTH 11 0
BBX 9 10 2 -1
BITMAP
8400
E780
E780
6180
2100
4100
0100
0100
0200
0200
ENDCHAR
STARTCHAR 05F2
ENCODING 1522
SWIDTH 555 0
DWIDTH 10 0
BBX 9 6 2 3
BITMAP
8200
E700
E780
6380
2100
4000
ENDCHAR
STARTCHAR 05F3
ENCODING 1523
SWIDTH 222 0
DWIDTH 4 0
BBX 3 6 1 3
BITMAP
20
60
60
40
C0
80
ENDCHAR
STARTCHAR 05F4
ENCODING 1524
SWIDTH 444 0
DWIDTH 8 0
BBX 7 6 1 3
BITMAP
22
66
6E
4C
C8
88
ENDCHAR
STARTCHAR 1D00
ENCODING 7424
SWIDTH 388 0
DWIDTH 7 0
BBX 7 8 -1 0
BITMAP
02
06
06
1E
16
3E
46
CE
ENDCHAR
STARTCHAR 1D01
ENCODING 7425
SWIDTH 611 0
DWIDTH 11 0
BBX 12 8 -1 0
BITMAP
07F0
0710
0B00
13C0
2640
5E40
4620
8FC0
ENDCHAR
STARTCHAR 1D02
ENCODING 7426
SWIDTH 722 0
DWIDTH 13 0
BBX 13 8 0 0
BITMAP
1E30
2778
07B8
0730
3E30
E660
CE60
FD80
ENDCHAR
STARTCHAR 1D03
ENCODING 7427
SWIDTH 500 0
DWIDTH 9 0
BBX 9 8 0 0
BITMAP
3F00
3B80
3300
7F80
3300
7300
6700
EE00
ENDCHAR
STARTCHAR 1D04
ENCODING 7428
SWIDTH 444 0
DWIDTH 8 0
BBX 8 8 0 0
BITMAP
0F
30
60
60
E0
E0
62
3C
ENDCHAR
STARTCHAR 1D05
ENCODING 7429
SWIDTH 555 0
DWIDTH 10 0
BBX 8 8 1 0
BITMAP
7C
33
63
63
63
E7
C6
F8
ENDCHAR
STARTCHAR 1D06
ENCODING 7430
SWIDTH 555 0
DWIDTH 10 0
BBX 9 8 0 0
BITMAP
3E00
1980
3180
7980
3180
7380
6300
FC00
ENDCHAR
STARTCHAR 1D07
ENCODING 7431
SWIDTH 500 0
DWIDTH 9 0
BBX 9 8 0 0
BITMAP
3F80
1800
3000
3E00
3000
7000
6000
FE00
ENDCHAR
STARTCHAR 1D08
ENCODING 7432
SWIDTH 388 0
DWIDTH 7 0
BBX 6 8 1 0
BITMAP
F8
9C
18
60
18
38
30
E0
ENDCHAR
STARTCHAR 1D09
ENCODING 7433
SWIDTH 277 0
DWIDTH 5 0
BBX 5 12 0 -4
BITMAP
30
78
30
30
70
60
60
F0
00
00
C0
C0
ENDCHAR
STARTCHAR 1D0A
ENCODING 7434
SWIDTH 388 0
DWIDTH 7 0
BBX 7 8 -1 0
BITMAP
0E
0E
0C
0C
0C
18
D8
70
ENDCHAR
STARTCHAR 1D0B
ENCODING 7435
SWIDTH 500 0
DWIDTH 9 0
BBX 9 8 0 0
BITMAP
3D80
3900
3600
3C00
3E00
7600
6600
F700
ENDCHAR
STARTCHAR 1D0C
ENCODING 7436
SWIDTH 388 0
DWIDTH 7 0
BBX 7 8 0 0
BITMAP
38
38
34
38
70
F0
62
FE
ENDCHAR
STARTCHAR 1D0D
ENCODING 7437
SWIDTH 666 0
DWIDTH 12 0
BBX 11 8 0 0
BITMAP
3860
18E0
39C0
5AC0
5CC0
4DC0
4980
C3C0
ENDCHAR
STARTCHAR 1D0E
ENCODING 7438
SWIDTH 666 0
DWIDTH 12 0
BBX 11 8 0 0
BITMAP
3DE0
39C0
3380
3580
3980
7380
6300
F780
ENDCHAR
STARTCHAR 1D0F
ENCODING 7439
SWIDTH 500 0
DWIDTH 9 0
BBX 8 8 0 0
BITMAP
0E
33
73
63
63
E6
66
68
ENDCHAR
STARTCHAR 1D10
ENCODING 7440
SWIDTH 444 0
DWIDTH 8 0
BBX 7 8 1 0
BITMAP
F8
8C
0E
0E
0C
0C
18
F0
ENDCHAR
STARTCHAR 1D11
ENCODING 7441
SWIDTH 500 0
DWIDTH 9 0
BBX 9 8 0 0
BITMAP
7800
FE00
8F00
8100
4080
7880
3F00
0F00
ENDCHAR
STARTCHAR 1D12
ENCODING 7442
SWIDTH 500 0
DWIDTH 9 0
BBX 9 8 0 -1
BITMAP
3C00
7E00
C700
8100
8080
8080
0080
0300
ENDCHAR
STARTCHAR 1D13
ENCODING 7443
SWIDTH 500 0
DWIDTH 9 0
BBX 9 8 0 0
BITMAP
7800
FE00
AF00
9100
4900
7C80
3F00
0F00
ENDCHAR
STARTCHAR 1D14
ENCODING 7444
SWIDTH 722 0
DWIDTH 13 0
BBX 13 8 0 0
BITMAP
1EF0
6730
0738
0E30
7630
CE60
CE60
D780
ENDCHAR
STARTCHAR 1D15
ENCODING 7445
SWIDTH 444 0
DWIDTH 8 0
BBX 8 8 0 0
BITMAP
33
33
1C
66
C6
C6
C6
78
ENDCHAR
STARTCHAR 1D16
ENCODING 7446
SWIDTH 500 0
DWIDTH 9 0
BBX 7 4 1 3
BITMAP
1C
66
66
C6
ENDCHAR
STARTCHAR 1D17
ENCODING 7447
SWIDTH 500 0
DWIDTH 9 0
BBX 8 5 0 0
BITMAP
63
E3
E6
64
68
ENDCHAR
STARTCHAR 1D18
ENCODING 7448
SWIDTH 444 0
DWIDTH 8 0
BBX 7 8 1 0
BITMAP
7E
36
66
66
78
E0
C0
C0
ENDCHAR
STARTCHAR 1D19
ENCODING 7449
SWIDTH 500 0
DWIDTH 9 0
BBX 9 8 0 0
BITMAP
0F80
1980
3B80
3B00
1F00
1B00
3600
E600
ENDCHAR
STARTCHAR 1D1A
ENCODING 7450
SWIDTH 500 0
DWIDTH 9 0
BBX 8 8 1 0
BITMAP
67
77
36
36
3E
EC
CC
6C
ENDCHAR
STARTCHAR 1D1B
ENCODING 7451
SWIDTH 388 0
DWIDTH 7 0
BBX 7 8 1 0
BITMAP
FE
32
30
70
60
60
60
E0
ENDCHAR
STARTCHAR 1D1C
ENCODING 7452
SWIDTH 444 0
DWIDTH 8 0
BBX 9 8 0 0
BITMAP
7980
3100
6100
6200
6200
E200
E400
7800
ENDCHAR
STARTCHAR 1D1D
ENCODING 7453
SWIDTH 500 0
DWIDTH 9 0
BBX 8 9 0 0
BITMAP
C0
F9
7F
0F
04
E2
FD
BF
07
ENDCHAR
STARTCHAR 1D1E
ENCODING 7454
SWIDTH 666 0
DWIDTH 12 0
BBX 11 8 0 1
BITMAP
DE00
FFE0
03E0
E080
DC40
1FA0
07E0
00E0
ENDCHAR
STARTCHAR 1D1F
ENCODING 7455
SWIDTH 500 0
DWIDTH 9 0
BBX 9 13 0 -4
BITMAP
C000
F800
7F00
0F00
8480
F200
FF00
1F80
0400
E200
FD00
5F00
0700
ENDCHAR
STARTCHAR 1D20
ENCODING 7456
SWIDTH 444 0
DWIDTH 8 0
BBX 8 8 1 0
BITMAP
E3
C4
C4
C8
D0
E0
C0
80
ENDCHAR
STARTCHAR 1D21
ENCODING 7457
SWIDTH 611 0
DWIDTH 11 0
BBX 11 8 1 0
BITMAP
EE60
C640
CE80
DD00
EE00
CE00
CC00
8800
ENDCHAR
STARTCHAR 1D22
ENCODING 7458
SWIDTH 333 0
DWIDTH 6 0
BBX 8 8 -1 0
BITMAP
3F
07
0E
1C
38
30
62
FE
ENDCHAR
STARTCHAR 1D23
ENCODING 7459
SWIDTH 388 0
DWIDTH 7 0
BBX 7 8 0 0
BITMAP
7E
4C
18
18
0C
0C
9C
78
ENDCHAR
STARTCHAR 1D24
ENCODING 7460
SWIDTH 388 0
DWIDTH 7 0
BBX 8 8 0 0
BITMAP
3E
63
06
18
60
C0
CC
78
ENDCHAR
STARTCHAR 1D25
ENCODING 7461
SWIDTH 555 0
DWIDTH 10 0
BBX 10 8 -1 0
BITMAP
0780
0FC0
1FC0
1F80
0F00
0E00
CCC0
F380
ENDCHAR
STARTCHAR 1D26
ENCODING 7462
SWIDTH 388 0
DWIDTH 7 0
BBX 8 8 0 0
BITMAP
3F
30
30
70
60
60
60
E0
ENDCHAR
STARTCHAR 1D27
ENCODING 7463
SWIDTH 444 0
DWIDTH 8 0
BBX 7 8 -1 0
BITMAP
02
06
06
1E
26
26
46
CE
ENDCHAR
STARTCHAR 1D28
ENCODING 7464
SWIDTH 611 0
DWIDTH 11 0
BBX 10 8 0 0
BITMAP
3FC0
38C0
3180
3180
3180
7380
6300
F780
ENDCHAR
STARTCHAR 1D29
ENCODING 7465
SWIDTH 444 0
DWIDTH 8 0
BBX 7 8 1 0
BITMAP
7E
36
66
66
78
E0
C0
C0
ENDCHAR
STARTCHAR 1D2A
ENCODING 7466
SWIDTH 500 0
DWIDTH 9 0
BBX 9 8 1 0
BITMAP
DD80
D980
DB80
DB00
7E00
3000
3000
7000
ENDCHAR
STARTCHAR 1D2B
ENCODING 7467
SWIDTH 500 0
DWIDTH 9 0
BBX 10 8 -1 0
BITMAP
0FC0
0980
1180
1380
1300
2300
E700
C700
ENDCHAR
STARTCHAR 1D2C
ENCODING 7468
SWIDTH 444 0
DWIDTH 8 0
BBX 7 8 0 4
BITMAP
02
02
06
1E
1E
26
46
CE
ENDCHAR
STARTCHAR 1D2D
ENCODING 7469
SWIDTH 555 0
DWIDTH 10 0
BBX 11 7 0 5
BITMAP
03E0
0700
0B40
1380
2E00
4640
CFC0
ENDCHAR
STARTCHAR 1D2E
ENCODING 7470
SWIDTH 388 0
DWIDTH 7 0
BBX 8 7 0 5
BITMAP
1E
13
12
3C
36
26
F8
ENDCHAR
STARTCHAR 1D2F
ENCODING 7471
SWIDTH 388 0
DWIDTH 7 0
BBX 8 7 0 5
BITMAP
1E
13
12
7F
36
26
F8
ENDCHAR
STARTCHAR 1D30
ENCODING 7472
SWIDTH 444 0
DWIDTH 8 0
BBX 8 7 0 5
BITMAP
1E
19
11
31
33
26
F8
ENDCHAR
STARTCHAR 1D31
ENCODING 7473
SWIDTH 388 0
DWIDTH 7 0
BBX 8 7 0 5
BITMAP
1F
11
30
3C
30
22
FE
ENDCHAR
STARTCHAR 1D32
ENCODING 7474
SWIDTH 388 0
DWIDTH 7 0
BBX 7 7 1 5
BITMAP
3E
04
24
3C
08
08
FC
ENDCHAR
STARTCHAR 1D33
ENCODING 7475
SWIDTH 444 0
DWIDTH 8 0
BBX 8 8 1 4
BITMAP
1F
20
60
40
C6
44
44
38
ENDCHAR
STARTCHAR 1D34
ENCODING 7476
SWIDTH 444 0
DWIDTH 8 0
BBX 9 7 0 5
BITMAP
1980
1100
3100
3F00
2200
6200
FF00
ENDCHAR
STARTCHAR 1D35
ENCODING 7477
SWIDTH 222 0
DWIDTH 4 0
BBX 5 7 0 5
BITMAP
18
10
30
30
30
20
F0
ENDCHAR
STARTCHAR 1D36
ENCODING 7478
SWIDTH 277 0
DWIDTH 5 0
BBX 5 8 1 4
BITMAP
18
18
18
10
30
30
A0
C0
ENDCHAR
STARTCHAR 1D37
ENCODING 7479
SWIDTH 388 0
DWIDTH 7 0
BBX 8 7 0 5
BITMAP
1B
14
18
3C
34
24
FE
ENDCHAR
STARTCHAR 1D38
ENCODING 7480
SWIDTH 388 0
DWIDTH 7 0
BBX 7 7 0 5
BITMAP
18
10
10
30
30
22
FC
ENDCHAR
STARTCHAR 1D39
ENCODING 7481
SWIDTH 555 0
DWIDTH 10 0
BBX 10 7 1 5
BITMAP
31C0
5180
5380
5500
5B00
9300
D700
ENDCHAR
STARTCHAR 1D3A
ENCODING 7482
SWIDTH 444 0
DWIDTH 8 0
BBX 8 7 1 5
BITMAP
31
3A
5A
4E
4C
84
C4
ENDCHAR
STARTCHAR 1D3B
ENCODING 7483
SWIDTH 444 0
DWIDTH 8 0
BBX 9 7 0 5
BITMAP
1980
1180
1700
3B00
3300
2200
F700
ENDCHAR
STARTCHAR 1D3C
ENCODING 7484
SWIDTH 444 0
DWIDTH 8 0
BBX 8 8 1 4
BITMAP
1E
22
63
62
C6
C6
4C
30
ENDCHAR
STARTCHAR 1D3D
ENCODING 7485
SWIDTH 388 0
DWIDTH 7 0
BBX 7 7 1 5
BITMAP
32
3E
26
46
C6
4C
30
ENDCHAR
STARTCHAR 1D3E
ENCODING 7486
SWIDTH 388 0
DWIDTH 7 0
BBX 8 8 0 4
BITMAP
1E
13
13
36
38
20
20
F0
ENDCHAR
STARTCHAR 1D3F
ENCODING 7487
SWIDTH 444 0
DWIDTH 8 0
BBX 8 7 0 5
BITMAP
1E
13
12
3C
3C
24
F6
ENDCHAR
STARTCHAR 1D40
ENCODING 7488
SWIDTH 388 0
DWIDTH 7 0
BBX 6 7 2 5
BITMAP
FC
34
20
60
60
40
E0
ENDCHAR
STARTCHAR 1D41
ENCODING 7489
SWIDTH 444 0
DWIDTH 8 0
BBX 7 7 2 5
BITMAP
62
64
44
C4
C8
C8
70
ENDCHAR
STARTCHAR 1D42
ENCODING 7490
SWIDTH 555 0
DWIDTH 10 0
BBX 9 7 2 4
BITMAP
6C80
4D00
4D00
7E00
6C00
C800
8800
ENDCHAR
STARTCHAR 1D43
ENCODING 7491
SWIDTH 277 0
DWIDTH 5 0
BBX 5 5 1 5
BITMAP
28
58
D0
B0
D0
ENDCHAR
STARTCHAR 1D44
ENCODING 7492
SWIDTH 277 0
DWIDTH 5 0
BBX 5 5 1 4
BITMAP
58
78
D8
D0
A0
ENDCHAR
STARTCHAR 1D45
ENCODING 7493
SWIDTH 277 0
DWIDTH 5 0
BBX 5 5 1 5
BITMAP
28
58
D0
B0
D0
ENDCHAR
STARTCHAR 1D46
ENCODING 7494
SWIDTH 444 0
DWIDTH 8 0
BBX 7 5 1 4
BITMAP
76
1A
72
B6
C8
ENDCHAR
STARTCHAR 1D47
ENCODING 7495
SWIDTH 277 0
DWIDTH 5 0
BBX 5 8 1 4
BITMAP
60
60
50
78
D8
90
90
60
ENDCHAR
STARTCHAR 1D48
ENCODING 7496
SWIDTH 277 0
DWIDTH 5 0
BBX 5 7 1 5
BITMAP
08
08
28
58
D0
B0
D0
ENDCHAR
STARTCHAR 1D49
ENCODING 7497
SWIDTH 277 0
DWIDTH 5 0
BBX 4 5 1 4
BITMAP
10
70
E0
80
E0
ENDCHAR
STARTCHAR 1D4A
ENCODING 7498
SWIDTH 277 0
DWIDTH 5 0
BBX 4 5 1 4
BITMAP
30
50
70
B0
C0
ENDCHAR
STARTCHAR 1D4B
ENCODING 7499
SWIDTH 277 0
DWIDTH 5 0
BBX 4 6 1 4
BITMAP
20
50
40
60
80
60
ENDCHAR
STARTCHAR 1D4C
ENCODING 7500
SWIDTH 277 0
DWIDTH 5 0
BBX 3 6 2 4
BITMAP
40
20
20
C0
60
C0
ENDCHAR
STARTCHAR 1D4D
ENCODING 7501
SWIDTH 277 0
DWIDTH 5 0
BBX 6 8 0 2
BITMAP
10
6C
6C
30
60
78
88
70
ENDCHAR
STARTCHAR 1D4E
ENCODING 7502
SWIDTH 166 0
DWIDTH 3 0
BBX 2 7 1 3
BITMAP
40
40
40
C0
C0
00
80
ENDCHAR
STARTCHAR 1D4F
ENCODING 7503
SWIDTH 277 0
DWIDTH 5 0
BBX 6 8 0 4
BITMAP
30
20
2C
70
50
70
58
C0
ENDCHAR
STARTCHAR 1D50
ENCODING 7504
SWIDTH 444 0
DWIDTH 8 0
BBX 7 5 1 5
BITMAP
DA
7E
DA
96
B6
ENDCHAR
STARTCHAR 1D51
ENCODING 7505
SWIDTH 277 0
DWIDTH 5 0
BBX 5 8 1 2
BITMAP
D8
78
D8
D0
90
30
20
40
ENDCHAR
STARTCHAR 1D52
ENCODING 7506
SWIDTH 277 0
DWIDTH 5 0
BBX 5 6 1 4
BITMAP
30
58
D8
90
90
60
ENDCHAR
STARTCHAR 1D53
ENCODING 7507
SWIDTH 277 0
DWIDTH 5 0
BBX 4 5 1 4
BITMAP
70
10
10
A0
40
ENDCHAR
STARTCHAR 1D54
ENCODING 7508
SWIDTH 277 0
DWIDTH 5 0
BBX 5 3 1 6
BITMAP
20
58
D8
ENDCHAR
STARTCHAR 1D55
ENCODING 7509
SWIDTH 277 0
DWIDTH 5 0
BBX 4 3 1 4
BITMAP
90
90
60
ENDCHAR
STARTCHAR 1D56
ENCODING 7510
SWIDTH 277 0
DWIDTH 5 0
BBX 7 8 -1 2
BITMAP
36
1A
16
34
24
38
60
E0
ENDCHAR
STARTCHAR 1D57
ENCODING 7511
SWIDTH 166 0
DWIDTH 3 0
BBX 3 6 1 5
BITMAP
20
E0
40
C0
C0
C0
ENDCHAR
STARTCHAR 1D58
ENCODING 7512
SWIDTH 277 0
DWIDTH 5 0
BBX 5 5 1 6
BITMAP
58
D8
D0
F0
90
ENDCHAR
STARTCHAR 1D59
ENCODING 7513
SWIDTH 333 0
DWIDTH 6 0
BBX 5 5 1 6
BITMAP
C0
78
10
E8
B8
ENDCHAR
STARTCHAR 1D5A
ENCODING 7514
SWIDTH 444 0
DWIDTH 8 0
BBX 7 5 1 5
BITMAP
DA
52
D6
F4
BE
ENDCHAR
STARTCHAR 1D5B
ENCODING 7515
SWIDTH 277 0
DWIDTH 5 0
BBX 4 5 1 5
BITMAP
D0
50
50
60
40
ENDCHAR
STARTCHAR 1D5C
ENCODING 7516
SWIDTH 333 0
DWIDTH 6 0
BBX 6 5 0 5
BITMAP
3C
3C
38
94
68
ENDCHAR
STARTCHAR 1D5D
ENCODING 7517
SWIDTH 277 0
DWIDTH 5 0
BBX 6 9 0 2
BITMAP
1C
34
24
28
68
68
48
F0
C0
ENDCHAR
STARTCHAR 1D5E
ENCODING 7518
SWIDTH 222 0
DWIDTH 4 0
BBX 4 7 1 2
BITMAP
D0
50
50
20
40
C0
C0
ENDCHAR
STARTCHAR 1D5F
ENCODING 7519
SWIDTH 277 0
DWIDTH 5 0
BBX 5 8 1 4
BITMAP
38
20
10
38
D8
98
90
60
ENDCHAR
STARTCHAR 1D60
ENCODING 7520
SWIDTH 333 0
DWIDTH 6 0
BBX 6 7 1 2
BITMAP
38
58
AC
A8
B0
40
40
ENDCHAR
STARTCHAR 1D61
ENCODING 7521
SWIDTH 277 0
DWIDTH 5 0
BBX 6 7 0 2
BITMAP
6C
28
10
30
60
50
D8
ENDCHAR
STARTCHAR 1D62
ENCODING 7522
SWIDTH 166 0
DWIDTH 3 0
BBX 2 7 0 -1
BITMAP
40
00
C0
C0
80
80
80
ENDCHAR
STARTCHAR 1D63
ENCODING 7523
SWIDTH 222 0
DWIDTH 4 0
BBX 4 5 0 -1
BITMAP
50
F0
C0
80
80
ENDCHAR
STARTCHAR 1D64
ENCODING 7524
SWIDTH 277 0
DWIDTH 5 0
BBX 5 5 0 -1
BITMAP
D8
D0
B0
B8
F0
ENDCHAR
STARTCHAR 1D65
ENCODING 7525
SWIDTH 277 0
DWIDTH 5 0
BBX 4 5 0 -2
BITMAP
D0
50
50
60
40
ENDCHAR
STARTCHAR 1D66
ENCODING 7526
SWIDTH 277 0
DWIDTH 5 0
BBX 6 10 -1 -4
BITMAP
08
34
24
38
68
48
58
F0
80
80
ENDCHAR
STARTCHAR 1D67
ENCODING 7527
SWIDTH 222 0
DWIDTH 4 0
BBX 4 7 0 -4
BITMAP
B0
50
60
40
40
80
80
ENDCHAR
STARTCHAR 1D68
ENCODING 7528
SWIDTH 333 0
DWIDTH 6 0
BBX 6 7 -1 -4
BITMAP
18
24
44
48
B0
80
70
ENDCHAR
STARTCHAR 1D69
ENCODING 7529
SWIDTH 333 0
DWIDTH 6 0
BBX 5 7 0 -4
BITMAP
58
A8
A8
B8
D0
60
40
ENDCHAR
STARTCHAR 1D6A
ENCODING 7530
SWIDTH 277 0
DWIDTH 5 0
BBX 6 7 -1 -4
BITMAP
6C
28
10
30
60
60
D8
ENDCHAR
STARTCHAR 1D6B
ENCODING 7531
SWIDTH 722 0
DWIDTH 13 0
BBX 12 8 1 0
BITMAP
F3F0
6330
6730
E660
CF80
D600
E620
C7C0
ENDCHAR
STARTCHAR 1D6C
ENCODING 7532
SWIDTH 500 0
DWIDTH 9 0
BBX 8 12 0 0
BITMAP
3C
3A
7C
78
37
3B
73
63
63
66
E6
78
ENDCHAR
STARTCHAR 1D6D
ENCODING 7533
SWIDTH 500 0
DWIDTH 9 0
BBX 11 12 0 0
BITMAP
03C0
03A0
07C0
0580
1F00
3300
7300
6700
6600
EE00
F700
6600
ENDCHAR
STARTCHAR 1D6E
ENCODING 7534
SWIDTH 333 0
DWIDTH 6 0
BBX 12 16 -3 -4
BITMAP
0070
01B0
0380
0300
0F80
0700
0600
0E80
1F00
1E00
0C00
0C00
0C00
1800
D800
E000
ENDCHAR
STARTCHAR 1D6F
ENCODING 7535
SWIDTH 777 0
DWIDTH 14 0
BBX 14 8 0 0
BITMAP
7B98
37B8
3BF8
FFB4
F7F8
6730
6678
E670
ENDCHAR
STARTCHAR 1D70
ENCODING 7536
SWIDTH 555 0
DWIDTH 10 0
BBX 10 8 0 0
BITMAP
7B80
3780
7BC0
FFC0
7F80
6700
6680
E700
ENDCHAR
STARTCHAR 1D71
ENCODING 7537
SWIDTH 500 0
DWIDTH 9 0
BBX 11 12 -2 -4
BITMAP
1DC0
0EC0
0CE0
1CC0
18C0
1980
3980
3A00
3400
F400
7800
F000
ENDCHAR
STARTCHAR 1D72
ENCODING 7538
SWIDTH 388 0
DWIDTH 7 0
BBX 7 8 0 0
BITMAP
76
36
3A
70
F8
F8
60
E0
ENDCHAR
STARTCHAR 1D73
ENCODING 7539
SWIDTH 444 0
DWIDTH 8 0
BBX 9 8 -1 0
BITMAP
0700
0980
1800
3C00
7C00
B800
3000
6000
ENDCHAR
STARTCHAR 1D74
ENCODING 7540
SWIDTH 388 0
DWIDTH 7 0
BBX 7 8 0 0
BITMAP
3E
60
70
7A
9E
8C
8C
F8
ENDCHAR
STARTCHAR 1D75
ENCODING 7541
SWIDTH 277 0
DWIDTH 5 0
BBX 6 10 -1 1
BITMAP
04
0C
3C
18
3C
7C
B8
30
70
30
ENDCHAR
STARTCHAR 1D76
ENCODING 7542
SWIDTH 388 0
DWIDTH 7 0
BBX 7 10 0 -2
BITMAP
3E
7C
08
70
1C
20
60
E4
34
18
ENDCHAR
STARTCHAR 1D77
ENCODING 7543
SWIDTH 500 0
DWIDTH 9 0
BBX 10 12 -1 -4
BITMAP
1F80
30C0
30C0
3F00
1F00
0100
0E00
3300
7300
6300
6600
FC00
ENDCHAR
STARTCHAR 1D78
ENCODING 7544
SWIDTH 388 0
DWIDTH 7 0
BBX 7 6 1 4
BITMAP
7E
6C
6C
78
48
D8
ENDCHAR
STARTCHAR 1D79
ENCODING 7545
SWIDTH 500 0
DWIDTH 9 0
BBX 9 12 0 -4
BITMAP
3F80
0200
0C00
0600
0E00
3700
6700
C700
C600
C600
CC00
7800
ENDCHAR
STARTCHAR 1D7A
ENCODING 7546
SWIDTH 777 0
DWIDTH 14 0
BBX 14 12 -1 0
BITMAP
01E0
00E0
04D0
0CE0
3DDC
19AC
3BDC
3598
3B98
3318
733C
F738
ENDCHAR
STARTCHAR 1D7B
ENCODING 7547
SWIDTH 277 0
DWIDTH 5 0
BBX 5 8 0 0
BITMAP
38
30
30
F8
60
60
60
E0
ENDCHAR
STARTCHAR 1D7C
ENCODING 7548
SWIDTH 277 0
DWIDTH 5 0
BBX 5 8 0 0
BITMAP
70
30
30
F8
60
60
F0
60
ENDCHAR
STARTCHAR 1D7D
ENCODING 7549
SWIDTH 500 0
DWIDTH 9 0
BBX 10 12 -1 -4
BITMAP
3B80
1D80
19C0
3980
7FC0
3180
7300
7400
6800
6000
E000
E000
ENDCHAR
STARTCHAR 1D7E
ENCODING 7550
SWIDTH 444 0
DWIDTH 8 0
BBX 9 8 0 0
BITMAP
7980
7100
6100
FF00
6200
E200
E400
7800
ENDCHAR
STARTCHAR 1D7F
ENCODING 7551
SWIDTH 555 0
DWIDTH 10 0
BBX 10 8 0 0
BITMAP
3BC0
4CC0
3300
6180
FF80
E300
6300
3C00
ENDCHAR
ENDFONT
